<svg width="215" height="328" viewBox="0 0 215 328" fill="none" xmlns="http://www.w3.org/2000/svg">

<g id="Waldorf Kindergarten &#38; TK in Santa Rosa | Summerfield">

<g id="Body">
<g id="Group 5">
<g id="Frame" opacity="0.2">
<path id="Vector" d="M67.5585 162.126C69.702 152.503 66.5728 133.245 60.5802 129.416C57.6579 127.549 54.1836 126.239 51.155 128.921C48.812 130.996 47.9077 135.045 47.802 137.988C47.617 143.138 49.1995 148.329 51.2289 152.912C53.7216 158.541 59.0604 163.924 64.2385 167.118C65.3919 165.344 67.0161 163.399 67.5585 162.126ZM67.5585 162.126C68.7739 163.111 74.8719 165.672 78.8444 166.26C80.2853 166.473 81.652 166.675 82.7596 166.878C89.3426 168.081 99.7932 168.58 103.165 160.825C104.144 158.573 105.929 153.129 103.298 151.426C100.846 149.839 97.2941 149.371 94.431 149.42C86.2088 149.558 74.5499 152.069 67.5585 162.126ZM100.605 90.9172C98.0402 87.1685 95.1005 73.4802 98.0838 67.7155C99.5002 64.9791 101.828 62.0346 104.344 60.2492C107.814 57.786 110.297 56.3233 112.483 60.7723C114.765 65.4181 113.029 69.4313 111.124 73.8348C110.967 74.1979 110.808 74.5634 110.651 74.9323C108.461 80.0737 102.96 89.5683 100.605 90.9172ZM87.835 126.31C89.9845 121.265 89.9987 117.698 90.202 114.686C90.3848 111.971 90.2886 109.259 90.1587 106.545C89.8193 99.4425 85.4857 93.7117 78.2074 91.2893C74.181 89.9491 66.9725 90.681 66.8548 96.6161C66.804 99.1776 68.3305 102.05 69.6027 104.443C69.8473 104.904 70.0826 105.346 70.2952 105.766C73.8658 112.8 81.4694 121.45 87.835 126.31ZM34.2369 198.177C37.5958 192.264 39.6024 180.066 36.6053 173.253C33.9204 167.149 26.0861 166.488 23.4583 172.656C19.7061 181.463 25.0785 195.222 30.7778 201.327L34.2369 198.177ZM3.69836 229.509C5.2737 227.061 6.88583 224.728 8.60843 219.234C10.0957 214.49 10.7324 210.989 10.4475 206.638C10.2118 203.035 8.91963 199.109 7.25797 196.001C5.88364 193.43 3.08717 191.148 0.0831117 191.172C-3.82057 191.204 -6.32292 194.809 -7.69092 198.135C-11.355 207.041 -1.83236 224.784 3.69836 229.509ZM10.5535 222.514C15.5553 226.595 21.0836 228.999 25.8106 231.74C31.3846 234.972 43.7931 241.833 48.8134 233.37C50.5075 230.514 51.0474 226.892 50.216 223.737C48.9328 218.865 46.8141 216.136 42.0703 214.797C37.7245 213.57 30.3131 214.934 25.8687 215.927C24.2392 216.292 22.6214 216.813 21.003 217.334C19.3758 217.858 13.3532 219.473 10.5535 222.514ZM42.9154 190.622C47.8844 185.497 55.9824 183.069 58.3804 182.708C61.7352 182.203 65.1408 182.797 68.3321 183.715C68.7156 183.825 69.0983 183.929 69.4777 184.033C72.1704 184.764 74.6988 185.45 76.2106 188.09C77.3283 190.042 77.8341 192.442 77.3835 194.724C75.6567 203.468 64.024 200.413 58.1508 198.87C52.6882 197.436 47.2352 194.218 42.9154 190.622ZM91.4911 117.729C92.6836 119.141 96.7745 122.429 98.0985 123.096C98.2389 123.167 98.3615 123.229 98.4632 123.281C100.699 124.429 103.447 125.133 105.956 125.366C113.54 126.072 120.001 120.843 124.418 114.588C125.921 112.46 127.024 108.11 125.721 105.688C124.99 104.328 123.593 103.768 122.255 103.232C122.183 103.203 122.111 103.174 122.04 103.145C114.935 100.28 105.265 106.549 97.995 111.262C96.6965 112.104 94.0361 113.696 92.919 114.378L91.4911 117.729Z" stroke="#9AA233" stroke-width="4" stroke-linecap="round" stroke-linejoin="round"/>
<path id="Vector_2" d="M-18.9774 263.189C-10.5269 249.631 -3.35523 234.682 23.6787 208.051C38.2471 193.7 58.0775 178.988 70.3296 158.182C86.2663 133.33 92.0486 118.19 100.738 90.4729" stroke="#9AA233" stroke-width="4" stroke-linecap="round" stroke-linejoin="round"/>
</g>
</g>
</g>
</g>

</svg>
