<svg width="148" height="207" viewBox="0 0 148 207" fill="none" xmlns="http://www.w3.org/2000/svg">

<g id="Waldorf Kindergarten &#38; TK in Santa Rosa | Summerfield">

<g id="Body">
<g id="Group 4">
<g id="Frame" opacity="0.3">
<path id="Vector" d="M30.4713 119.542C29.5641 120.912 19.5623 133.954 18.2133 135.639C23.2638 132.961 30.4775 131.44 36.0847 128.817C38.4534 127.709 40.7599 126.488 43.0669 125.266L43.0672 125.265C44.3262 124.599 45.5852 123.932 46.8547 123.283C54.1265 119.568 61.7311 116.561 69.0041 112.827C77.2758 108.676 86.7121 106.053 93.945 100.077C98.3669 96.4229 99.8101 86.7158 95.4884 82.3887C93.5509 80.4488 90.5557 80.2918 87.9956 80.7309C84.1157 81.397 80.2047 81.8714 76.3316 82.5788C72.6625 83.2488 68.3161 84.7172 65.1817 86.8049C57.8986 91.6575 51.4362 97.5916 44.8659 103.34C41.9458 105.881 39.0131 108.432 36.4008 111.282C34.5153 113.338 32.9689 115.713 31.4419 118.058C31.1187 118.555 30.796 119.05 30.4713 119.542Z" stroke="#9AA233" stroke-width="2" stroke-linecap="round" stroke-linejoin="round"/>
<path id="Vector_2" d="M15.8083 138.634C14.794 136.829 12.2749 132.901 11.4943 130.959C11.3209 130.529 11.1481 130.099 10.9729 129.671C8.60237 123.88 6.55407 118.318 5.14374 112.208C2.73974 101.792 2.83762 90.7309 6.9254 80.7047C8.42146 77.0354 10.3168 73.1429 12.5537 69.8668C12.9345 69.3091 13.3228 68.6755 13.7266 68.0166C14.84 66.1999 16.0706 64.1918 17.5839 63.0565C22.116 59.6562 23.7438 68.4867 23.995 71.115C24.2706 73.9965 24.159 76.8953 24.0477 79.7875C24.0197 80.5193 23.9915 81.2511 23.9696 81.9822C23.8969 84.4106 23.9235 86.8311 23.9499 89.2522C23.9837 92.308 24.0172 95.3642 23.8513 98.4374C23.5118 104.726 22.8232 111.028 22.1364 117.317C21.8973 119.507 20.0075 129.487 19.7837 131.672L15.8083 138.634Z" stroke="#9AA233" stroke-width="2" stroke-linecap="round" stroke-linejoin="round"/>
<path id="Vector_3" d="M39.2271 96.3999C37.2572 91.4156 36.1113 84.0191 35.127 79.6695C33.9706 74.5605 32.908 68.7084 34.6537 63.6005C35.7791 60.3075 37.4881 57.313 39.199 54.3151C39.843 53.1867 40.4872 52.0577 41.1007 50.9123C43.3758 46.6646 45.9718 42.7784 48.9055 38.9646C50.1512 37.3453 51.7971 36.1029 53.4343 34.867L53.4374 34.8646L53.4435 34.86C54.0314 34.4163 54.6183 33.9734 55.185 33.5141C55.4429 33.3053 55.72 33.0627 56.0107 32.8079L56.0142 32.8048C56.9655 31.9725 58.0631 31.0122 59.11 30.6811C61.9216 29.7913 65.4461 29.5961 65.3008 33.3094C65.245 34.7382 65.2219 36.1736 65.1989 37.6102L65.1988 37.6117L65.1988 37.6151C65.1608 39.9918 65.1227 42.3718 64.9353 44.7291C64.3753 51.7571 62.105 58.8094 59.4357 65.2754L59.4352 65.2763L59.4128 65.3306C59.0483 66.2141 58.6806 67.1053 58.3184 68.0142C57.6924 69.585 57.1315 71.1969 56.5697 72.8111L56.5617 72.8342C55.6724 75.391 54.7807 77.9537 53.6267 80.3697C52.2109 83.3336 50.7037 86.3633 48.4516 88.794C47.7322 89.5702 46.9153 90.2552 46.0986 90.9396C45.2378 91.6611 44.3779 92.382 43.6348 93.2082C43.0651 93.841 40.0199 95.6142 39.2271 96.3999Z" stroke="#9AA233" stroke-width="2" stroke-linecap="round" stroke-linejoin="round"/>
<path id="Vector_4" d="M39.5209 95.562L25.4021 122.749C20.0786 133 3.46351 158.183 2.19911 160.073C1.1876 161.585 0.542909 163.08 0.347461 163.639" stroke="#9AA233" stroke-width="2" stroke-linecap="round" stroke-linejoin="round"/>
</g>
</g>
</g>
</g>

</svg>
