<svg width="219" height="328" viewBox="0 0 219 328" fill="none" xmlns="http://www.w3.org/2000/svg">

<g id="Waldorf Kindergarten &#38; TK in Santa Rosa | Summerfield">

<g id="Body">
<g id="Frame" opacity="0.2">
<path id="Vector" d="M42.883 146.554C52.3277 137.717 76.1759 128.415 84.4974 132.634C88.5551 134.692 92.3515 137.744 91.3401 142.955C90.5578 146.985 86.5852 150.706 83.3294 152.788C77.6339 156.43 70.7125 158.103 64.181 158.864C56.1581 159.8 46.5159 157.356 39.4553 153.634C40.691 151.148 41.806 148.016 42.883 146.554ZM42.883 146.554C40.9597 145.837 34.0008 140.654 30.6879 136.557C29.4863 135.071 28.3468 133.661 27.3793 132.545C21.6318 125.908 14.1007 114.431 20.6166 105.451C22.5082 102.844 27.4703 97.1979 31.1484 99.0354C34.5771 100.748 37.4728 104.45 39.3267 107.718C44.6517 117.101 49.5864 131.95 42.883 146.554ZM101.319 61.7402C107.265 62.1395 124.693 56.3361 129.218 49.1219C131.366 45.6972 133.141 41.1033 133.482 37.0708C133.952 31.5067 133.949 27.7258 127.465 28.2222C120.694 28.7406 117.316 33.378 113.61 38.466C113.305 38.8853 112.997 39.308 112.685 39.7315C108.336 45.6345 101.273 58.1796 101.319 61.7402ZM69.8379 99.7652C74.1057 93.9731 78.1278 91.5786 81.3955 89.3412C84.3411 87.3248 87.4702 85.6254 90.6234 83.9631C98.8758 79.6116 108.241 80.6882 115.83 87.2979C120.029 90.9543 124.007 99.5879 117.379 103.678C114.518 105.443 110.255 105.632 106.702 105.79C106.019 105.821 105.362 105.85 104.746 105.889C94.4172 106.544 79.5737 103.718 69.8379 99.7652ZM24.3584 208.242C28.8008 200.504 41.2477 190.105 50.944 188.95C59.6312 187.915 65.6007 196.327 60.3832 203.408C52.9331 213.519 33.803 216.621 23.1049 214.25L24.3584 208.242ZM9.31134 263.638C11.0279 260.225 12.5894 256.848 17.6491 251.239C22.018 246.396 25.5505 243.343 30.6568 240.764C34.8848 238.629 40.1832 237.471 44.8034 237.277C48.6238 237.117 53.0678 238.755 55.0428 242.166C57.6089 246.598 55.2031 251.829 52.3576 255.592C44.7362 265.67 18.3374 266.738 9.31134 263.638ZM12.6461 251.228C4.70012 248.296 -1.7019 243.652 -7.95038 240.138C-15.3184 235.994 -31.3434 226.546 -25.1271 215.231C-23.0292 211.413 -19.2968 208.388 -15.1771 207.224C-8.81639 205.427 -4.32017 206.001 0.355826 210.469C4.63917 214.562 8.0387 223.846 9.8791 229.531C10.5538 231.615 11.0435 233.79 11.5333 235.967C12.0257 238.155 14.2159 246.037 12.6461 251.228ZM27.1105 193.398C29.5892 184.366 26.9348 173.597 25.7437 170.646C24.0777 166.519 21.1367 163.066 17.9712 160.072C17.5909 159.713 17.2184 159.349 16.8488 158.99C14.2276 156.434 11.7659 154.035 7.77506 154.086C4.82435 154.124 1.77552 155.153 -0.503187 157.183C-9.23285 164.964 1.97453 176.072 7.63279 181.681C12.8958 186.897 20.1672 190.914 27.1105 193.398ZM77.0972 89.9132C74.7074 89.5066 68.2645 87.0759 66.6276 86.0247C66.4538 85.9133 66.3024 85.8159 66.1756 85.7358C63.3874 83.9747 60.7605 81.3381 58.8242 78.6593C52.9708 70.5598 54.5729 59.7725 58.6966 50.6114C60.099 47.4948 64.2791 43.3479 67.8846 43.2055C69.9092 43.1257 71.4725 44.3302 72.9706 45.4845C73.0516 45.5469 73.1322 45.6089 73.2124 45.6705C81.1859 51.7886 80.5487 66.8959 80.0692 78.2524C79.9838 80.2809 79.9577 84.3489 79.9324 86.0655L77.0972 89.9132Z" stroke="#9AA233" stroke-width="3" stroke-linecap="round" stroke-linejoin="round"/>
<path id="Vector_2" d="M-13.6304 311.713C-3.94373 293.126 8.16809 275.056 20.2387 226.755C26.7438 200.725 30.1487 168.509 45.4924 140.793C62.9512 106.217 76.2049 89.5897 101.732 61.2928" stroke="#9AA233" stroke-width="3" stroke-linecap="round" stroke-linejoin="round"/>
</g>
</g>
</g>

</svg>
