<svg width="255" height="284" viewBox="0 0 255 284" fill="none" xmlns="http://www.w3.org/2000/svg">

<g id="Waldorf Kindergarten &#38; TK in Santa Rosa | Summerfield">

<g id="Body">
<g id="Section">

<g id="Group 5">
<g id="Frame" opacity="0.2">
<path id="Vector" d="M180.879 199.58C178.241 187.734 182.093 164.027 189.47 159.314C193.067 157.016 197.344 155.403 201.072 158.704C203.957 161.258 205.07 166.243 205.2 169.866C205.428 176.205 203.48 182.596 200.981 188.238C197.913 195.167 191.341 201.794 184.966 205.725C183.547 203.541 181.547 201.147 180.879 199.58ZM180.879 199.58C179.383 200.793 171.876 203.945 166.986 204.669C165.212 204.932 163.53 205.18 162.167 205.43C154.063 206.91 141.198 207.525 137.047 197.978C135.842 195.207 133.645 188.505 136.884 186.408C139.902 184.454 144.274 183.879 147.799 183.939C157.92 184.109 172.273 187.2 180.879 199.58ZM140.198 111.921C143.356 107.306 146.975 90.4556 143.302 83.3592C141.559 79.9907 138.693 76.3659 135.596 74.168C131.324 71.1358 128.267 69.3352 125.577 74.812C122.768 80.531 124.905 85.4714 127.25 90.8922C127.443 91.3391 127.638 91.7891 127.831 92.2432C130.528 98.5724 137.299 110.26 140.198 111.921ZM155.919 155.49C153.273 149.28 153.255 144.888 153.005 141.181C152.78 137.839 152.898 134.5 153.058 131.159C153.476 122.416 158.811 115.361 167.77 112.379C172.727 110.729 181.601 111.63 181.746 118.936C181.808 122.09 179.929 125.625 178.363 128.572C178.062 129.138 177.772 129.683 177.511 130.2C173.115 138.859 163.755 149.507 155.919 155.49ZM221.899 243.96C217.764 236.681 215.294 221.664 218.983 213.278C222.288 205.764 231.933 204.95 235.167 212.543C239.787 223.384 233.173 240.322 226.157 247.837L221.899 243.96ZM259.492 282.53C257.553 279.516 255.569 276.644 253.448 269.881C251.617 264.042 250.833 259.731 251.184 254.375C251.474 249.94 253.065 245.107 255.11 241.28C256.802 238.117 260.245 235.306 263.943 235.336C268.748 235.376 271.829 239.814 273.513 243.907C278.023 254.871 266.301 276.714 259.492 282.53ZM251.054 273.919C244.896 278.942 238.091 281.902 232.272 285.276C225.41 289.255 210.135 297.701 203.955 287.283C201.869 283.767 201.205 279.309 202.228 275.425C203.808 269.427 206.416 266.068 212.256 264.419C217.606 262.909 226.729 264.588 232.2 265.811C234.206 266.259 236.198 266.9 238.19 267.542C240.193 268.188 247.607 270.175 251.054 273.919ZM211.215 234.659C205.099 228.35 195.13 225.361 192.178 224.917C188.048 224.295 183.856 225.026 179.927 226.157C179.455 226.293 178.984 226.42 178.517 226.547C175.202 227.447 172.089 228.293 170.228 231.543C168.853 233.945 168.23 236.899 168.785 239.709C170.91 250.473 185.23 246.712 192.46 244.813C199.185 243.047 205.898 239.086 211.215 234.659ZM151.418 144.927C149.95 146.664 144.914 150.712 143.284 151.534C143.111 151.621 142.96 151.697 142.835 151.761C140.083 153.175 136.7 154.041 133.612 154.328C124.276 155.197 116.322 148.76 110.885 141.06C109.035 138.441 107.676 133.085 109.28 130.104C110.181 128.43 111.9 127.741 113.547 127.08C113.636 127.045 113.724 127.009 113.812 126.974C122.558 123.447 134.463 131.164 143.411 136.966C145.01 138.002 148.285 139.962 149.66 140.801L151.418 144.927Z" stroke="#9AA233" stroke-width="4" stroke-linecap="round" stroke-linejoin="round"/>
<path id="Vector_2" d="M287.407 323.99C277.004 307.3 268.176 288.898 234.897 256.115C216.963 238.448 192.551 220.338 177.469 194.724C157.85 164.131 150.732 145.494 140.035 111.374" stroke="#9AA233" stroke-width="4" stroke-linecap="round" stroke-linejoin="round"/>
</g>
</g>
</g>
</g>
</g>

</svg>
