<svg width="28" height="28" viewBox="0 0 28 28" fill="none" xmlns="http://www.w3.org/2000/svg">
<g>
<path fill-rule="evenodd" clip-rule="evenodd" d="M21.2338 20.09C20.9643 19.9096 20.6601 19.7874 20.3407 19.7311C20.0213 19.6749 19.6937 19.6859 19.3788 19.7633C18.62 19.9407 17.895 20.2402 17.2321 20.65C16.0375 21.3449 14.724 21.8117 13.3588 22.0266H12.9155H13.0205L13.6855 21.56C13.8507 21.4388 13.9884 21.284 14.0893 21.1056C14.1903 20.9273 14.2522 20.7296 14.2709 20.5255C14.2897 20.3214 14.2648 20.1157 14.1981 19.922C14.1314 19.7282 14.0242 19.5509 13.8838 19.4016C13.228 18.7821 12.4248 18.3404 11.5505 18.1183L9.69546 17.7683C8.92318 17.6547 8.14101 17.6234 7.36212 17.675C6.83848 17.7383 6.32496 17.8677 5.83379 18.06C5.57723 18.1649 5.33114 18.2938 5.09879 18.445C4.37201 19.0452 3.59085 19.5764 2.76546 20.0316C2.54402 20.1082 2.31143 20.1477 2.07712 20.1483C1.64546 20.1483 1.20212 20.1483 0.828789 20.09C0.781254 20.0851 0.733234 20.0898 0.687502 20.1036C0.641771 20.1175 0.599235 20.1402 0.562353 20.1706C0.52547 20.201 0.494972 20.2384 0.472619 20.2806C0.450266 20.3228 0.436502 20.3691 0.432123 20.4166C0.427318 20.4636 0.432043 20.511 0.446014 20.556C0.459984 20.601 0.482913 20.6428 0.513423 20.6787C0.543933 20.7147 0.581395 20.7441 0.623559 20.7652C0.665724 20.7864 0.711721 20.7987 0.758789 20.8016C1.14379 20.86 1.61046 20.9416 2.05379 20.965C2.38659 20.9932 2.72176 20.9656 3.04546 20.8833C3.30551 20.8014 3.55901 20.7 3.80379 20.58C4.57694 20.0575 5.39258 19.6009 6.24212 19.215C6.7616 19.0674 7.30066 19.0005 7.84046 19.0166C8.41425 19.0233 8.98706 19.0661 9.55545 19.145L11.2588 19.4483C11.8043 19.5629 12.3255 19.7722 12.7988 20.0666C12.9388 20.16 13.0788 20.2416 13.1021 20.3933C13.0922 20.5477 13.0257 20.6931 12.9155 20.8016L12.5888 21.07C12.1898 21.2717 11.7601 21.4058 11.3171 21.4666C10.5764 21.534 9.8325 21.5613 9.08879 21.5483C8.97939 21.5483 8.87429 21.5909 8.79585 21.6672C8.71742 21.7434 8.67183 21.8473 8.66879 21.9566C8.66879 22.0649 8.71181 22.1688 8.78839 22.2454C8.86496 22.322 8.96883 22.365 9.07712 22.365H9.10046C10.4883 22.933 12.0011 23.1262 13.4871 22.925C14.9807 22.7549 16.4313 22.3162 17.7688 21.63C18.3374 21.3229 18.952 21.1101 19.5888 21C19.889 20.9332 20.2035 20.9877 20.4638 21.1516C20.5214 21.2081 20.561 21.2803 20.5776 21.3592C20.5942 21.4381 20.5871 21.5201 20.5571 21.595C20.51 21.8828 20.3939 22.155 20.2188 22.3883C19.8538 22.897 19.4039 23.3391 18.8888 23.695C18.0494 24.2765 17.1681 24.7951 16.2521 25.2466C15.3815 25.7135 14.472 26.1039 13.5338 26.4133C12.9338 26.6086 12.3094 26.7186 11.6788 26.74C11.1691 26.7479 10.6602 26.697 10.1621 26.5883C8.90212 26.3433 7.67712 25.8766 6.42879 25.6083C5.46148 25.4313 4.48299 25.3222 3.50046 25.2816C2.51765 25.2164 1.5316 25.2164 0.54879 25.2816C0.495137 25.2846 0.4426 25.2982 0.39419 25.3215C0.34578 25.3448 0.302449 25.3775 0.266682 25.4176C0.230915 25.4577 0.203415 25.5044 0.185758 25.5552C0.168102 25.6059 0.160636 25.6597 0.16379 25.7133C0.172744 25.8227 0.224147 25.9242 0.307001 25.9962C0.389854 26.0681 0.497578 26.1048 0.607123 26.0983C1.54926 26.0639 2.49265 26.095 3.43046 26.1916C4.36884 26.264 5.30073 26.4044 6.21879 26.6116C7.46712 26.9266 8.68046 27.4516 9.92879 27.7783C10.4997 27.9085 11.0818 27.9828 11.6671 28C12.4214 28.0066 13.1725 27.9004 13.8955 27.685C14.9262 27.3688 15.9227 26.9506 16.8705 26.4366C17.8538 25.9598 18.7979 25.4059 19.6938 24.78C20.3259 24.3262 20.8779 23.7703 21.3271 23.135C21.6795 22.6314 21.8744 22.0345 21.8871 21.42C21.8927 21.1622 21.8363 20.9068 21.7226 20.6753C21.6089 20.4439 21.4412 20.2431 21.2338 20.09Z" fill="#2B4236"/>
<path fill-rule="evenodd" clip-rule="evenodd" d="M27.7789 5.39021C27.708 4.8828 27.5909 4.38294 27.4289 3.89687C27.3038 3.52284 27.1396 3.16307 26.9389 2.82354C26.7283 2.48678 26.4819 2.17384 26.2039 1.89021C25.9795 1.65814 25.7377 1.44362 25.4806 1.24854C25.2301 1.04978 24.9649 0.870373 24.6872 0.711875C24.0031 0.304227 23.2326 0.0633008 22.4381 0.00857838C21.6437 -0.046144 20.8474 0.0868736 20.1139 0.396875C18.3756 1.21051 16.844 2.40708 15.6339 3.89687C15.1075 3.19486 14.5092 2.5497 13.8489 1.97187C13.2222 1.43424 12.508 1.00807 11.7372 0.711875C10.8345 0.360392 9.86099 0.228916 8.89733 0.328324C7.93368 0.427733 7.00755 0.755168 6.19555 1.28354C5.41888 1.82123 4.76119 2.51304 4.26342 3.31588C3.76565 4.11873 3.43846 5.01545 3.30222 5.95021C3.09113 7.60965 3.41394 9.29321 4.22389 10.7569C5.40058 12.8453 6.94613 14.7031 8.78555 16.2402C8.81817 16.2737 8.85717 16.3004 8.90025 16.3185C8.94333 16.3367 8.98962 16.3461 9.03639 16.3461C9.08315 16.3461 9.12944 16.3367 9.17252 16.3185C9.21561 16.3004 9.25461 16.2737 9.28722 16.2402C9.32226 16.2085 9.35027 16.1698 9.36943 16.1266C9.3886 16.0834 9.3985 16.0366 9.3985 15.9894C9.3985 15.9421 9.3886 15.8954 9.36943 15.8522C9.35027 15.809 9.32226 15.7703 9.28722 15.7385C7.55803 14.2203 6.12252 12.3973 5.05222 10.3602C4.37514 9.06288 4.1299 7.58327 4.35222 6.13687C4.49516 5.36612 4.79199 4.63209 5.22496 3.97862C5.65794 3.32515 6.21818 2.76565 6.87222 2.33354C7.52545 1.93102 8.26536 1.69032 9.03039 1.63147C9.79542 1.57262 10.5634 1.69732 11.2706 1.99521C11.8909 2.23959 12.4635 2.59105 12.9622 3.03354C13.7433 3.74376 14.4437 4.53801 15.0506 5.40187C15.1149 5.48431 15.1972 5.55098 15.2912 5.59684C15.3852 5.6427 15.4885 5.66654 15.5931 5.66654C15.6976 5.66654 15.8009 5.6427 15.8949 5.59684C15.9889 5.55098 16.0712 5.48431 16.1356 5.40187C17.3101 3.80934 18.8454 2.51792 20.6156 1.63354C21.162 1.38978 21.7581 1.27757 22.3558 1.30594C22.9535 1.3343 23.5363 1.50245 24.0572 1.79687L24.7339 2.22854C24.9426 2.38303 25.1413 2.55059 25.3289 2.73021C25.5494 2.96317 25.7414 3.22168 25.9006 3.50021C26.0666 3.75641 26.2036 4.03032 26.3089 4.31687C26.4574 4.72959 26.5667 5.15535 26.6356 5.58854C26.7053 6.03237 26.7404 6.48094 26.7406 6.93021C26.7125 8.51465 26.2483 10.0607 25.3989 11.3985C24.0364 13.4616 22.3953 15.3265 20.5222 16.9402C20.4467 17.0185 20.4044 17.1231 20.4044 17.2319C20.4044 17.3407 20.4467 17.4452 20.5222 17.5235C20.5985 17.5984 20.7012 17.6403 20.8081 17.6403C20.9149 17.6403 21.0176 17.5984 21.0939 17.5235C23.0673 15.8959 24.8065 14.0036 26.2622 11.9002C27.2556 10.4185 27.8171 8.68954 27.8839 6.90687C27.8785 6.3997 27.8434 5.89328 27.7789 5.39021Z" fill="#2B4236"/>
<path fill-rule="evenodd" clip-rule="evenodd" d="M12.1462 14.1288C11.918 14.3878 11.7112 14.6648 11.5278 14.9572C11.4843 15.0347 11.4708 15.1255 11.49 15.2124C11.5091 15.2992 11.5596 15.3759 11.6318 15.4279C11.704 15.4798 11.7927 15.5034 11.8812 15.494C11.9696 15.4847 12.0515 15.4431 12.1112 15.3772C12.3075 15.1536 12.5221 14.9468 12.7528 14.7588C12.9837 14.5854 13.2297 14.4331 13.4878 14.3038C13.6978 14.1988 13.9428 14.0938 14.1878 14.0005C14.3947 13.9262 14.6104 13.8791 14.8295 13.8605C15.3351 13.7848 15.8515 13.8329 16.3345 14.0005C16.653 14.1008 16.9555 14.2462 17.2328 14.4322C17.9715 14.9809 18.512 15.7547 18.7728 16.6372C18.7859 16.6893 18.809 16.7383 18.841 16.7814C18.8729 16.8246 18.9131 16.861 18.9591 16.8886C19.0052 16.9162 19.0562 16.9345 19.1093 16.9424C19.1624 16.9503 19.2166 16.9477 19.2687 16.9347C19.3208 16.9217 19.3698 16.8985 19.4129 16.8665C19.4561 16.8346 19.4925 16.7944 19.5201 16.7484C19.5477 16.7023 19.566 16.6513 19.5739 16.5982C19.5818 16.5451 19.5792 16.4909 19.5662 16.4388C19.4003 15.3002 18.8533 14.2515 18.0145 13.4638C17.746 13.2168 17.4385 13.0157 17.1045 12.8688C17.583 12.6131 17.978 12.2254 18.2427 11.7519C18.5074 11.2783 18.6306 10.7387 18.5978 10.1972C18.6186 10.1287 18.6186 10.0556 18.5978 9.98718C18.6398 9.94049 18.6685 9.88335 18.6808 9.82177C18.6931 9.76019 18.6886 9.69643 18.6678 9.63718C18.6146 9.23612 18.5087 8.84385 18.3528 8.47051C18.2385 8.19196 18.0766 7.93537 17.8745 7.71218C17.5739 7.39791 17.2112 7.14956 16.8096 6.98286C16.4079 6.81617 15.976 6.73477 15.5412 6.74385C15.0781 6.74042 14.6196 6.83657 14.1969 7.02578C13.7742 7.21499 13.3971 7.49284 13.0912 7.84051C12.8376 8.14703 12.6544 8.50546 12.5545 8.89051C12.3732 9.40683 12.2978 9.9544 12.3328 10.5005C12.377 10.9777 12.5331 11.4377 12.7885 11.8431C13.044 12.2486 13.3915 12.588 13.8028 12.8338C13.4953 12.9945 13.2025 13.1819 12.9278 13.3938C12.6423 13.6109 12.3803 13.8572 12.1462 14.1288ZM13.7328 9.46218C13.7805 9.18363 13.8923 8.92001 14.0595 8.69218C14.2323 8.46766 14.4504 8.28202 14.6996 8.14734C14.9489 8.01267 15.2237 7.93198 15.5062 7.91051C15.8051 7.86549 16.1102 7.88377 16.4016 7.96416C16.693 8.04455 16.9643 8.18526 17.1978 8.37718C17.3885 8.55149 17.5431 8.76158 17.6528 8.99551C17.7701 9.25778 17.86 9.53145 17.9212 9.81218C17.9161 9.83524 17.9161 9.85912 17.9212 9.88218C17.8669 9.91751 17.8224 9.96597 17.7918 10.0231C17.7612 10.0802 17.7455 10.1441 17.7462 10.2088C17.7219 10.7453 17.4885 11.2508 17.096 11.6172C16.7034 11.9836 16.183 12.1816 15.6462 12.1688C15.4003 12.1862 15.1534 12.1541 14.9201 12.0744C14.6868 11.9946 14.4719 11.8689 14.288 11.7047C14.1042 11.5404 13.9552 11.341 13.8498 11.1181C13.7444 10.8952 13.6848 10.6535 13.6745 10.4072C13.6491 10.0755 13.6687 9.74192 13.7328 9.41551V9.46218Z" fill="#2B4236"/>
</g>

</svg>
