<svg width="28" height="28" viewBox="0 0 28 28" fill="none" xmlns="http://www.w3.org/2000/svg">
<g>
<path d="M5.75167 4.66689C5.85531 4.68374 5.96139 4.65882 6.04668 4.59758C6.13197 4.53635 6.18951 4.4438 6.20667 4.34022C6.25674 4.05195 6.33892 3.7702 6.45167 3.50022C6.55916 3.2523 6.68798 3.01418 6.83667 2.78855C7.02487 2.50458 7.25724 2.25251 7.52501 2.04189C7.79357 1.83414 8.08763 1.66162 8.40001 1.52855C8.86584 1.32494 9.3751 1.24073 9.88167 1.28355C10.6586 1.3402 11.3996 1.63333 12.005 2.12355C12.5602 2.50182 12.9907 3.03629 13.242 3.65933C13.4933 4.28236 13.5541 4.96595 13.4167 5.62355C13.4001 5.66636 13.3925 5.71208 13.3942 5.75793C13.3959 5.80379 13.4069 5.84882 13.4265 5.89029C13.4462 5.93176 13.474 5.9688 13.5084 5.99916C13.5429 6.02952 13.5831 6.05256 13.6267 6.06688C13.6703 6.08151 13.7165 6.08737 13.7624 6.08414C13.8083 6.0809 13.8532 6.06864 13.8943 6.04805C13.9355 6.02746 13.9722 5.99894 14.0024 5.96414C14.0325 5.92933 14.0555 5.88892 14.07 5.84522C14.3647 5.03225 14.4042 4.1487 14.1832 3.31268C13.9622 2.47666 13.4913 1.72803 12.8333 1.16689C12.0344 0.460068 11.0173 0.0483185 9.95167 0.000219494C9.22826 -0.0233862 8.51157 0.145721 7.87501 0.490219C7.48394 0.706373 7.12305 0.973113 6.80167 1.28355C6.48259 1.59155 6.21127 1.94545 5.99667 2.33355C5.85133 2.61838 5.73034 2.91499 5.63501 3.22022C5.53307 3.52726 5.46271 3.8439 5.42501 4.16522C5.40731 4.21981 5.40205 4.27766 5.40959 4.33455C5.41714 4.39144 5.43731 4.44592 5.46862 4.49401C5.49993 4.5421 5.5416 4.58258 5.59058 4.61249C5.63955 4.6424 5.69459 4.66099 5.75167 4.66689Z" fill="#9F7325"/>
<path d="M19.3909 5.83347C19.7418 5.27222 20.0611 4.69188 20.3475 4.09514C20.9075 2.92847 21.2925 1.85514 21.5142 1.35347C21.5142 1.24847 21.6309 1.1668 21.6192 1.1318C22.3832 1.53311 23.0486 2.09893 23.5675 2.78847C24.2699 3.9227 24.7306 5.18968 24.9209 6.51014C24.9821 6.89621 25.0172 7.28599 25.0259 7.6768C25.1075 8.22514 26.1925 8.22514 26.2625 7.59514C26.2813 7.17773 26.2578 6.7595 26.1925 6.3468C26.0501 5.60244 25.8191 4.87783 25.5042 4.18847C25.1828 3.51189 24.7918 2.87065 24.3375 2.27514C23.8141 1.63866 23.1672 1.11479 22.4359 0.735136C22.1609 0.576628 21.8719 0.443843 21.5725 0.33847C21.4963 0.310192 21.4139 0.302853 21.3339 0.317215C21.2539 0.331578 21.1792 0.367117 21.1175 0.420136C21.0009 0.501803 19.8342 2.33347 19.1925 3.50014C18.8659 4.0718 18.5625 4.6668 18.2825 5.2618C17.8159 6.23014 17.6175 6.7668 17.4075 7.23347C17.1975 7.70014 17.8975 7.80514 18.3292 7.5368C18.6675 7.07014 19.0059 6.49847 19.3909 5.83347Z" fill="#9F7325"/>
<path d="M24.5934 11.8067C24.3076 12.9391 23.7691 13.9921 23.0184 14.8867C22.54 15.4234 21.7584 16.2984 21.3384 16.7067C21.0761 16.1464 20.7759 15.6046 20.44 15.085C20.1206 14.6326 19.7738 14.2002 19.4017 13.79C19.0984 13.44 18.935 13.265 18.725 13.0434C18.1417 12.7284 17.6517 13.0434 17.815 13.405C18.0055 13.7777 18.2158 14.1399 18.445 14.49C18.7265 14.9657 19.0342 15.4253 19.3667 15.8667C19.9617 16.6017 20.65 17.22 21.0584 17.6867C21.0851 17.7244 21.119 17.7564 21.1581 17.7809C21.1972 17.8054 21.2408 17.822 21.2864 17.8295C21.3319 17.8371 21.3785 17.8356 21.4235 17.8251C21.4684 17.8146 21.5109 17.7953 21.5484 17.7684C21.5484 17.7684 22.5634 16.7067 23.73 15.5634C24.9036 14.3626 25.7127 12.8537 26.0634 11.2117C26.1913 10.6763 26.2617 10.1287 26.2734 9.57838C26.1917 8.93671 25.1067 9.15838 25.0484 9.97504C24.968 10.6011 24.8153 11.2158 24.5934 11.8067Z" fill="#9F7325"/>
<path d="M27.3111 8.2599C27.1595 8.2599 22.3295 7.89823 20.7195 7.81656C19.8795 7.81656 16.5895 7.72323 16.3095 7.7349C14.6295 7.7349 12.8095 7.82823 12.2378 7.85156C11.6661 7.8749 11.5611 8.72656 12.0861 8.70323C12.9728 8.7849 14.6061 8.91323 14.9678 8.9249H16.3328C16.8811 8.9249 17.4995 9.01823 18.0478 9.04156C18.1411 9.04156 24.5345 9.15823 27.3811 9.04156C27.4381 9.05144 27.4966 9.04875 27.5524 9.03366C27.6082 9.01858 27.6601 8.99147 27.7043 8.95423C27.7486 8.917 27.7841 8.87054 27.8085 8.81811C27.8329 8.76569 27.8456 8.70856 27.8456 8.65073C27.8456 8.5929 27.8329 8.53577 27.8085 8.48334C27.7841 8.43092 27.7486 8.38446 27.7043 8.34723C27.6601 8.30999 27.6082 8.28288 27.5524 8.2678C27.4966 8.25271 27.4381 8.25001 27.3811 8.2599H27.3111Z" fill="#9F7325"/>
<path d="M20.9183 10.1267C20.9528 10.3524 20.9203 10.5832 20.8249 10.7905C20.7296 10.9979 20.5754 11.1728 20.3816 11.2934C19.8151 11.5537 19.2139 11.7306 18.5966 11.8184C17.2176 12.0482 15.8273 12.204 14.4317 12.2851H13.9766C13.8989 12.2929 13.8236 12.3167 13.7553 12.3548C13.6871 12.3929 13.6274 12.4446 13.58 12.5067C13.4969 12.7227 13.4534 12.952 13.4517 13.1834V16.9051C13.6027 17.8103 13.8052 18.7062 14.0583 19.5884C14.7117 22.0267 15.6333 24.8617 15.7733 25.5734C15.8667 26.0867 15.7733 26.5067 15.4 26.6234C15.0267 26.7401 14.6183 26.5651 14.1517 26.1217C13.5911 25.3372 13.0993 24.5058 12.6817 23.6367C11.6667 21.8051 10.5 19.6001 10.5 19.6001C10.4376 19.498 10.349 19.4147 10.2432 19.3588C10.1375 19.303 10.0187 19.2766 9.89932 19.2826C9.77991 19.2886 9.66432 19.3266 9.56471 19.3928C9.4651 19.4589 9.38517 19.5507 9.33332 19.6584C8.57237 21.4876 7.63459 23.2381 6.53332 24.8851C6.14091 25.5003 5.63866 26.0382 5.05165 26.4717C4.94174 26.5765 4.80292 26.6458 4.65316 26.6708C4.5034 26.6957 4.34959 26.6752 4.21165 26.6117C4.06428 26.535 3.9407 26.4195 3.85433 26.2776C3.76795 26.1357 3.72207 25.9728 3.72165 25.8067C3.73615 25.3529 3.84753 24.9073 4.04832 24.5001C4.50332 23.4384 5.41332 21.6651 5.96165 20.0434C6.21419 19.3403 6.37115 18.6066 6.42832 17.8617V16.0301C6.42832 14.6651 6.28832 13.3117 6.28832 13.3117C6.28419 13.2124 6.25255 13.1162 6.19693 13.0338C6.14131 12.9514 6.06389 12.886 5.97332 12.8451C5.97332 12.8451 4.38665 12.0517 3.06832 11.1884C2.48778 10.8876 1.98161 10.4611 1.58665 9.94006C1.43828 9.64746 1.35328 9.32685 1.3372 8.99918C1.32111 8.6715 1.37431 8.34412 1.49332 8.03839C1.67038 7.7639 1.9031 7.52964 2.17642 7.35078C2.44974 7.17192 2.75757 7.05243 3.07998 7.00006C4.23489 6.79741 5.40958 6.73084 6.57998 6.80173C7.76193 6.80522 8.93842 6.96209 10.08 7.26839C10.3717 7.37339 10.4883 7.80506 10.4883 8.21339C10.5077 8.4059 10.4759 8.60012 10.3959 8.77634C10.316 8.95255 10.1909 9.10449 10.0333 9.21673C9.56595 9.40998 9.06855 9.52052 8.56332 9.54339C7.64165 9.62506 6.62665 9.62506 6.06665 9.62506C5.96145 9.62506 5.86055 9.66685 5.78616 9.74124C5.71178 9.81563 5.66998 9.91652 5.66998 10.0217C5.67292 10.126 5.71566 10.2252 5.78942 10.299C5.86318 10.3727 5.96238 10.4155 6.06665 10.4184C7.06728 10.4415 8.06842 10.4064 9.06498 10.3134C9.54103 10.3046 10.0085 10.1848 10.43 9.96339C12.4016 8.33006 11.2467 6.56839 10.2317 6.27673C9.05534 5.98892 7.84931 5.84012 6.63832 5.83339C5.37201 5.73797 4.09879 5.79673 2.84665 6.00839C2.37911 6.09096 1.93448 6.272 1.54225 6.53952C1.15002 6.80704 0.819173 7.15491 0.571651 7.56006C0.37575 7.99257 0.274414 8.46191 0.274414 8.93673C0.274414 9.41154 0.37575 9.88088 0.571651 10.3134C0.906049 10.8973 1.3788 11.3901 1.94832 11.7484C2.96531 12.462 4.02507 13.1127 5.12165 13.6967C5.12165 14.1634 5.19165 15.0967 5.21498 16.0301V17.7917C5.12297 18.6368 4.90266 19.463 4.56165 20.2417C4.00165 21.6301 3.25498 23.0534 2.85832 23.9517C2.50061 24.6738 2.36655 25.4863 2.47332 26.2851C2.53619 26.5959 2.66714 26.8889 2.85676 27.1431C3.04638 27.3972 3.28996 27.6062 3.56998 27.7551C4.66665 28.3501 5.83332 27.7901 6.99998 26.4951C8.20099 24.9456 9.20428 23.2526 9.98665 21.4551C10.5117 22.4467 11.2583 23.8584 11.9117 25.0134C12.2929 25.766 12.7503 26.4775 13.2767 27.1367C13.5917 27.4892 13.9988 27.7468 14.4522 27.8808C14.9055 28.0148 15.3873 28.0197 15.8433 27.8951C16.3154 27.6975 16.6966 27.3308 16.9125 26.8668C17.1283 26.4029 17.163 25.875 17.01 25.3867C16.8583 24.6634 15.8433 21.7934 15.1783 19.3434C14.925 18.503 14.7147 17.6502 14.5483 16.7884V13.2884C15.715 13.1834 19.53 12.8801 20.895 12.0517C21.225 11.8369 21.4884 11.534 21.6554 11.1774C21.8224 10.8207 21.8863 10.4245 21.84 10.0334C21.7 8.92506 20.7083 8.86673 20.9183 10.1267Z" fill="#9F7325"/>
</g>

</svg>
