<svg width="64" height="64" viewBox="0 0 64 64" fill="none" xmlns="http://www.w3.org/2000/svg">

<g id="Waldorf Kindergarten &#38; TK in Santa Rosa | Summerfield">

<g id="Body">
<g id="Section">

<g id="Container">
<g id="Container:margin">
<g id="Container_2">
<g id="Container_3">
<g id="Container_4">
<g id="Text:margin">
<g id="Text">

<g id="Text_2">

<g id="School-Test-Art--Streamline-Freehand">
<g id="Group">
<path id="Vector" fill-rule="evenodd" clip-rule="evenodd" d="M15.9999 35.8133C16.5931 36.0845 17.2416 36.2123 17.8933 36.1867C18.6102 36.1102 19.3224 35.9944 20.0266 35.84C20.9866 35.6267 21.9466 35.44 22.8533 35.1467C23.5105 34.9445 24.1521 34.6949 24.7733 34.4C28.3924 32.622 31.5505 30.0298 33.9999 26.8267C36.444 23.6278 37.9242 19.7978 38.2666 15.7867C38.2892 15.5643 38.2236 15.342 38.084 15.1674C37.9444 14.9929 37.7418 14.8801 37.5199 14.8533C37.2976 14.8308 37.0752 14.8963 36.9007 15.036C36.7262 15.1756 36.6134 15.3781 36.5866 15.6C35.995 19.2006 34.406 22.5634 31.9999 25.3067C29.6789 28.0942 26.7631 30.3266 23.4666 31.84C22.9679 32.0919 22.4508 32.3058 21.9199 32.48C21.0933 32.7467 20.2133 32.96 19.2533 33.2C18.7733 33.2 18.2666 33.4933 17.7599 33.6C17.4741 33.6936 17.1658 33.6936 16.8799 33.6L15.9999 31.3867L11.8399 24.7733H12.4799L20.8533 23.7333C21.3866 23.7333 22.5866 23.7333 23.3599 23.4667C23.7724 23.3715 24.1564 23.1796 24.4799 22.9067C25.3871 22.065 26.1287 21.0611 26.6666 19.9467C27.3599 18.56 27.8399 16.96 28.3733 15.68L30.2133 11.2267C30.6243 11.7531 31.0793 12.2438 31.5733 12.6933C31.8848 12.9482 32.2146 13.18 32.5599 13.3867C32.9051 13.5766 33.2613 13.7458 33.6266 13.8933C34.4533 14.2667 35.3066 14.5067 36.2933 14.8267C36.3935 14.8905 36.5063 14.932 36.624 14.9483C36.7417 14.9647 36.8615 14.9554 36.9753 14.9212C37.0891 14.8871 37.1942 14.8287 37.2835 14.7503C37.3727 14.6718 37.444 14.575 37.4924 14.4665C37.5408 14.358 37.5653 14.2403 37.5642 14.1215C37.563 14.0027 37.5363 13.8855 37.4857 13.778C37.4352 13.6704 37.3621 13.575 37.2713 13.4983C37.1806 13.4216 37.0744 13.3653 36.9599 13.3333C36.2399 12.72 35.5999 12.1067 34.8799 11.5467C34.5815 11.3154 34.2699 11.1017 33.9466 10.9067C33.6385 10.6929 33.3076 10.514 32.9599 10.3733C32.2399 10.0267 31.5466 9.81333 30.7999 9.49333C30.9866 9.09333 31.1466 8.66666 31.3066 8.26666C31.9999 6.63999 32.7199 5.03999 33.4666 3.43999C33.5167 3.34216 33.5469 3.2353 33.5552 3.12568C33.5635 3.01606 33.5499 2.90588 33.5152 2.80159C33.4804 2.6973 33.4252 2.60099 33.3527 2.51829C33.2803 2.4356 33.1921 2.36818 33.0933 2.31999C33.0933 2.31999 28.9599 1.97333 28.3199 1.97333C26.6666 2.02666 24.9866 2.37333 23.4666 2.50666L19.3599 2.85333L16.6933 3.27999L14.3199 3.81333C13.3364 4.02071 12.4199 4.46978 11.6533 5.11999C10.7898 6.0628 10.0627 7.12199 9.49328 8.26666L8.55995 9.89333L7.62661 11.68L5.59995 15.76C5.01328 16.96 4.42661 18.1867 3.89328 19.44C3.35995 20.6933 3.22661 21.1467 2.95995 22.1067C2.90108 22.2941 2.91845 22.4972 3.0083 22.6719C3.09815 22.8466 3.25324 22.9789 3.43995 23.04C3.5326 23.0729 3.63102 23.0866 3.72914 23.08C3.82726 23.0734 3.92299 23.0469 4.01044 23.0019C4.09789 22.9569 4.1752 22.8945 4.23761 22.8185C4.30001 22.7425 4.34618 22.6545 4.37328 22.56C4.6362 21.7383 4.95701 20.9363 5.33328 20.16C5.94661 18.9867 6.66661 17.8667 7.33328 16.7467L9.70661 12.9333L10.7733 11.2533L11.7333 9.70666C12.3199 8.82666 12.6933 8.10666 13.1733 7.51999C13.6364 7.01608 14.2403 6.66303 14.9066 6.50666L17.0666 5.97333L19.7333 5.33333L23.7599 4.66666C25.2266 4.42666 26.8533 3.97333 28.4533 3.81333C29.3956 3.6823 30.3541 3.72751 31.2799 3.94666C30.6666 5.09333 30.0533 6.21333 29.4666 7.38666C28.2666 9.75999 27.0933 12.16 25.9466 14.5333C25.3333 15.84 24.7999 17.3333 23.9999 18.6667C22.2399 22 21.5199 20.6133 20.2399 20.8533L11.9466 22.48C10.3067 22.9675 8.64213 23.368 6.95995 23.68C6.08041 23.8383 5.1863 23.9009 4.29328 23.8667C4.2756 23.6757 4.18278 23.4996 4.03526 23.3771C3.88773 23.2545 3.69757 23.1956 3.50661 23.2133C3.31566 23.231 3.13955 23.3238 3.01702 23.4713C2.8945 23.6189 2.8356 23.809 2.85328 24C2.44208 25.6655 2.25377 27.3783 2.29328 29.0933C2.35145 30.0696 2.47618 31.0407 2.66661 32C2.90661 33.3867 3.22661 34.6667 3.33328 36.1333L0.666613 41.1733C0.666613 41.1733 0.426613 41.4133 0.319946 41.5467C0.149171 41.7858 0.0310201 42.0585 -0.0267203 42.3467C-0.0736202 42.614 -0.0517216 42.8889 0.0369147 43.1455C0.125551 43.4021 0.27801 43.6319 0.479946 43.8133C0.936211 44.2336 1.47085 44.5598 2.05328 44.7733C2.79413 45.0178 3.56675 45.1525 4.34661 45.1733C4.80536 45.2535 5.27454 45.2535 5.73328 45.1733C6.14235 45.0515 6.48713 44.7737 6.69328 44.4C6.90527 43.9517 6.97951 43.4505 6.90661 42.96C6.77265 42.3957 6.59431 41.8429 6.37328 41.3067L4.66661 36.88C4.83024 36.7249 4.93408 36.5173 4.95995 36.2933C5.22219 34.618 5.31155 32.9202 5.22661 31.2267C5.1963 30.2521 5.09829 29.2809 4.93328 28.32C4.77328 27.3067 4.58661 26.32 4.42661 25.3067C5.31395 25.3809 6.20594 25.3809 7.09328 25.3067C8.10661 25.3067 9.09328 25.0933 10.1066 24.9333L13.8399 32.2667C14.0799 32.8 14.2933 33.76 14.6399 34.4533C14.9204 35.0517 15.4016 35.5329 15.9999 35.8133Z" fill="#767D27"/>
<path id="Vector_2" fill-rule="evenodd" clip-rule="evenodd" d="M63.6536 29.3333C62.9421 24.653 60.5998 20.3745 57.0402 17.2533C55.6181 16.0716 54.0385 15.0933 52.3469 14.3467C50.6905 13.6063 48.9671 13.0258 47.2002 12.6133C47.0934 12.5811 46.9812 12.5707 46.8703 12.583C46.7594 12.5953 46.6522 12.6298 46.555 12.6847C46.4578 12.7395 46.3728 12.8134 46.3049 12.902C46.2371 12.9905 46.1879 13.0919 46.1602 13.2C46.1106 13.4189 46.1464 13.6484 46.2604 13.8418C46.3744 14.0351 46.558 14.1775 46.7736 14.24C48.4368 14.6534 50.054 15.2341 51.6002 15.9733C53.1105 16.6679 54.519 17.565 55.7869 18.64C58.8582 21.5122 60.8216 25.3729 61.3336 29.5467C61.9366 33.7346 61.3354 38.0077 59.6002 41.8667C57.564 46.1362 54.5156 49.8436 50.7202 52.6667C46.9616 55.5102 42.6596 57.5523 38.0802 58.6667C37.4663 58.8232 36.8427 58.939 36.2136 59.0133C35.5742 59.0549 34.9329 59.0549 34.2936 59.0133H30.4269C26.9475 59.1016 23.5038 58.2935 20.4269 56.6667C19.4919 56.1528 18.6939 55.422 18.1 54.5357C17.506 53.6494 17.1334 52.6335 17.0136 51.5733C16.9098 50.3938 17.0459 49.2055 17.4136 48.08C17.7549 46.9722 18.4019 45.9832 19.2802 45.2267C20.9058 44.2494 22.6201 43.428 24.4002 42.7733C24.8963 42.5371 25.3619 42.2416 25.7869 41.8933C26.4269 41.3564 26.9374 40.6818 27.2802 39.92C27.7545 38.8723 28.0605 37.7564 28.1869 36.6133C28.2019 36.5151 28.1973 36.4149 28.1731 36.3186C28.1489 36.2222 28.1058 36.1317 28.0462 36.0522C27.9866 35.9727 27.9117 35.906 27.826 35.8558C27.7403 35.8056 27.6454 35.773 27.5469 35.76C27.3528 35.7372 27.1574 35.7915 27.0029 35.9112C26.8483 36.0308 26.7468 36.2063 26.7202 36.4C26.5946 37.2209 26.38 38.0256 26.0802 38.8C25.8124 39.5092 25.3616 40.1348 24.7736 40.6133C23.1249 41.5639 21.3822 42.3413 19.5736 42.9333C19.0699 43.16 18.5954 43.4465 18.1602 43.7867C16.9425 44.7154 16.017 45.9741 15.4936 47.4133C14.9674 48.7986 14.749 50.2818 14.8536 51.76C14.9135 53.219 15.3378 54.6398 16.0877 55.8928C16.8377 57.1458 17.8894 58.1911 19.1469 58.9333C22.556 60.8946 26.414 61.9418 30.3469 61.9733H34.3469C35.0936 61.9733 35.8402 61.9733 36.5602 61.84C37.298 61.7608 38.0289 61.6271 38.7469 61.44C43.7527 60.2332 48.4494 57.9892 52.5336 54.8533C56.6471 51.7164 59.9106 47.6004 62.0269 42.88C63.8463 38.611 64.4106 33.9117 63.6536 29.3333Z" fill="#767D27"/>
<path id="Vector_3" fill-rule="evenodd" clip-rule="evenodd" d="M46.347 32C47.0207 32.0014 47.687 31.8594 48.3015 31.5833C48.9161 31.3073 49.4648 30.9036 49.9113 30.3991C50.3578 29.8947 50.6918 29.3009 50.891 28.6574C51.0903 28.0138 51.1503 27.3352 51.067 26.6667C50.507 19.76 40.027 19.92 40.4004 26.9334C40.4542 27.658 40.6512 28.3647 40.98 29.0127C41.3088 29.6606 41.7629 30.2369 42.316 30.7081C42.8691 31.1794 43.5101 31.5362 44.2021 31.7579C44.894 31.9797 45.6231 32.062 46.347 32ZM48.7204 26.6667C48.7321 26.9896 48.6762 27.3113 48.5563 27.6114C48.4364 27.9114 48.2552 28.1831 48.0242 28.409C47.7933 28.635 47.5177 28.8102 47.2151 28.9234C46.9125 29.0367 46.5896 29.0855 46.267 29.0667C45.5057 29.1763 44.7314 28.9879 44.1055 28.5408C43.4796 28.0938 43.0503 27.4224 42.907 26.6667C42.0537 21.5734 48.8004 22.1867 48.7204 26.6667Z" fill="#767D27"/>
<path id="Vector_4" fill-rule="evenodd" clip-rule="evenodd" d="M44.2932 36.88C43.415 37.2447 42.6504 37.8375 42.0783 38.597C41.5063 39.3566 41.1478 40.2553 41.0398 41.2C41.0059 41.9159 41.1574 42.6284 41.4798 43.2684C41.8022 43.9085 42.2844 44.4544 42.8798 44.8533C43.6236 45.3584 44.483 45.6672 45.3782 45.7512C46.2733 45.8351 47.1751 45.6913 47.9998 45.3333C48.7914 45.0228 49.492 44.5181 50.0373 43.8657C50.5825 43.2132 50.9548 42.4341 51.1198 41.6C51.2265 40.5867 51.0132 34.0266 44.2932 36.88ZM48.8265 41.0666C48.6552 41.48 48.3941 41.85 48.0619 42.1498C47.7298 42.4496 47.3351 42.6717 46.9065 42.8C46.5157 42.9514 46.0948 43.0085 45.6778 42.9668C45.2608 42.9251 44.8595 42.7858 44.5065 42.56C44.1835 42.399 43.921 42.1384 43.7577 41.8166C43.5944 41.4948 43.539 41.129 43.5998 40.7733C43.6805 40.3135 43.8546 39.875 44.1115 39.4852C44.3684 39.0953 44.7025 38.7622 45.0932 38.5066C49.6798 35.8133 48.8265 41.0133 48.8265 41.0666Z" fill="#767D27"/>
<path id="Vector_5" fill-rule="evenodd" clip-rule="evenodd" d="M37.7331 48C37.702 48.2186 37.7568 48.4408 37.8861 48.6198C38.0154 48.7989 38.2091 48.9208 38.4264 48.96C38.7459 49.029 39.0583 49.1272 39.3597 49.2533C39.5529 49.3429 39.712 49.4926 39.8131 49.68C39.9953 50.006 40.0909 50.3732 40.0909 50.7467C40.0909 51.1201 39.9953 51.4873 39.8131 51.8133C39.7277 52.1092 39.5545 52.3721 39.3164 52.5674C39.0784 52.7626 38.7866 52.8809 38.4797 52.9067C37.9795 52.9513 37.4817 52.7981 37.0931 52.48C36.6424 52.1551 36.3362 51.6672 36.2397 51.12C36.1727 50.7294 36.2355 50.3275 36.4185 49.976C36.6015 49.6244 36.8946 49.3425 37.2531 49.1733C37.3461 49.141 37.4314 49.0899 37.5039 49.0232C37.5764 48.9566 37.6344 48.8757 37.6744 48.7858C37.7144 48.6958 37.7355 48.5986 37.7364 48.5001C37.7373 48.4017 37.718 48.3041 37.6797 48.2133C37.6031 48.0349 37.4601 47.8934 37.2808 47.8187C37.1016 47.744 36.9004 47.7421 36.7197 47.8133C36.2424 47.9279 35.793 48.1375 35.3984 48.4296C35.0039 48.7217 34.6723 49.0904 34.4233 49.5135C34.1744 49.9366 34.0134 50.4056 33.9497 50.8924C33.8861 51.3792 33.9213 51.8738 34.0531 52.3467C34.2626 53.3795 34.8235 54.3079 35.6402 54.9739C36.457 55.64 37.4792 56.0026 38.5331 56C39.3668 55.9186 40.1564 55.5873 40.7988 55.0497C41.4411 54.512 41.9062 53.793 42.1331 52.9867C42.3977 52.2615 42.4705 51.4803 42.3443 50.7187C42.2182 49.9572 41.8974 49.2411 41.4131 48.64C41.1006 48.3036 40.7184 48.0397 40.2931 47.8667C39.7787 47.681 39.2394 47.5731 38.6931 47.5467C38.5053 47.4975 38.3062 47.516 38.1307 47.5989C37.9552 47.6818 37.8144 47.8238 37.7331 48Z" fill="#767D27"/>
<path id="Vector_6" fill-rule="evenodd" clip-rule="evenodd" d="M25.787 47.68C25.9826 47.6598 26.1632 47.5658 26.292 47.4172C26.4208 47.2686 26.4881 47.0765 26.4803 46.88C26.4735 46.7819 26.4475 46.686 26.4035 46.598C26.3596 46.51 26.2988 46.4315 26.2244 46.3671C26.1501 46.3026 26.0637 46.2535 25.9704 46.2226C25.877 46.1916 25.7784 46.1794 25.6803 46.1867C24.8024 46.2072 23.9617 46.5455 23.3143 47.1389C22.667 47.7323 22.2569 48.5405 22.1603 49.4133C21.9423 50.4834 22.1325 51.5964 22.6936 52.5333C23.1143 53.2258 23.7517 53.7601 24.507 54.0533C25.2936 54.3836 26.1733 54.4169 26.9827 54.1471C27.792 53.8773 28.4758 53.3228 28.907 52.5867C29.4807 51.6667 29.6945 50.5674 29.5075 49.4994C29.3205 48.4315 28.7458 47.4703 27.8936 46.8C27.7154 46.6697 27.4935 46.6135 27.2747 46.6433C27.0559 46.6732 26.8572 46.7867 26.7203 46.96C26.6524 47.047 26.6026 47.1467 26.5738 47.2533C26.545 47.3598 26.5379 47.4711 26.5528 47.5804C26.5677 47.6898 26.6044 47.795 26.6606 47.89C26.7169 47.985 26.7916 48.0677 26.8803 48.1333C27.1245 48.4139 27.2921 48.7529 27.3669 49.1173C27.4416 49.4817 27.421 49.8592 27.307 50.2133C27.1203 51.04 26.4803 51.84 25.547 51.4133C25.3682 51.3453 25.2052 51.2416 25.0677 51.1087C24.9302 50.9758 24.8211 50.8163 24.747 50.64C24.5187 50.1681 24.4441 49.6365 24.5336 49.12C24.568 48.7798 24.707 48.4587 24.9315 48.2008C25.1559 47.9429 25.4548 47.761 25.787 47.68Z" fill="#767D27"/>
</g>
</g>
</g>
</g>
</g>
</g>
</g>
</g>
</g>
</g>
</g>
</g>
</g>

</svg>
