<svg width="64" height="64" viewBox="0 0 64 64" fill="none" xmlns="http://www.w3.org/2000/svg">

<g id="Waldorf Kindergarten &#38; TK in Santa Rosa | Summerfield">

<g id="Body">
<g id="Section">

<g id="Container">
<g id="Container:margin">
<g id="Container_2">
<g id="Container_3">
<g id="Container_4">
<g id="Text">

<g id="Brain-Head-1--Streamline-Freehand">
<g id="Group">
<path id="Vector" d="M63.7604 27.92C63.248 27.2067 62.6375 26.5693 61.947 26.0267C59.627 24.1334 56.3204 22.8 54.5337 20.6934C54.3179 20.3043 54.1735 19.8799 54.107 19.44C53.5204 16.96 53.3337 13.3334 52.6404 11.8934C51.1802 8.67433 48.8766 5.9101 45.9737 3.89336C43.0518 1.87435 39.667 0.626805 36.1337 0.266692C28.2179 -0.317851 20.3431 1.84866 13.8404 6.40003C7.08767 10.638 2.24132 17.3292 0.320371 25.0667C-0.0794466 27.4411 -0.0794466 29.8656 0.320371 32.24C0.918343 35.7125 2.01407 39.0805 3.5737 42.24C4.84072 45.0788 6.55095 47.6982 8.64037 50C9.81244 51.2243 11.1606 52.2669 12.6404 53.0934C12.6404 53.76 12.4537 54.4267 12.347 55.12C12.2658 55.5248 12.2124 55.9346 12.187 56.3467V57.6C12.187 58.64 12.187 59.6534 11.947 60.6934C11.9149 60.8037 11.9054 60.9194 11.9191 61.0334C11.9327 61.1475 11.9693 61.2577 12.0266 61.3573C12.0839 61.4569 12.1607 61.5439 12.2524 61.6131C12.3441 61.6823 12.4489 61.7323 12.5604 61.76C12.6689 61.7926 12.7829 61.8032 12.8956 61.7912C13.0082 61.7793 13.1174 61.745 13.2167 61.6904C13.316 61.6357 13.4034 61.5619 13.4739 61.4731C13.5443 61.3844 13.5964 61.2825 13.627 61.1734C14.1109 60.1794 14.5295 59.155 14.8804 58.1067C15.0163 57.6443 15.1144 57.1716 15.1737 56.6934C15.2404 56.1978 15.2404 55.6956 15.1737 55.2C15.1737 54.32 15.467 52.24 14.187 51.76L12.987 51.4667C11.4514 50.4691 10.0984 49.2154 8.98704 47.76C7.51067 45.8234 6.2833 43.7091 5.3337 41.4667C4.14553 38.9093 3.25094 36.2255 2.66704 33.4667C2.12083 30.828 2.12083 28.1054 2.66704 25.4667C4.65876 18.4931 9.22426 12.536 15.4404 8.80003C21.4108 4.64856 28.6094 2.63747 35.867 3.09336C38.935 3.3505 41.8884 4.37778 44.4537 6.08003C47.018 7.78603 49.0729 10.1542 50.4004 12.9334C51.0137 14.16 51.307 17.68 51.8937 19.8667C52.0396 20.6264 52.3489 21.3452 52.8004 21.9734C54.7204 24.2934 58.1337 25.68 60.8004 27.6C61.0937 27.84 61.387 28.08 61.6537 28.3467C59.6804 29.12 55.4404 30.08 53.6537 30.56C50.107 31.4667 52.4004 32.96 51.6537 41.2267C51.3348 44.1632 50.1672 46.9431 48.2937 49.2267C46.7885 51.3107 44.6296 52.8314 42.1604 53.5467C39.5678 54.3326 36.8251 54.488 34.1604 54C33.9626 53.9602 33.7571 53.9993 33.5877 54.1089C33.4183 54.2185 33.2984 54.39 33.2537 54.5867C33.2261 54.685 33.2197 54.7881 33.235 54.8891C33.2503 54.9901 33.2869 55.0867 33.3424 55.1724C33.3979 55.2582 33.471 55.3312 33.5569 55.3865C33.6427 55.4418 33.7394 55.4782 33.8404 55.4934C34.9083 55.7772 35.9957 55.9822 37.0937 56.1067C36.9623 56.9907 36.9623 57.8893 37.0937 58.7734C37.1966 59.4203 37.3664 60.0548 37.6004 60.6667C37.9737 61.5734 38.4537 62.3734 38.827 63.3334C38.8801 63.5561 39.0195 63.7487 39.2145 63.8688C39.4095 63.9888 39.6443 64.0264 39.867 63.9734C40.0898 63.9203 40.2824 63.7809 40.4024 63.5859C40.5224 63.3909 40.5601 63.1561 40.507 62.9334C40.507 62 40.507 61.0667 40.2937 60.1067C40.2506 59.7198 40.1793 59.3366 40.0804 58.96C40.002 58.5879 39.895 58.2224 39.7604 57.8667C39.5737 57.3067 39.3337 56.8 39.1204 56.2667C40.3153 56.2416 41.5042 56.0896 42.667 55.8134C45.7567 55.1352 48.5224 53.4231 50.507 50.96C52.3587 48.2004 53.5537 45.0532 54.0004 41.76C54.5196 38.6448 54.3742 35.4551 53.5737 32.4L53.9737 32.2667C56.9178 31.674 59.8285 30.9263 62.6937 30.0267C63.0836 29.8681 63.4374 29.6323 63.7337 29.3334C63.9154 29.1445 64.0191 28.894 64.0241 28.6319C64.029 28.3699 63.9348 28.1156 63.7604 27.92Z" fill="#767D27"/>
<path id="Vector_2" d="M40.4274 25.8934C41.7505 25.1184 42.8966 24.075 43.7922 22.8304C44.6878 21.5858 45.3129 20.1675 45.6274 18.6667C45.7378 17.5809 45.6008 16.4842 45.2267 15.4589C44.8526 14.4336 44.2511 13.5063 43.4674 12.7467C42.4414 11.6791 41.1546 10.8978 39.7341 10.48C39.2963 10.3539 38.851 10.2559 38.4007 10.1867C38.094 9.72159 37.7363 9.29225 37.3341 8.90671C35.8875 7.3503 33.9064 6.39783 31.7874 6.24004C29.6565 6.21418 27.5667 6.82719 25.7874 8.00004C24.668 8.70952 23.6838 9.61248 22.8807 10.6667C21.5525 10.0705 20.049 9.9944 18.6674 10.4534C17.2861 10.9343 16.0215 11.7004 14.9556 12.7019C13.8898 13.7034 13.0465 14.918 12.4807 16.2667C11.8881 17.6081 11.6143 19.0685 11.6807 20.5334C10.8557 21.0003 10.1235 21.615 9.52073 22.3467C8.42285 23.8932 7.96431 25.8037 8.24073 27.68C8.33679 28.666 8.65856 29.6167 9.18111 30.4583C9.70366 31.2999 10.413 32.01 11.2541 32.5334C13.639 33.361 16.1431 33.7934 18.6674 33.8134H21.3341C20.1074 35.4667 19.6807 38.1867 21.3341 43.12C21.3647 43.2291 21.4168 43.3311 21.4872 43.4198C21.5577 43.5086 21.6451 43.5824 21.7444 43.637C21.8437 43.6917 21.9529 43.7259 22.0655 43.7379C22.1782 43.7499 22.2922 43.7393 22.4007 43.7067C22.5966 43.6238 22.7558 43.4729 22.849 43.2817C22.9421 43.0905 22.9629 42.872 22.9074 42.6667C21.6807 38.4534 21.8407 36.24 22.9074 34.9067C23.3654 34.3738 23.9404 33.954 24.5874 33.68C26.6614 33.0946 28.7002 32.3912 30.6941 31.5734C32.0274 30.9334 33.3607 30.2134 34.6674 29.4667C36.6941 28.3467 38.5874 27.12 40.4274 25.8934ZM36.3741 12.9067C36.4219 13.3313 36.367 13.7611 36.2141 14.16C36.1272 14.3914 35.9918 14.6016 35.817 14.7763C35.6423 14.9511 35.4321 15.0865 35.2007 15.1734C35.0714 15.2628 34.9179 15.3108 34.7607 15.3108C34.6035 15.3108 34.45 15.2628 34.3207 15.1734C34.0541 14.88 34.3207 14.56 34.3207 14.2934C34.7743 13.7504 35.363 13.3365 36.0274 13.0934L36.3741 12.9067ZM29.8941 29.7334C27.6541 30.8534 25.2274 31.3334 23.3874 32.4C21.8331 32.4883 20.275 32.4883 18.7207 32.4C16.4944 32.3363 14.291 31.9316 12.1874 31.2C11.6121 30.8252 11.132 30.3216 10.7849 29.7292C10.4378 29.1368 10.2332 28.4718 10.1874 27.7867C9.98157 26.4047 10.3263 24.9972 11.1474 23.8667C11.4202 23.543 11.7339 23.2561 12.0807 23.0134C12.2899 23.685 12.5953 24.3227 12.9874 24.9067C13.4632 25.645 14.0981 26.2677 14.8455 26.7291C15.593 27.1905 16.4341 27.4789 17.3074 27.5734C18.0092 27.5854 18.6939 27.3564 19.2472 26.9244C19.8005 26.4925 20.1888 25.8838 20.3474 25.2C20.6259 24.5162 20.7111 23.7689 20.5935 23.0399C20.4759 22.3109 20.1602 21.6283 19.6807 21.0667C19.2874 20.5604 18.7923 20.1422 18.2273 19.839C17.6623 19.5359 17.0401 19.3545 16.4007 19.3067C15.702 19.2652 15.0009 19.3281 14.3207 19.4934C14.4309 18.7499 14.6371 18.0238 14.9341 17.3334C15.3602 16.3577 15.9826 15.4801 16.7625 14.7552C17.5424 14.0304 18.4631 13.4738 19.4674 13.12C20.1421 12.8924 20.8727 12.8924 21.5474 13.12C21.0555 14.916 21.2952 16.8337 22.2141 18.4534C22.5919 18.9592 23.137 19.3145 23.7523 19.4561C24.3675 19.5977 25.0131 19.5164 25.5741 19.2267C26.0033 19.0677 26.3787 18.7905 26.6571 18.4272C26.9355 18.0638 27.1055 17.6292 27.1474 17.1734C27.159 15.929 26.8367 14.7042 26.2141 13.6267C25.9424 13.1726 25.63 12.7442 25.2807 12.3467C25.8544 11.5882 26.5588 10.938 27.3607 10.4267C28.6734 9.56321 30.2165 9.117 31.7874 9.14671C33.0055 9.26806 34.1448 9.80475 35.0141 10.6667C33.6929 11.1842 32.578 12.121 31.8407 13.3334C31.4873 13.9053 31.3371 14.5797 31.4146 15.2475C31.492 15.9154 31.7925 16.5375 32.2674 17.0134C32.6512 17.4691 33.1519 17.8116 33.7156 18.0042C34.2794 18.1968 34.885 18.2323 35.4674 18.1067C36.2225 17.9466 36.9275 17.6058 37.522 17.1135C38.1165 16.6212 38.5827 15.9921 38.8807 15.28C39.1336 14.6167 39.2514 13.9095 39.2274 13.2C40.1377 13.48 40.963 13.9843 41.6274 14.6667C42.3151 15.2693 42.8106 16.0607 43.0523 16.9425C43.2941 17.8242 43.2715 18.7576 42.9874 19.6267C42.1748 21.4365 40.8369 22.9602 39.1474 24C37.3874 25.2267 35.5474 26.48 33.8141 27.6267C32.4274 28.4 31.1741 29.12 29.8941 29.7334ZM14.4541 21.7334C15.025 21.5673 15.621 21.5041 16.2141 21.5467C16.542 21.5801 16.8591 21.683 17.1442 21.8485C17.4293 22.014 17.6758 22.2384 17.8674 22.5067C18.0204 22.72 18.1237 22.9648 18.1699 23.2232C18.216 23.4816 18.2038 23.747 18.1341 24C18.1069 24.1244 18.0539 24.2417 17.9785 24.3442C17.903 24.4468 17.8068 24.5323 17.6961 24.5951C17.5854 24.658 17.4628 24.6969 17.336 24.7092C17.2093 24.7216 17.0815 24.7071 16.9607 24.6667C16.1994 24.3996 15.5509 23.8826 15.1207 23.2C14.8231 22.7395 14.5982 22.2358 14.4541 21.7067V21.7334Z" fill="#767D27"/>
</g>
</g>
</g>
</g>
</g>
</g>
</g>
</g>
</g>
</g>
</g>

</svg>
