<svg width="24" height="24" viewBox="0 0 24 24" fill="none" xmlns="http://www.w3.org/2000/svg">

<g id="Waldorf Kindergarten &#38; TK in Santa Rosa | Summerfield">

<g id="Body">
<g id="Section">

<g id="Container:margin">
<g id="Container">
<g id="Container_2">
<g id="Container_3">
<g id="Details">
<g>
<mask id="path-1-inside-1_23_2" fill="white">
<path d="M-12 -29.7891H341V42.2109H-12V-29.7891Z"/>
</mask>
<g id="Summary">
<g id="Text">
<g id="Text_2">
<rect x="-8" y="-7.78906" width="40" height="40" rx="20" fill="#C9963A" fill-opacity="0.08"/>
<g id="Archery-Person--Streamline-Freehand">
<g id="Group">
<path id="Vector" d="M4.92987 3.99991C5.01869 4.01435 5.10963 3.99299 5.18273 3.94051C5.25584 3.88802 5.30515 3.80869 5.31987 3.71991C5.36278 3.47282 5.43322 3.23132 5.52987 2.99991C5.622 2.78741 5.73241 2.5833 5.85987 2.38991C6.02117 2.1465 6.22035 1.93044 6.44987 1.74991C6.68007 1.57184 6.93211 1.42397 7.19987 1.30991C7.59915 1.13539 8.03566 1.06321 8.46987 1.09991C9.13582 1.14846 9.77094 1.39972 10.2899 1.81991C10.7657 2.14414 11.1347 2.60226 11.3501 3.13629C11.5655 3.67032 11.6176 4.25625 11.4999 4.81991C11.4857 4.8566 11.4791 4.89579 11.4806 4.93509C11.482 4.9744 11.4915 5.013 11.5083 5.04854C11.5251 5.08409 11.549 5.11584 11.5785 5.14186C11.608 5.16788 11.6425 5.18763 11.6799 5.19991C11.7173 5.21244 11.7568 5.21747 11.7962 5.2147C11.8356 5.21193 11.874 5.20141 11.9093 5.18376C11.9446 5.16611 11.9761 5.14167 12.0019 5.11184C12.0277 5.08201 12.0474 5.04737 12.0599 5.00991C12.3125 4.31308 12.3463 3.55575 12.1569 2.83916C11.9675 2.12258 11.5638 1.48089 10.9999 0.999909C10.315 0.394065 9.4433 0.0411369 8.52987 -9.08797e-05C7.9098 -0.0203243 7.29549 0.124624 6.74987 0.419909C6.41466 0.605184 6.10534 0.833818 5.82987 1.09991C5.55637 1.36391 5.32381 1.66725 5.13987 1.99991C5.01529 2.24405 4.91158 2.49829 4.82987 2.75991C4.7425 3.02309 4.68218 3.29449 4.64987 3.56991C4.6347 3.6167 4.63019 3.66629 4.63665 3.71505C4.64312 3.76381 4.66041 3.81051 4.68725 3.85173C4.71409 3.89295 4.74981 3.92765 4.79178 3.95328C4.83376 3.97892 4.88094 3.99485 4.92987 3.99991Z" fill="#9F7325"/>
<path id="Vector_2" d="M16.6206 4.99998C16.9214 4.51891 17.1951 4.02147 17.4406 3.50998C17.9206 2.50998 18.2506 1.58998 18.4406 1.15998C18.4406 1.06998 18.5406 0.999977 18.5306 0.969977C19.1855 1.31395 19.7558 1.79894 20.2006 2.38998C20.8026 3.36217 21.1975 4.44816 21.3606 5.57998C21.4131 5.9109 21.4432 6.245 21.4506 6.57998C21.5206 7.04998 22.4506 7.04998 22.5106 6.50998C22.5267 6.1522 22.5066 5.79372 22.4506 5.43998C22.3286 4.80195 22.1305 4.18086 21.8606 3.58998C21.5852 3.01005 21.25 2.46042 20.8606 1.94998C20.412 1.40442 19.8575 0.955396 19.2306 0.629977C18.9949 0.494113 18.7472 0.380297 18.4906 0.289977C18.4253 0.26574 18.3546 0.259449 18.2861 0.271759C18.2175 0.28407 18.1534 0.314532 18.1006 0.359977C18.0006 0.429977 17.0006 1.99998 16.4506 2.99998C16.1706 3.48998 15.9106 3.99998 15.6706 4.50998C15.2706 5.33998 15.1006 5.79998 14.9206 6.19998C14.7406 6.59998 15.3406 6.68998 15.7106 6.45998C16.0006 6.05998 16.2906 5.56998 16.6206 4.99998Z" fill="#9F7325"/>
<path id="Vector_3" d="M21.0804 10.1197C20.8355 11.0903 20.374 11.9929 19.7304 12.7597C19.3204 13.2197 18.6504 13.9697 18.2904 14.3197C18.0656 13.8394 17.8084 13.375 17.5204 12.9297C17.2466 12.5419 16.9494 12.1712 16.6304 11.8197C16.3704 11.5197 16.2304 11.3697 16.0504 11.1797C15.5504 10.9097 15.1304 11.1797 15.2704 11.4897C15.4337 11.8091 15.614 12.1195 15.8104 12.4197C16.0517 12.8274 16.3154 13.2213 16.6004 13.5997C17.1104 14.2297 17.7004 14.7597 18.0504 15.1597C18.0733 15.192 18.1024 15.2194 18.1359 15.2404C18.1695 15.2614 18.2068 15.2756 18.2459 15.2821C18.2849 15.2886 18.3248 15.2873 18.3634 15.2783C18.4019 15.2693 18.4383 15.2528 18.4704 15.2297C18.4704 15.2297 19.3404 14.3197 20.3404 13.3397C21.3464 12.3105 22.0399 11.0171 22.3404 9.60969C22.4501 9.15076 22.5104 8.68143 22.5204 8.20969C22.4504 7.65969 21.5204 7.84969 21.4704 8.54969C21.4015 9.08633 21.2707 9.61319 21.0804 10.1197Z" fill="#9F7325"/>
<path id="Vector_4" d="M23.4097 7.07977C23.2797 7.07977 19.1397 6.76977 17.7597 6.69977C17.0397 6.69977 14.2197 6.61977 13.9797 6.62977C12.5397 6.62977 10.9797 6.70977 10.4897 6.72977C9.99968 6.74977 9.90968 7.47977 10.3597 7.45977C11.1197 7.52977 12.5197 7.63977 12.8297 7.64977H13.9997C14.4697 7.64977 14.9997 7.72977 15.4697 7.74977C15.5497 7.74977 21.0297 7.84977 23.4697 7.74977C23.5185 7.75824 23.5686 7.75593 23.6165 7.743C23.6643 7.73007 23.7088 7.70683 23.7467 7.67492C23.7846 7.643 23.8151 7.60318 23.836 7.55824C23.8569 7.51331 23.8678 7.46434 23.8678 7.41477C23.8678 7.3652 23.8569 7.31624 23.836 7.2713C23.8151 7.22636 23.7846 7.18654 23.7467 7.15462C23.7088 7.12271 23.6643 7.09947 23.6165 7.08654C23.5686 7.07361 23.5185 7.0713 23.4697 7.07977H23.4097Z" fill="#9F7325"/>
<path id="Vector_5" d="M17.9301 8.67991C17.9597 8.87332 17.9319 9.07115 17.8501 9.2489C17.7683 9.42664 17.6362 9.5765 17.4701 9.67991C16.9845 9.90305 16.4692 10.0546 15.9401 10.1299C14.7581 10.3269 13.5664 10.4604 12.3701 10.5299H11.9801C11.9135 10.5367 11.8489 10.557 11.7904 10.5897C11.732 10.6224 11.6808 10.6667 11.6401 10.7199C11.5689 10.9051 11.5316 11.1015 11.5301 11.2999V14.4899C11.6596 15.2658 11.8332 16.0338 12.0501 16.7899C12.6101 18.8799 13.4001 21.3099 13.5201 21.9199C13.6001 22.3599 13.5201 22.7199 13.2001 22.8199C12.8801 22.9199 12.5301 22.7699 12.1301 22.3899C11.6497 21.7175 11.2281 21.0048 10.8701 20.2599C10.0001 18.6899 9.00013 16.7999 9.00013 16.7999C8.94669 16.7125 8.87067 16.641 8.78007 16.5932C8.68946 16.5453 8.58762 16.5227 8.48527 16.5278C8.38292 16.5329 8.28384 16.5656 8.19846 16.6222C8.11309 16.6789 8.04457 16.7576 8.00013 16.8499C7.34789 18.4178 6.54407 19.9183 5.60013 21.3299C5.26378 21.8573 4.83328 22.3183 4.33013 22.6899C4.23592 22.7797 4.11693 22.8391 3.98856 22.8605C3.86019 22.8819 3.72836 22.8643 3.61013 22.8099C3.48381 22.7442 3.37789 22.6451 3.30385 22.5235C3.22981 22.4019 3.19048 22.2623 3.19013 22.1199C3.20255 21.7309 3.29802 21.349 3.47013 20.9999C3.86013 20.0899 4.64013 18.5699 5.11013 17.1799C5.32659 16.5773 5.46113 15.9483 5.51013 15.3099V13.7399C5.51013 12.5699 5.39013 11.4099 5.39013 11.4099C5.38659 11.3248 5.35947 11.2423 5.31179 11.1717C5.26412 11.101 5.19776 11.045 5.12013 11.0099C5.12013 11.0099 3.76013 10.3299 2.63013 9.58991C2.13252 9.33207 1.69867 8.96654 1.36013 8.51991C1.23295 8.26911 1.16009 7.99431 1.14631 7.71344C1.13252 7.43258 1.17812 7.15196 1.28013 6.88991C1.43189 6.65463 1.63137 6.45384 1.86564 6.30053C2.09992 6.14722 2.36377 6.0448 2.64013 5.99991C3.63005 5.82621 4.63692 5.76915 5.64013 5.82991C6.65322 5.83291 7.66164 5.96737 8.64013 6.22991C8.89013 6.31991 8.99013 6.68991 8.99013 7.03991C9.00676 7.20492 8.97945 7.3714 8.91095 7.52244C8.84246 7.67348 8.73522 7.80371 8.60013 7.89991C8.19953 8.06556 7.77318 8.16031 7.34013 8.17991C6.55013 8.24991 5.68013 8.24991 5.20013 8.24991C5.10995 8.24991 5.02347 8.28573 4.95971 8.34949C4.89595 8.41326 4.86013 8.49974 4.86013 8.58991C4.86265 8.67929 4.89928 8.76431 4.9625 8.82754C5.02572 8.89076 5.11075 8.92739 5.20013 8.92991C6.05781 8.94971 6.91593 8.91966 7.77013 8.83991C8.17817 8.8324 8.57881 8.72967 8.94013 8.53991C10.6301 7.13991 9.64013 5.62991 8.77013 5.37991C7.76186 5.13322 6.72812 5.00568 5.69013 4.99991C4.60472 4.91812 3.51339 4.96849 2.44013 5.14991C2.03938 5.22068 1.65826 5.37586 1.32207 5.60517C0.985874 5.83447 0.702288 6.13264 0.490126 6.47991C0.322211 6.85064 0.235352 7.25293 0.235352 7.65991C0.235352 8.06689 0.322211 8.46919 0.490126 8.83991C0.776753 9.34039 1.18197 9.76277 1.67013 10.0699C2.54183 10.6816 3.4502 11.2393 4.39013 11.7399C4.39013 12.1399 4.45013 12.9399 4.47013 13.7399V15.2499C4.39125 15.9743 4.20242 16.6824 3.91013 17.3499C3.43013 18.5399 2.79013 19.7599 2.45013 20.5299C2.14352 21.1489 2.02861 21.8453 2.12013 22.5299C2.17402 22.7963 2.28626 23.0475 2.44879 23.2653C2.61133 23.4832 2.82011 23.6624 3.06013 23.7899C4.00013 24.2999 5.00013 23.8199 6.00013 22.7099C7.02956 21.3818 7.88952 19.9306 8.56013 18.3899C9.01013 19.2399 9.65013 20.4499 10.2101 21.4399C10.5369 22.085 10.929 22.6948 11.3801 23.2599C11.6502 23.562 11.9991 23.7829 12.3877 23.8977C12.7763 24.0125 13.1892 24.0167 13.5801 23.9099C13.9847 23.7406 14.3116 23.4263 14.4965 23.0286C14.6815 22.6309 14.7113 22.1784 14.5801 21.7599C14.4501 21.1399 13.5801 18.6799 13.0101 16.5799C12.793 15.8596 12.6128 15.1286 12.4701 14.3899V11.3899C13.4701 11.2999 16.7401 11.0399 17.9101 10.3299C18.193 10.1458 18.4188 9.88617 18.5619 9.58047C18.7051 9.27476 18.7599 8.93512 18.7201 8.59991C18.6001 7.64991 17.7501 7.59991 17.9301 8.67991Z" fill="#9F7325"/>
</g>
</g>
</g>
</g>
</g>
</g>
<path d="M341 42.2109V41.2109H-12V42.2109V43.2109H341V42.2109Z" fill="#D6E3E6" mask="url(#path-1-inside-1_23_2)"/>
</g>
</g>
</g>
</g>
</g>
</g>
</g>
</g>

</svg>
