<svg width="24" height="24" viewBox="0 0 24 24" fill="none" xmlns="http://www.w3.org/2000/svg">

<g id="Waldorf Kindergarten &#38; TK in Santa Rosa | Summerfield">

<g id="Body">
<g id="Section">

<g id="Container:margin">
<g id="Container">
<g id="Container_2">
<g id="Container_3">
<g id="Details">
<g>
<mask id="path-1-inside-1_23_2" fill="white">
<path d="M-12 -30.2734H341V44.9688H-12V-30.2734Z"/>
</mask>
<g id="Summary">
<g id="Text">
<g id="Text_2">
<rect x="-8" y="-8.27344" width="40" height="40" rx="20" fill="#C25B30" fill-opacity="0.08"/>
<g id="Music-Genre-Relax-User--Streamline-Freehand">
<g id="Group">
<path id="Vector" fill-rule="evenodd" clip-rule="evenodd" d="M10.0001 2.54002C9.82538 1.54616 9.26456 0.661786 8.44005 0.0800168C8.23113 -0.00193269 7.99897 -0.00193269 7.79005 0.0800168C7.51961 0.160192 7.25554 0.260471 7.00005 0.380017C6.31005 0.700017 5.59005 0.980017 4.90005 1.30002C4.59005 1.44002 4.28005 1.60002 3.98005 1.76002C3.67885 1.91194 3.39115 2.08925 3.12005 2.29002C2.97032 2.42079 2.85959 2.59035 2.80005 2.78002C2.74596 3.03046 2.74596 3.28957 2.80005 3.54002C2.89005 3.91002 3.08005 4.33002 3.14005 4.54002C3.35005 5.54002 3.74005 6.96002 4.04005 8.26002C2.94005 7.87002 1.71005 8.90002 1.59005 9.01002C1.3267 9.24473 1.12424 9.53984 1.00005 9.87002C0.864057 10.2138 0.839149 10.5916 0.928825 10.9503C1.0185 11.309 1.21826 11.6306 1.50005 11.87C1.77189 12.1015 2.09644 12.2628 2.44517 12.3395C2.7939 12.4162 3.15614 12.4061 3.50005 12.31C3.97365 12.1634 4.39162 11.8765 4.69872 11.4872C5.00582 11.098 5.1876 10.6247 5.22005 10.13C5.22216 9.78334 5.14341 9.44094 4.99005 9.13002C4.99005 8.86002 4.92005 8.59002 4.88005 8.31002C4.68005 6.95002 4.41005 5.41002 4.28005 4.39002C3.89005 2.59002 3.82005 3.28002 4.58005 2.89002L7.52005 1.51002C7.52005 1.51002 8.23005 0.400017 9.00005 2.81002C9.20086 3.4609 9.3316 4.13137 9.39005 4.81002C8.34005 4.32002 7.09005 5.20002 6.75005 5.52002C6.50399 5.74163 6.31527 6.01956 6.20005 6.33002C6.05665 6.67189 6.02687 7.05078 6.11509 7.41086C6.20331 7.77094 6.40486 8.09315 6.69005 8.33002C6.96141 8.5625 7.28553 8.72505 7.63415 8.80348C7.98276 8.88192 8.34527 8.87386 8.69005 8.78002C9.16438 8.6346 9.5831 8.34804 9.8904 7.95855C10.1977 7.56907 10.379 7.09516 10.4101 6.60002C10.4157 6.34482 10.3751 6.0907 10.2901 5.85002C10.3473 4.73857 10.2497 3.62456 10.0001 2.54002ZM3.16005 11C3.01692 11.0371 2.86734 11.042 2.72209 11.0143C2.57683 10.9867 2.43953 10.9271 2.32005 10.84C2.20676 10.7672 2.11652 10.6637 2.05986 10.5415C2.0032 10.4193 1.98246 10.2835 2.00005 10.15C2.05082 9.91395 2.1649 9.69617 2.33005 9.52002C3.54005 8.21002 4.25005 9.35002 4.15005 9.99002C4.10632 10.2386 3.98834 10.4682 3.81162 10.6485C3.63491 10.8288 3.40776 10.9513 3.16005 11ZM8.31005 7.52002C8.16692 7.55711 8.01734 7.562 7.87209 7.53433C7.72683 7.50666 7.58953 7.44713 7.47005 7.36002C7.35157 7.28502 7.25796 7.17661 7.20101 7.04848C7.14406 6.92034 7.12633 6.77822 7.15005 6.64002C7.19317 6.40042 7.30425 6.17827 7.47005 6.00002C8.68005 4.68002 9.39005 5.84002 9.30005 6.47002C9.25848 6.72377 9.14201 6.95931 8.96561 7.1464C8.78921 7.3335 8.56092 7.4636 8.31005 7.52002Z" fill="#C25B30"/>
<path id="Vector_2" fill-rule="evenodd" clip-rule="evenodd" d="M15.3505 6.11983C15.4505 5.71983 15.5005 5.36983 15.6505 4.77983L15.7305 4.38983L16.0805 4.63983C16.3505 4.87983 16.5405 5.04983 16.5705 5.27983C16.5618 5.57819 16.4643 5.86718 16.2905 6.10983C16.2376 6.19642 16.2206 6.30021 16.243 6.39917C16.2654 6.49812 16.3255 6.58445 16.4105 6.63983C16.4522 6.66709 16.499 6.68564 16.5481 6.69436C16.5971 6.70308 16.6475 6.7018 16.696 6.6906C16.7446 6.67939 16.7904 6.65849 16.8307 6.62914C16.871 6.5998 16.9049 6.56261 16.9305 6.51983C17.2339 6.15448 17.4157 5.70349 17.4505 5.22983C17.3993 4.72745 17.1599 4.26304 16.7805 3.92983L16.0005 3.17983L15.7505 2.99983C15.6239 2.91797 15.4719 2.885 15.3228 2.90709C15.1738 2.92917 15.0378 3.0048 14.9405 3.11983C14.8314 3.26507 14.747 3.42723 14.6905 3.59983C14.5805 3.87983 14.5105 4.22983 14.4405 4.44983L13.9405 6.35983H13.8705C13.7342 6.34578 13.5968 6.34578 13.4605 6.35983C13.3145 6.33994 13.1665 6.33994 13.0205 6.35983C12.8558 6.38495 12.6987 6.4465 12.5608 6.54C12.4229 6.63349 12.3076 6.75658 12.2233 6.90029C12.139 7.044 12.0878 7.2047 12.0735 7.3707C12.0592 7.5367 12.082 7.7038 12.1405 7.85983C12.1725 8.0365 12.2413 8.20446 12.3425 8.3528C12.4436 8.50113 12.5748 8.62653 12.7276 8.72084C12.8804 8.81515 13.0513 8.87626 13.2293 8.90021C13.4072 8.92415 13.5882 8.9104 13.7605 8.85983C14.0245 8.76601 14.2567 8.59964 14.4305 8.37983C14.7102 7.99696 14.9263 7.5715 15.0705 7.11983C15.1832 6.79222 15.2767 6.45832 15.3505 6.11983ZM13.6105 7.38983C13.5405 7.53983 13.5105 7.70983 13.3705 7.76983C13.2305 7.82983 13.0005 7.61983 13.0005 7.41983C12.9845 7.34446 12.9971 7.26583 13.036 7.19927C13.0748 7.13272 13.137 7.083 13.2105 7.05983H13.7805C13.7293 7.17258 13.6726 7.28272 13.6105 7.38983Z" fill="#C25B30"/>
<path id="Vector_3" fill-rule="evenodd" clip-rule="evenodd" d="M18.0899 17.7199C17.8499 17.7199 17.6199 17.6599 17.3899 17.6299C17.1639 17.5927 16.9402 17.5427 16.7199 17.4799C16.1099 17.3299 15.5799 17.1699 15.4399 16.8199C15.4283 16.7764 15.4082 16.7357 15.3808 16.7C15.3533 16.6644 15.3191 16.6345 15.28 16.6122C15.2409 16.5899 15.1978 16.5755 15.1532 16.57C15.1085 16.5644 15.0632 16.5678 15.0199 16.5799C14.9768 16.5904 14.9362 16.6094 14.9007 16.6358C14.8651 16.6623 14.8352 16.6957 14.8128 16.7339C14.7904 16.7722 14.7759 16.8146 14.7703 16.8586C14.7646 16.9026 14.7679 16.9472 14.7799 16.9899C14.8829 17.3668 15.0759 17.713 15.3425 17.9987C15.609 18.2844 15.941 18.5011 16.3099 18.6299C16.5844 18.7637 16.8778 18.8547 17.1799 18.8999C17.4852 18.9402 17.7945 18.9402 18.0999 18.8999C18.4639 18.8589 18.8206 18.768 19.1599 18.6299C19.5999 18.2599 19.5299 17.8799 19.1599 17.7299C18.6899 17.8799 18.5499 17.7499 18.0899 17.7199Z" fill="#C25B30"/>
<path id="Vector_4" fill-rule="evenodd" clip-rule="evenodd" d="M22.0002 11.56L21.1502 9.87995C20.7502 9.12995 20.8802 8.58995 20.5402 7.99995C20.1363 7.37211 19.5648 6.86984 18.8902 6.54995C18.8166 6.51684 18.7336 6.51099 18.6561 6.53346C18.5786 6.55593 18.5116 6.60525 18.4671 6.67259C18.4226 6.73994 18.4035 6.82092 18.4132 6.90105C18.423 6.98118 18.4609 7.05523 18.5202 7.10995C19.0127 7.44002 19.4122 7.89111 19.6802 8.41995C19.757 8.68621 19.7908 8.96304 19.7802 9.23995C19.7954 9.62891 19.8695 10.0133 20.0002 10.38C20.1802 10.8 20.3502 11.19 20.5002 11.52C20.6355 11.7934 20.7892 12.0573 20.9602 12.31C21.165 12.5666 21.3855 12.8104 21.6202 13.04C21.7802 13.21 21.9602 13.32 21.9902 13.49C22.0202 13.66 21.9002 13.82 21.6402 14.08L21.1702 14.43C21.0638 14.4895 20.9493 14.5333 20.8302 14.56C20.6871 14.5697 20.5434 14.5697 20.4002 14.56C20.3469 14.5602 20.2943 14.5719 20.246 14.5944C20.1977 14.6168 20.1548 14.6494 20.1202 14.69C20.0373 14.7253 19.9697 14.789 19.9294 14.8695C19.8891 14.9501 19.8788 15.0424 19.9002 15.13C20.0842 16.6902 19.7047 18.2648 18.8302 19.57C18.4534 20.1191 17.9046 20.5272 17.2702 20.73C16.5809 20.9562 15.8495 21.0245 15.1302 20.93C15.044 20.9101 14.9535 20.9252 14.8784 20.9721C14.8034 21.019 14.7501 21.0938 14.7302 21.18C14.7103 21.2661 14.7255 21.3567 14.7724 21.4317C14.8193 21.5067 14.894 21.5601 14.9802 21.58C15.2427 21.6501 15.5101 21.7003 15.7802 21.73C15.7048 21.9558 15.6644 22.1919 15.6602 22.43C15.6887 22.6132 15.7426 22.7916 15.8202 22.96C15.9461 23.1982 16.0864 23.4287 16.2402 23.65C16.2497 23.6991 16.269 23.7458 16.297 23.7873C16.325 23.8288 16.3611 23.8641 16.4032 23.8912C16.4452 23.9184 16.4924 23.9367 16.5417 23.945C16.591 23.9534 16.6416 23.9517 16.6902 23.94C16.7889 23.9161 16.8745 23.8547 16.9286 23.7688C16.9828 23.6829 17.0013 23.5793 16.9802 23.48C16.9955 23.2102 16.9955 22.9397 16.9802 22.67V22.35C16.9529 22.2513 16.9195 22.1545 16.8802 22.06C16.8346 21.9708 16.7845 21.8841 16.7302 21.8C17.0044 21.8032 17.2785 21.7865 17.5502 21.75C18.4585 21.5624 19.2764 21.0724 19.8702 20.36C20.4071 19.5601 20.7496 18.6457 20.8702 17.69C20.9745 16.8959 20.9339 16.0895 20.7502 15.31C20.8667 15.3202 20.9838 15.3202 21.1002 15.31C21.2578 15.2884 21.4122 15.2481 21.5602 15.19L22.3102 14.76C22.5669 14.6144 22.779 14.4014 22.9235 14.1441C23.068 13.8868 23.1395 13.5949 23.1302 13.3C23.0002 12.79 22.4602 12.27 22.0002 11.56Z" fill="#C25B30"/>
<path id="Vector_5" fill-rule="evenodd" clip-rule="evenodd" d="M7.64013 18.4601C7.36332 18.0324 7.11286 17.5882 6.89013 17.1301C6.66115 16.6873 6.48012 16.2213 6.35013 15.7401C6.26196 15.4124 6.20175 15.0779 6.17013 14.7401C6.14032 14.1738 6.14032 13.6063 6.17013 13.0401C6.17808 12.9526 6.15095 12.8655 6.09469 12.7979C6.03843 12.7304 5.95765 12.688 5.87013 12.6801C5.82679 12.6761 5.7831 12.6808 5.74156 12.6937C5.70001 12.7067 5.66143 12.7277 5.628 12.7555C5.56048 12.8118 5.51809 12.8925 5.51013 12.9801C5.38789 13.5613 5.29775 14.1489 5.24013 14.7401C5.20511 15.1593 5.20511 15.5808 5.24013 16.0001C5.33797 16.5936 5.51278 17.1718 5.76013 17.7201C6.01225 18.2528 6.32787 18.7531 6.70013 19.2101C7.33423 19.9893 8.08672 20.6642 8.93013 21.2101C8.90093 21.3018 8.87755 21.3954 8.86013 21.4901C8.82818 21.5938 8.81134 21.7016 8.81013 21.8101V23.0101C8.78228 23.1082 8.79455 23.2134 8.84425 23.3025C8.89395 23.3915 8.977 23.4572 9.07513 23.4851C9.17326 23.5129 9.27843 23.5006 9.36751 23.4509C9.45659 23.4013 9.52228 23.3182 9.55013 23.2201C9.72083 22.924 9.87118 22.6166 10.0001 22.3001C10.0487 22.1676 10.0822 22.03 10.1001 21.8901C10.1201 21.7474 10.1201 21.6027 10.1001 21.4601C9.76013 19.6601 9.46013 21.1901 7.64013 18.4601Z" fill="#C25B30"/>
<path id="Vector_6" fill-rule="evenodd" clip-rule="evenodd" d="M16.6497 10.4802C16.5497 10.4802 16.4397 10.4802 16.3397 10.4202C16.0427 10.3709 15.7656 10.2392 15.5397 10.0402C15.4959 9.96332 15.4234 9.90695 15.3381 9.8835C15.2527 9.86006 15.1616 9.87148 15.0847 9.91524C15.0078 9.959 14.9514 10.0315 14.9279 10.1168C14.9163 10.1591 14.9132 10.2032 14.9186 10.2467C14.924 10.2902 14.938 10.3322 14.9597 10.3702C15.0944 10.8521 15.4048 11.266 15.8297 11.5302C16.0231 11.652 16.2422 11.7273 16.4697 11.7502C16.622 11.7752 16.7774 11.7752 16.9297 11.7502C17.2209 11.6969 17.4967 11.5795 17.7371 11.4065C17.9775 11.2336 18.1765 11.0094 18.3197 10.7502C18.3536 10.7123 18.3794 10.6678 18.3953 10.6195C18.4113 10.5711 18.4171 10.52 18.4124 10.4693C18.4077 10.4187 18.3926 10.3695 18.3681 10.3249C18.3435 10.2803 18.31 10.2413 18.2697 10.2102C18.2352 10.1749 18.194 10.1467 18.1485 10.1275C18.103 10.1083 18.0541 10.0985 18.0047 10.0985C17.9553 10.0985 17.9064 10.1083 17.8609 10.1275C17.8154 10.1467 17.7741 10.1749 17.7397 10.2102C17.592 10.3378 17.4164 10.4288 17.227 10.4757C17.0376 10.5226 16.8398 10.5242 16.6497 10.4802Z" fill="#C25B30"/>
</g>
</g>
</g>
</g>
</g>
</g>
<path d="M341 44.9688V43.9688H-12V44.9688V45.9688H341V44.9688Z" fill="#D6E3E6" mask="url(#path-1-inside-1_23_2)"/>
</g>
</g>
</g>
</g>
</g>
</g>
</g>
</g>

</svg>
