<svg width="24" height="24" viewBox="0 0 24 24" fill="none" xmlns="http://www.w3.org/2000/svg">

<g id="Waldorf Kindergarten &#38; TK in Santa Rosa | Summerfield">

<g id="Body">
<g id="Section">

<g id="Container:margin">
<g id="Container">
<g id="Container_2">
<g id="Container_3">
<g id="Details">
<g>
<mask id="path-1-inside-1_23_2" fill="white">
<path d="M-12 -29.7578H341V45.4844H-12V-29.7578Z"/>
</mask>
<g id="Summary">
<g id="Text">
<g id="Text_2">
<rect x="-8" y="-7.75781" width="40" height="40" rx="20" fill="#2B4236" fill-opacity="0.08"/>
<g id="Adoptation-Heart--Streamline-Freehand">
<g id="Group">
<path id="Vector" fill-rule="evenodd" clip-rule="evenodd" d="M18.2003 17.22C17.9692 17.0654 17.7085 16.9607 17.4348 16.9125C17.161 16.8643 16.8802 16.8737 16.6103 16.94C15.9598 17.0921 15.3384 17.3488 14.7703 17.7C13.7463 18.2957 12.6205 18.6958 11.4503 18.88H11.0703H11.1603L11.7303 18.48C11.8719 18.3762 11.9899 18.2435 12.0764 18.0906C12.1629 17.9378 12.216 17.7683 12.2321 17.5933C12.2481 17.4184 12.2269 17.2421 12.1697 17.076C12.1125 16.91 12.0206 16.758 11.9003 16.63C11.3381 16.099 10.6497 15.7204 9.90025 15.53L8.31025 15.23C7.6483 15.1327 6.97787 15.1058 6.31025 15.15C5.86141 15.2044 5.42125 15.3152 5.00025 15.48C4.78035 15.57 4.56941 15.6805 4.37025 15.81C3.7473 16.3245 3.07773 16.7798 2.37025 17.17C2.18045 17.2357 1.98109 17.2695 1.78025 17.27C1.41025 17.27 1.03025 17.27 0.710252 17.22C0.669507 17.2159 0.628346 17.2199 0.589148 17.2318C0.54995 17.2436 0.513491 17.2631 0.481877 17.2892C0.450264 17.3152 0.424122 17.3472 0.404962 17.3834C0.385803 17.4196 0.374006 17.4593 0.370252 17.5C0.366133 17.5403 0.370183 17.5809 0.382158 17.6195C0.394133 17.6581 0.413786 17.6939 0.439938 17.7247C0.466089 17.7555 0.498199 17.7807 0.53434 17.7988C0.570481 17.817 0.609907 17.8276 0.650252 17.83C0.980252 17.88 1.38025 17.95 1.76025 17.97C2.04551 17.9942 2.33279 17.9706 2.61025 17.9C2.83316 17.8299 3.05044 17.743 3.26025 17.64C3.92295 17.1922 4.62207 16.8009 5.35025 16.47C5.79552 16.3436 6.25757 16.2862 6.72025 16.3C7.21208 16.3057 7.70306 16.3425 8.19025 16.41L9.65025 16.67C10.1178 16.7683 10.5646 16.9476 10.9703 17.2C11.0903 17.28 11.2103 17.35 11.2303 17.48C11.2217 17.6124 11.1648 17.737 11.0703 17.83L10.7903 18.06C10.4483 18.233 10.0799 18.3479 9.70025 18.4C9.06531 18.4578 8.42771 18.4811 7.79025 18.47C7.69648 18.47 7.6064 18.5066 7.53916 18.5719C7.47193 18.6373 7.43286 18.7263 7.43025 18.82C7.43025 18.9129 7.46713 19.0019 7.53276 19.0675C7.5984 19.1332 7.68743 19.17 7.78025 19.17H7.80025C8.98982 19.6569 10.2865 19.8225 11.5603 19.65C12.8405 19.5043 14.0838 19.1282 15.2303 18.54C15.7176 18.2769 16.2445 18.0945 16.7903 18C17.0476 17.9428 17.3172 17.9895 17.5403 18.13C17.5896 18.1784 17.6236 18.2403 17.6378 18.3079C17.652 18.3756 17.6459 18.4459 17.6203 18.51C17.5798 18.7568 17.4803 18.9901 17.3303 19.19C17.0174 19.6261 16.6318 20.005 16.1903 20.31C15.4707 20.8085 14.7153 21.253 13.9303 21.64C13.184 22.0402 12.4044 22.3748 11.6003 22.64C11.086 22.8074 10.5508 22.9017 10.0103 22.92C9.57336 22.9269 9.13714 22.8832 8.71025 22.79C7.63025 22.58 6.58025 22.18 5.51025 21.95C4.68113 21.7984 3.84242 21.7048 3.00025 21.67C2.15784 21.6142 1.31266 21.6142 0.470252 21.67C0.424264 21.6726 0.379232 21.6842 0.337737 21.7042C0.296243 21.7242 0.259102 21.7522 0.228445 21.7865C0.197788 21.8209 0.174216 21.861 0.159082 21.9045C0.143948 21.948 0.137549 21.9941 0.140252 22.04C0.147927 22.1338 0.191986 22.2208 0.263004 22.2825C0.334021 22.3442 0.426356 22.3756 0.520252 22.37C1.3278 22.3405 2.13642 22.3673 2.94025 22.45C3.74458 22.5121 4.54335 22.6324 5.33025 22.81C6.40025 23.08 7.44025 23.53 8.51025 23.81C8.99956 23.9217 9.49859 23.9853 10.0003 24C10.6468 24.0057 11.2906 23.9147 11.9103 23.73C12.7937 23.459 13.6479 23.1006 14.4603 22.66C15.3031 22.2513 16.1123 21.7765 16.8803 21.24C17.422 20.8511 17.8952 20.3746 18.2803 19.83C18.5823 19.3984 18.7494 18.8868 18.7603 18.36C18.765 18.1391 18.7167 17.9202 18.6192 17.7218C18.5217 17.5234 18.3781 17.3513 18.2003 17.22Z" fill="#2B4236"/>
<path id="Vector_2" fill-rule="evenodd" clip-rule="evenodd" d="M23.8103 4.62018C23.7496 4.18526 23.6492 3.7568 23.5103 3.34018C23.4031 3.01958 23.2623 2.7112 23.0903 2.42018C22.9099 2.13153 22.6986 1.86329 22.4603 1.62018C22.268 1.42126 22.0608 1.23739 21.8403 1.07018C21.6257 0.899812 21.3983 0.746034 21.1603 0.610178C20.5739 0.260766 19.9135 0.0542578 19.2326 0.0073529C18.5516 -0.039552 17.8691 0.0744631 17.2403 0.340178C15.7503 1.03758 14.4375 2.06321 13.4003 3.34018C12.9491 2.73845 12.4363 2.18546 11.8703 1.69018C11.3332 1.22935 10.721 0.864057 10.0603 0.610178C9.28654 0.308907 8.45214 0.196214 7.62615 0.281421C6.80016 0.366628 6.00633 0.647287 5.31033 1.10018C4.64461 1.56106 4.08088 2.15403 3.65422 2.84219C3.22756 3.53034 2.94712 4.29895 2.83033 5.10018C2.6494 6.52256 2.9261 7.96561 3.62033 9.22018C4.62893 11.0103 5.95368 12.6027 7.53033 13.9202C7.55829 13.9489 7.59172 13.9717 7.62865 13.9873C7.66557 14.0029 7.70525 14.011 7.74533 14.011C7.78542 14.011 7.8251 14.0029 7.86202 13.9873C7.89895 13.9717 7.93238 13.9489 7.96033 13.9202C7.99037 13.893 8.01437 13.8598 8.0308 13.8228C8.04723 13.7858 8.05572 13.7457 8.05572 13.7052C8.05572 13.6647 8.04723 13.6246 8.0308 13.5876C8.01437 13.5505 7.99037 13.5174 7.96033 13.4902C6.47817 12.1888 5.24774 10.6262 4.33033 8.88018C3.74998 7.76818 3.53978 6.49995 3.73033 5.26018C3.85286 4.59953 4.10728 3.97036 4.4784 3.41025C4.84952 2.85013 5.32973 2.37056 5.89033 2.00018C6.45025 1.65516 7.08446 1.44884 7.7402 1.3984C8.39594 1.34796 9.05424 1.45485 9.66033 1.71018C10.1921 1.91965 10.6828 2.2209 11.1103 2.60018C11.7799 3.20894 12.3802 3.88973 12.9003 4.63018C12.9555 4.70083 13.0261 4.75799 13.1066 4.79729C13.1872 4.8366 13.2757 4.85703 13.3653 4.85703C13.455 4.85703 13.5435 4.8366 13.624 4.79729C13.7046 4.75799 13.7752 4.70083 13.8303 4.63018C14.8371 3.26515 16.153 2.15821 17.6703 1.40018C18.1388 1.19124 18.6497 1.09506 19.162 1.11937C19.6743 1.14369 20.1738 1.28781 20.6203 1.54018L21.2003 1.91018C21.3792 2.0426 21.5496 2.18622 21.7103 2.34018C21.8994 2.53986 22.0639 2.76144 22.2003 3.00018C22.3427 3.21978 22.4601 3.45456 22.5503 3.70018C22.6776 4.05394 22.7714 4.41888 22.8303 4.79018C22.8901 5.1706 22.9202 5.55509 22.9203 5.94018C22.8963 7.29827 22.4984 8.62346 21.7703 9.77018C20.6025 11.5385 19.1958 13.137 17.5903 14.5202C17.5256 14.5873 17.4894 14.6769 17.4894 14.7702C17.4894 14.8634 17.5256 14.9531 17.5903 15.0202C17.6558 15.0843 17.7437 15.1202 17.8353 15.1202C17.9269 15.1202 18.0149 15.0843 18.0803 15.0202C19.7718 13.6251 21.2625 12.0031 22.5103 10.2002C23.3618 8.93011 23.8431 7.44818 23.9003 5.92018C23.8957 5.48546 23.8657 5.05139 23.8103 4.62018Z" fill="#2B4236"/>
<path id="Vector_3" fill-rule="evenodd" clip-rule="evenodd" d="M10.4106 12.1104C10.215 12.3323 10.0377 12.5697 9.88058 12.8204C9.84324 12.8868 9.83168 12.9647 9.84812 13.0391C9.86455 13.1135 9.90783 13.1793 9.96969 13.2238C10.0315 13.2684 10.1076 13.2886 10.1834 13.2805C10.2592 13.2725 10.3294 13.2369 10.3806 13.1804C10.5489 12.9887 10.7328 12.8114 10.9306 12.6504C11.1284 12.5017 11.3393 12.3712 11.5606 12.2604C11.7406 12.1704 11.9506 12.0804 12.1606 12.0004C12.3379 11.9367 12.5228 11.8963 12.7106 11.8804C13.144 11.8155 13.5866 11.8567 14.0006 12.0004C14.2736 12.0863 14.5329 12.2109 14.7706 12.3704C15.4037 12.8407 15.867 13.504 16.0906 14.2604C16.1017 14.305 16.1216 14.347 16.149 14.384C16.1764 14.421 16.2108 14.4522 16.2503 14.4759C16.2897 14.4996 16.3335 14.5152 16.379 14.522C16.4245 14.5288 16.4709 14.5265 16.5156 14.5154C16.5602 14.5042 16.6022 14.4844 16.6392 14.457C16.6762 14.4296 16.7074 14.3951 16.7311 14.3557C16.7548 14.3162 16.7705 14.2725 16.7772 14.227C16.784 14.1814 16.7817 14.135 16.7706 14.0904C16.6284 13.1144 16.1596 12.2155 15.4406 11.5404C15.2104 11.3286 14.9469 11.1563 14.6606 11.0304C15.0707 10.8112 15.4093 10.4789 15.6362 10.0729C15.8631 9.66703 15.9687 9.20454 15.9406 8.74037C15.9584 8.68169 15.9584 8.61905 15.9406 8.56037C15.9766 8.52035 16.0011 8.47138 16.0117 8.41859C16.0223 8.36581 16.0184 8.31116 16.0006 8.26037C15.955 7.91661 15.8642 7.58037 15.7306 7.26037C15.6326 7.02161 15.4938 6.80168 15.3206 6.61037C15.0629 6.341 14.7521 6.12812 14.4078 5.98524C14.0635 5.84236 13.6933 5.77259 13.3206 5.78037C12.9236 5.77743 12.5307 5.85984 12.1684 6.02202C11.806 6.1842 11.4828 6.42236 11.2206 6.72037C11.0032 6.9831 10.8462 7.29033 10.7606 7.62037C10.6052 8.06293 10.5405 8.53228 10.5706 9.00037C10.6084 9.40937 10.7422 9.80366 10.9612 10.1512C11.1801 10.4987 11.478 10.7897 11.8306 11.0004C11.567 11.1381 11.316 11.2987 11.0806 11.4804C10.8359 11.6664 10.6113 11.8775 10.4106 12.1104ZM11.7706 8.11037C11.8114 7.87162 11.9073 7.64565 12.0506 7.45037C12.1987 7.25792 12.3856 7.0988 12.5993 6.98337C12.8129 6.86793 13.0484 6.79877 13.2906 6.78037C13.5468 6.74178 13.8083 6.75745 14.0581 6.82635C14.3079 6.89526 14.5404 7.01587 14.7406 7.18037C14.9041 7.32978 15.0366 7.50986 15.1306 7.71037C15.2311 7.93517 15.3082 8.16975 15.3606 8.41037C15.3562 8.43014 15.3562 8.45061 15.3606 8.47037C15.314 8.50065 15.2759 8.54219 15.2497 8.59114C15.2235 8.64008 15.21 8.69485 15.2106 8.75037C15.1898 9.21015 14.9897 9.64349 14.6533 9.95752C14.3168 10.2716 13.8707 10.4413 13.4106 10.4304C13.1998 10.4453 12.9882 10.4177 12.7882 10.3494C12.5883 10.2811 12.4041 10.1733 12.2465 10.0325C12.0889 9.89172 11.9612 9.72075 11.8708 9.52973C11.7805 9.3387 11.7294 9.13149 11.7206 8.92037C11.6988 8.63608 11.7156 8.35015 11.7706 8.07037V8.11037Z" fill="#2B4236"/>
</g>
</g>
</g>
</g>
</g>
</g>
<path d="M341 45.4844V44.4844H-12V45.4844V46.4844H341V45.4844Z" fill="#D6E3E6" mask="url(#path-1-inside-1_23_2)"/>
</g>
</g>
</g>
</g>
</g>
</g>
</g>
</g>

</svg>
