<svg width="40" height="40" viewBox="0 0 40 40" fill="none" xmlns="http://www.w3.org/2000/svg">

<g id="Waldorf Kindergarten &#38; TK in Santa Rosa | Summerfield">

<g id="Body">
<g id="Section">

<g id="Container:margin">
<g id="Container">
<g id="Container_2">
<g id="Container_3">
<g id="Details">
<g>
<mask id="path-1-inside-1_23_2" fill="white">
<path d="M-4 -22H349V54.2422H-4V-22Z"/>
</mask>
<g id="Summary">
<g id="Text">
<g id="Text_2">
<rect width="40" height="40" rx="20" fill="#9E4423" fill-opacity="0.08"/>
<g id="Group">
<path id="Vector" d="M31.9997 22.6102C32.0971 19.6927 31.9465 16.7722 31.5497 13.8802C31.5654 13.6738 31.5654 13.4666 31.5497 13.2602C31.4097 12.5902 29.3997 12.2602 28.5497 12.1802C28.4716 12.1717 28.3933 12.1942 28.3316 12.2428C28.2699 12.2914 28.2297 12.3623 28.2197 12.4402C28.1697 13.1002 29.2197 12.4402 30.8297 13.4402C30.8098 14.1509 30.8668 14.8617 30.9997 15.5602C31.2397 17.8002 31.1097 19.3502 30.9997 25.3002C29.8115 25.0416 28.5943 24.9407 27.3797 25.0002C25.115 24.9845 22.9031 25.6844 21.0597 27.0002C21.7397 24.3602 23.3997 23.6502 25.7397 22.8102C26.0048 22.7271 26.2821 22.6899 26.5597 22.7002C26.6139 22.8229 26.7097 22.9226 26.8301 22.9816C26.9505 23.0407 27.0879 23.0554 27.2181 23.0231C27.3483 22.9909 27.463 22.9137 27.5419 22.8053C27.6209 22.6968 27.659 22.564 27.6497 22.4302C27.2697 12.3202 27.6497 10.9002 27.4897 9.96021C27.3297 9.02021 26.6497 8.91021 25.6997 8.77021C24.5328 8.64783 23.3544 8.8402 22.2869 9.32732C21.2195 9.81444 20.302 10.5785 19.6297 11.5402C19.5497 11.7102 19.0797 12.7502 19.0397 12.8602C18.3573 12.3389 17.5687 11.9736 16.7297 11.7902C14.5756 11.3123 12.3205 11.6697 10.4197 12.7902C10.0493 13.0308 9.73211 13.3449 9.48787 13.713C9.24363 14.0811 9.07748 14.4954 8.99971 14.9302C8.11971 18.4902 7.58971 19.5402 8.40971 27.1102C8.40971 27.4202 8.40971 27.9002 8.70971 28.1902C8.77695 28.2463 8.85565 28.287 8.9403 28.3095C9.02495 28.332 9.11349 28.3356 9.19971 28.3202V29.0902C9.32971 30.8902 11.7197 29.7902 14.3497 29.5702C16.5297 29.4002 16.7697 29.8702 18.6997 30.9902C19.4942 31.2889 20.3552 31.365 21.1897 31.2102C21.8737 31.1075 22.5224 30.8398 23.0797 30.4302C29.6697 25.5802 29.4397 31.2502 30.9797 27.1802C31.051 26.9942 31.0948 26.7988 31.1097 26.6002C31.1873 26.6512 31.2769 26.6809 31.3696 26.6863C31.4622 26.6918 31.5547 26.6728 31.6378 26.6313C31.7208 26.5898 31.7915 26.5272 31.8427 26.4498C31.8939 26.3724 31.9239 26.2829 31.9297 26.1902C32.0216 24.9992 32.045 23.8039 31.9997 22.6102ZM19.8797 13.3902C22.8797 7.75021 26.5997 10.2302 26.7597 10.3902C26.8397 10.6902 26.3897 17.4702 26.3697 18.0902L26.4597 21.5402C25.3504 21.6592 24.2782 22.0089 23.3121 22.5669C22.3459 23.1249 21.5072 23.8788 20.8497 24.7802C20.3497 25.6402 20.5197 25.7302 20.4297 25.1602C20.4097 25.0602 19.8397 13.4702 19.8797 13.3902ZM9.07971 17.7302C9.36971 16.6202 9.72971 13.8002 10.6897 13.4802C13.4897 12.5402 16.2897 12.3102 18.8897 13.7302C19.1982 14.5887 19.3375 15.4988 19.2997 16.4102C19.2997 18.4602 19.3597 24.6502 19.5997 26.5102C18.0078 25.7843 16.2679 25.4418 14.5197 25.5102C13.1369 25.6331 11.7846 25.988 10.5197 26.5602C10.3997 26.5602 9.83971 27.1302 9.43971 27.3502C9.43971 27.2102 9.32971 27.0502 9.31971 26.9702C8.99971 24.2502 8.52971 20.6702 9.07971 17.7302ZM29.6397 27.5602C26.7597 26.4102 24.4697 28.0402 22.4297 29.5002C21.9937 29.7919 21.5026 29.9912 20.9867 30.0858C20.4707 30.1804 19.9408 30.1683 19.4297 30.0502C15.5597 27.3102 14.0597 28.6202 10.5597 29.1502C10.3797 29.1502 10.2397 29.2402 10.1497 29.1502C10.0597 29.0602 9.95971 28.4802 9.72971 28.1502C10.1597 27.9302 10.7297 27.5802 10.8697 27.5402C12.3397 27.0802 13.9997 26.0002 17.5997 27.0002C20.2597 27.6902 20.1197 28.8502 21.0197 28.3602C22.3597 27.6402 24.2897 25.4802 30.3297 26.2102C30.2691 26.2831 30.2371 26.3755 30.2397 26.4702C29.6497 27.5302 29.6797 27.4602 29.6397 27.5602Z" fill="#9E4423"/>
<path id="Vector_2" d="M11.6501 17.0001C12.6501 16.8601 12.5701 16.3701 13.8901 16.3701C14.626 16.4235 15.352 16.5714 16.0501 16.8101C16.2401 16.7401 16.3801 16.6601 16.3801 16.4701C16.3801 16.0401 15.7801 15.6001 14.8701 15.4701C12.2401 14.9801 11.9901 16.2401 11.4901 16.4701C11.4445 16.5077 11.4109 16.558 11.3938 16.6146C11.3766 16.6713 11.3766 16.7317 11.3937 16.7884C11.4108 16.845 11.4442 16.8954 11.4899 16.933C11.5355 16.9707 11.5913 16.994 11.6501 17.0001Z" fill="#9E4423"/>
<path id="Vector_3" d="M11.6499 20.53C12.6499 20.39 12.5699 19.9 13.8899 19.9C14.6258 19.9534 15.3518 20.1013 16.0499 20.34C16.2399 20.28 16.3799 20.19 16.3799 20C16.3799 19.57 15.7799 19.14 14.8699 19C12.2399 18.51 11.9899 19.76 11.4899 20C11.4407 19.995 11.3911 20.0021 11.3454 20.0209C11.2997 20.0396 11.2593 20.0694 11.2278 20.1075C11.1964 20.1456 11.1748 20.1909 11.1651 20.2393C11.1553 20.2878 11.1577 20.3379 11.172 20.3852C11.1863 20.4325 11.212 20.4755 11.2469 20.5105C11.2818 20.5454 11.3249 20.5712 11.3721 20.5856C11.4194 20.5999 11.4695 20.6023 11.518 20.5927C11.5664 20.583 11.6118 20.5615 11.6499 20.53Z" fill="#9E4423"/>
<path id="Vector_4" d="M11.6493 24.1004C12.6493 23.9604 12.5693 23.4704 13.8893 23.4704C14.6244 23.5294 15.3497 23.6772 16.0493 23.9104C16.2393 23.8504 16.3793 23.7604 16.3793 23.5804C16.3793 23.1404 15.7793 22.7104 14.8693 22.5804C12.2393 22.0904 11.9893 23.3504 11.4893 23.5804C11.4394 23.5736 11.3885 23.5794 11.3414 23.5974C11.2943 23.6154 11.2525 23.6449 11.2199 23.6833C11.1872 23.7218 11.1648 23.7678 11.1546 23.8172C11.1444 23.8665 11.1469 23.9177 11.1617 23.9659C11.1765 24.0141 11.2033 24.0577 11.2394 24.0929C11.2756 24.128 11.32 24.1534 11.3686 24.1668C11.4172 24.1802 11.4684 24.1812 11.5175 24.1696C11.5665 24.158 11.6119 24.1342 11.6493 24.1004Z" fill="#9E4423"/>
</g>
</g>
</g>
</g>
</g>
<path d="M349 54.2422V53.2422H-4V54.2422V55.2422H349V54.2422Z" fill="#D6E3E6" mask="url(#path-1-inside-1_23_2)"/>
</g>
</g>
</g>
</g>
</g>
</g>
</g>
</g>

</svg>
