<svg width="24" height="24" viewBox="0 0 24 24" fill="none" xmlns="http://www.w3.org/2000/svg">

<g id="Waldorf Kindergarten &#38; TK in Santa Rosa | Summerfield">

<g id="Body">
<g id="Section">

<g id="Container:margin">
<g id="Container">
<g id="Container_2">
<g id="Container_3">
<g id="Details">
<g>
<mask id="path-1-inside-1_23_2" fill="white">
<path d="M-12 -30.0312H341V45.2109H-12V-30.0312Z"/>
</mask>
<g id="Summary">
<g id="Text">
<g id="Text_2">
<rect x="-8" y="-8.03125" width="40" height="40" rx="20" fill="#8FAB90" fill-opacity="0.08"/>
<g id="Select-Touch-Finger--Streamline-Freehand">
<g id="Group">
<path id="Vector" fill-rule="evenodd" clip-rule="evenodd" d="M19.6591 16.15C19.2211 15.4368 18.5271 14.9181 17.7191 14.7C16.7776 14.4743 15.7925 14.5089 14.8691 14.8C14.58 12.7327 14.0115 10.7142 13.1791 8.79997C12.5591 7.69997 11.7691 7.38997 10.9991 7.93997C10.6993 8.18478 10.477 8.51131 10.3591 8.87997C10.1725 9.53138 10.0651 10.2029 10.0391 10.88C10.0416 12.774 10.1786 14.6654 10.4491 16.54C10.1096 16.2657 9.74458 16.0246 9.3591 15.82C8.3591 15.33 7.3591 15.31 6.9491 15.96C6.74029 16.267 6.60622 16.6186 6.5576 16.9868C6.50898 17.3549 6.54717 17.7293 6.6691 18.08C7.24308 19.4127 7.97499 20.6717 8.84911 21.83C9.36653 22.5256 9.92065 23.1933 10.5091 23.83C10.571 23.8957 10.6479 23.9455 10.7332 23.9751C10.8186 24.0047 10.9098 24.0132 10.9991 24C11.0427 23.9878 11.0831 23.9666 11.1179 23.9377C11.1526 23.9087 11.1809 23.8728 11.2007 23.8322C11.2206 23.7915 11.2316 23.7472 11.233 23.702C11.2345 23.6568 11.2263 23.6118 11.2091 23.57C10.5518 22.9387 9.96508 22.2379 9.4591 21.48C8.80147 20.4831 8.20374 19.4479 7.6691 18.38C7.50111 18.0952 7.4125 17.7706 7.4125 17.44C7.4125 17.1093 7.50111 16.7847 7.6691 16.5C7.7691 16.37 7.9391 16.38 8.1091 16.41C8.52409 16.5078 8.91518 16.688 9.2591 16.94C9.93911 17.4 10.5891 18.01 10.6691 18.39C10.7491 18.77 11.8291 19.2 11.7291 18.16C11.7291 18.05 11.7291 17.81 11.6591 17.49C11.3773 15.3383 11.2403 13.17 11.2491 11C11.2668 10.5806 11.3136 10.1629 11.3891 9.74997C11.4069 9.45282 11.519 9.16908 11.7091 8.93997C11.7249 8.92781 11.7442 8.92121 11.7641 8.92121C11.784 8.92121 11.8033 8.92781 11.8191 8.93997C11.8867 8.99943 11.9471 9.06655 11.9991 9.13997C12.3332 9.65396 12.5925 10.2129 12.7691 10.8C13.2672 12.3676 13.6548 13.9682 13.9291 15.59C13.9442 15.669 13.9761 15.7438 14.0227 15.8094C14.0693 15.875 14.1294 15.9297 14.1991 15.97C14.2719 16.0069 14.3525 16.0261 14.4341 16.0261C14.5158 16.0261 14.5963 16.0069 14.6691 15.97C15.4001 15.642 16.1992 15.4946 16.9991 15.54C17.3776 15.5652 17.7452 15.6776 18.0731 15.8684C18.4009 16.0592 18.6802 16.3233 18.8891 16.64C19.1875 17.2052 19.3226 17.8423 19.2791 18.48C19.2401 19.5441 19.1466 20.6054 18.9991 21.66C18.9838 21.8619 18.9537 22.0624 18.9091 22.26C18.8391 22.58 18.7591 22.89 18.6791 23.18C18.6654 23.2246 18.6607 23.2715 18.6654 23.318C18.67 23.3645 18.684 23.4096 18.7063 23.4506C18.7287 23.4916 18.7591 23.5277 18.7956 23.5568C18.8321 23.5859 18.8741 23.6074 18.9191 23.62C19.0093 23.645 19.1056 23.6339 19.1877 23.5891C19.2699 23.5443 19.3313 23.4693 19.3591 23.38C19.4491 23.07 19.5491 22.75 19.6291 22.38C19.7091 22.01 19.7191 21.92 19.7491 21.7C19.9766 20.4389 20.1003 19.1613 20.1191 17.88C20.1061 17.2748 19.9484 16.6816 19.6591 16.15Z" fill="#5A8C7C"/>
<path id="Vector_2" fill-rule="evenodd" clip-rule="evenodd" d="M9.80934 1.9999C9.79402 2.18959 9.79402 2.38021 9.80934 2.5699C9.80934 2.8199 9.87934 3.0199 9.88934 3.1099C9.89934 3.1999 10.0593 3.8699 10.1193 4.1099C10.2593 4.6499 10.8793 4.2999 10.8593 4.1799C10.8642 4.15682 10.8642 4.13298 10.8593 4.1099C10.8649 4.08689 10.8649 4.06291 10.8593 4.0399C10.8593 3.8099 10.9293 3.2599 10.9593 3.1099C10.9708 2.91007 10.9708 2.70973 10.9593 2.5099C10.9838 2.34096 10.9972 2.17059 10.9993 1.9999C10.5993 -0.4601 10.5993 -9.96403e-05 10.2793 -9.96403e-05C9.95934 -9.96403e-05 9.99934 -0.2501 9.80934 1.9999Z" fill="#5A8C7C"/>
<path id="Vector_3" fill-rule="evenodd" clip-rule="evenodd" d="M7.44955 9.36985C7.44955 9.27985 7.37955 9.07985 7.05955 8.92985C6.73722 8.79864 6.40207 8.70145 6.05955 8.63985C5.91973 8.63003 5.77938 8.63003 5.63955 8.63985C5.4866 8.62461 5.33251 8.62461 5.17955 8.63985C4.73463 8.6892 4.31913 8.88638 3.99955 9.19985C3.75955 9.57985 3.99955 9.64985 5.38955 9.78985C5.58593 9.80486 5.78317 9.80486 5.97955 9.78985C7.07955 9.71985 7.44955 9.77985 7.44955 9.36985Z" fill="#5A8C7C"/>
<path id="Vector_4" fill-rule="evenodd" clip-rule="evenodd" d="M5.32955 4.51986C5.58955 4.68986 5.77955 4.88986 6.00955 5.04986C6.23955 5.20986 6.51955 5.35986 6.78955 5.53986C7.06645 5.73119 7.37952 5.8639 7.70955 5.92986C7.75683 5.92986 7.80364 5.92055 7.84732 5.90246C7.891 5.88437 7.93068 5.85785 7.96411 5.82442C7.99754 5.79099 8.02406 5.75131 8.04215 5.70763C8.06024 5.66395 8.06955 5.61714 8.06955 5.56986C8.06165 5.44521 8.00828 5.32778 7.91955 5.23986C7.81955 5.10986 7.48955 4.91986 7.39955 4.81986C7.1969 4.5645 6.97274 4.32697 6.72955 4.10986C6.4571 3.90073 6.15775 3.72919 5.83955 3.59986C5.66955 3.53986 4.96955 3.14986 4.58955 3.26986C4.48955 3.26986 4.27955 3.54986 4.58955 3.85986C4.67955 3.99986 5.13955 4.35986 5.32955 4.51986Z" fill="#5A8C7C"/>
<path id="Vector_5" fill-rule="evenodd" clip-rule="evenodd" d="M14.4793 5.22985C14.6693 5.10985 15.0193 5.02985 15.3693 4.81985C15.574 4.70203 15.7595 4.55365 15.9193 4.37985C16.1079 4.21667 16.2578 4.01355 16.3581 3.78523C16.4585 3.55691 16.5067 3.30912 16.4993 3.05985C16.4994 2.96608 16.4628 2.87599 16.3975 2.80876C16.3321 2.74153 16.2431 2.70245 16.1493 2.69985C15.8793 2.69985 16.3093 2.61985 15.0293 3.58985C14.9225 3.66467 14.8222 3.7483 14.7293 3.83985C14.4476 4.13881 14.2087 4.47534 14.0193 4.83985C13.9903 4.86866 13.9673 4.90294 13.9515 4.94069C13.9358 4.97845 13.9277 5.01895 13.9277 5.05985C13.9277 5.10075 13.9358 5.14124 13.9515 5.179C13.9673 5.21676 13.9903 5.25103 14.0193 5.27985C14.0524 5.3077 14.0908 5.32856 14.1322 5.34117C14.1735 5.35377 14.217 5.35786 14.26 5.35319C14.303 5.34852 14.3446 5.33518 14.3823 5.31398C14.42 5.29278 14.453 5.26416 14.4793 5.22985Z" fill="#5A8C7C"/>
<path id="Vector_6" fill-rule="evenodd" clip-rule="evenodd" d="M15.6396 9.18014C15.6396 9.69014 15.7896 9.51014 16.8696 9.69014C17.1261 9.70533 17.3832 9.70533 17.6396 9.69014C18.0196 9.61014 18.3396 9.45014 18.7196 9.37014C18.8036 9.356 18.8798 9.31259 18.9347 9.2476C18.9897 9.18261 19.0199 9.10025 19.0199 9.01514C19.0199 8.93003 18.9897 8.84767 18.9347 8.78268C18.8798 8.71769 18.8036 8.67427 18.7196 8.66014C18.3235 8.56433 17.9172 8.51732 17.5096 8.52014C17.2608 8.54548 17.0137 8.58555 16.7696 8.64014C16.6296 8.69014 16.1496 8.87014 15.9596 8.96014C15.7696 9.05014 15.6396 9.15014 15.6396 9.18014Z" fill="#5A8C7C"/>
</g>
</g>
</g>
</g>
</g>
</g>
<path d="M341 45.2109V44.2109H-12V45.2109V46.2109H341V45.2109Z" fill="#D6E3E6" mask="url(#path-1-inside-1_23_2)"/>
</g>
</g>
</g>
</g>
</g>
</g>
</g>
</g>

</svg>
