<svg width="24" height="24" viewBox="0 0 24 24" fill="none" xmlns="http://www.w3.org/2000/svg">

<g id="Waldorf Kindergarten &#38; TK in Santa Rosa | Summerfield">

<g id="Body">
<g id="Section">

<g id="Container:margin">
<g id="Container">
<g id="Container_2">
<g id="Container_3">
<g id="Details">
<g>
<mask id="path-1-inside-1_23_2" fill="white">
<path d="M-12 -29.5156H341V45.7266H-12V-29.5156Z"/>
</mask>
<g id="Summary">
<g id="Text">
<g id="Text_2">
<rect x="-8" y="-7.51562" width="40" height="40" rx="20" fill="#5A7A61" fill-opacity="0.08"/>
<g id="Messages-Bubble-Smile--Streamline-Freehand">
<g id="Group">
<path id="Vector" d="M24 9.60001C23.91 7.60001 22.39 4.78001 19.81 2.72001C17.654 0.978624 14.9713 0.0197515 12.2 1.44963e-05C9.24182 -0.05894 6.36067 0.945206 4.07997 2.83001C1.80094 4.74025 0.36427 7.46992 0.0799664 10.43C-0.100034 13.49 0.379966 15.28 1.44997 16.51C2.51997 17.74 4.38997 18.51 6.92997 19.36C7.01997 19.36 7.04997 19.51 7.09997 19.66C7.21381 20.1704 7.21381 20.6996 7.09997 21.21C6.98495 21.9695 6.67485 22.6862 6.19997 23.29C6.15054 23.355 6.12063 23.4327 6.11372 23.514C6.10681 23.5953 6.12319 23.6769 6.16095 23.7493C6.1987 23.8216 6.25627 23.8818 6.32693 23.9226C6.39759 23.9635 6.47842 23.9834 6.55997 23.98C6.85416 23.9867 7.14842 23.97 7.43997 23.93C8.69617 23.8035 9.91038 23.4079 11 22.77C11.3725 22.4974 11.7086 22.1781 12 21.82C12.69 20.98 13.28 19.92 13.62 19.48C14.03 19.48 15.02 19.48 16.06 19.35C16.6526 19.2891 17.2406 19.1889 17.82 19.05C19.8265 18.5095 21.5594 17.2401 22.68 15.49C23.7162 13.7095 24.1772 11.6524 24 9.60001ZM22 15.08C21.0169 16.6924 19.4646 17.8771 17.65 18.4C17.1047 18.5425 16.5499 18.6461 15.99 18.71C14.67 18.87 13.59 18.64 13.26 18.88C12.93 19.12 12.34 20.21 11.7 21.04C11.394 21.4652 11.0266 21.8426 10.61 22.16C9.61336 22.7283 8.50366 23.0697 7.35997 23.16C7.73837 22.4313 7.95658 21.63 7.99997 20.81C8.05966 20.2732 7.99815 19.7299 7.81997 19.22C7.771 19.0636 7.68831 18.9199 7.57772 18.7989C7.46714 18.678 7.33136 18.5828 7.17997 18.52C4.84997 17.67 3.17997 17.06 2.17997 15.86C1.17997 14.66 0.929966 13.18 1.17997 10.5C1.47537 7.83912 2.8041 5.40071 4.87997 3.71001C6.96486 2.00589 9.58772 1.09852 12.28 1.15001C14.7971 1.14814 17.2417 1.99352 19.22 3.55001C21.57 5.37001 23.03 7.85001 23.15 9.65001C23.3193 11.5417 22.8965 13.4392 21.94 15.08H22Z" fill="#5A7A61"/>
<path id="Vector_2" d="M7.68967 6.99982C8.02463 6.97405 8.36156 6.99764 8.68967 7.06982C9.05889 7.12383 9.40843 7.27046 9.70569 7.49602C10.003 7.72159 10.2383 8.01876 10.3897 8.35982C10.4152 8.4458 10.4736 8.51822 10.5523 8.5613C10.631 8.60437 10.7235 8.61463 10.8097 8.58982C10.8891 8.55451 10.9525 8.49094 10.9876 8.41146C11.0227 8.33199 11.027 8.24229 10.9997 8.15982C10.8795 7.64747 10.6241 7.17677 10.26 6.79683C9.89585 6.41689 9.43644 6.14164 8.92967 5.99982C8.08816 5.72247 7.17439 5.76158 6.35967 6.10982C5.88139 6.30506 5.45867 6.61529 5.12899 7.013C4.7993 7.41072 4.57284 7.88363 4.46967 8.38982C4.45734 8.42788 4.45275 8.46803 4.45618 8.5079C4.4596 8.54777 4.47097 8.58655 4.4896 8.62195C4.50824 8.65736 4.53377 8.68869 4.56469 8.71408C4.59562 8.73947 4.63131 8.75842 4.66967 8.76982C4.73941 8.78062 4.81073 8.76649 4.87109 8.72991C4.93145 8.69333 4.97697 8.63664 4.99967 8.56982C5.15737 8.22114 5.39241 7.91296 5.68697 7.66865C5.98152 7.42435 6.32784 7.25033 6.69967 7.15982C7.02247 7.06884 7.35464 7.01516 7.68967 6.99982Z" fill="#5A7A61"/>
<path id="Vector_3" d="M17.6802 5.90021C17.2726 5.74177 16.8373 5.66695 16.4002 5.68021C15.9606 5.68153 15.5255 5.7699 15.1202 5.94021C14.6644 6.1411 14.2565 6.43672 13.9237 6.80742C13.591 7.17812 13.3409 7.61541 13.1902 8.09021C13.1623 8.16484 13.1632 8.24719 13.1928 8.32117C13.2224 8.39515 13.2785 8.45542 13.3502 8.49021C13.4232 8.52018 13.505 8.5202 13.578 8.49025C13.651 8.46031 13.7093 8.40281 13.7402 8.33021C14.1288 7.67234 14.7612 7.19438 15.5002 7.00021C15.8002 6.91548 16.1088 6.86516 16.4202 6.85021C16.946 6.79713 17.4753 6.90678 17.9368 7.16431C18.3982 7.42185 18.7694 7.81486 19.0002 8.29021C19.0338 8.37373 19.0982 8.44111 19.1801 8.47835C19.2621 8.5156 19.3552 8.51984 19.4402 8.49021C19.4824 8.47465 19.521 8.45088 19.554 8.42028C19.5869 8.38968 19.6134 8.35285 19.632 8.31194C19.6506 8.27102 19.6609 8.22682 19.6623 8.18189C19.6637 8.13697 19.6562 8.09221 19.6402 8.05021C19.5052 7.56316 19.2574 7.11474 18.9169 6.74123C18.5764 6.36772 18.1527 6.07961 17.6802 5.90021Z" fill="#5A7A61"/>
<path id="Vector_4" d="M17.4403 11.8499C17.3976 11.8359 17.3526 11.8305 17.3078 11.834C17.263 11.8375 17.2194 11.8498 17.1794 11.8703C17.1394 11.8907 17.1039 11.9189 17.0749 11.9532C17.0458 11.9874 17.0239 12.0271 17.0103 12.0699C16.7602 12.5799 16.3903 13.0219 15.9323 13.358C15.4744 13.694 14.9418 13.9143 14.3803 13.9999C13.6065 14.1772 12.8138 14.2578 12.0203 14.2399C11.4262 14.231 10.834 14.1708 10.2503 14.0599C8.74027 13.7599 7.44027 13.1299 7.10027 11.9399C7.08131 11.8632 7.03287 11.7971 6.96547 11.7559C6.89807 11.7147 6.81715 11.7018 6.74027 11.7199C6.70179 11.727 6.66515 11.7418 6.63255 11.7635C6.59995 11.7851 6.57206 11.8131 6.55058 11.8458C6.52909 11.8785 6.51444 11.9152 6.50751 11.9537C6.50058 11.9923 6.50152 12.0318 6.51027 12.0699C6.76027 13.5599 8.19027 14.6399 10.0103 15.1199C10.6632 15.2921 11.335 15.3828 12.0103 15.3899C12.6831 15.3931 13.3542 15.3193 14.0103 15.1699C15.8003 14.7399 17.2703 13.7499 17.6603 12.2699C17.6855 12.185 17.6766 12.0937 17.6356 12.0152C17.5945 11.9368 17.5244 11.8775 17.4403 11.8499Z" fill="#5A7A61"/>
</g>
</g>
</g>
</g>
</g>
</g>
<path d="M341 45.7266V44.7266H-12V45.7266V46.7266H341V45.7266Z" fill="#D6E3E6" mask="url(#path-1-inside-1_23_2)"/>
</g>
</g>
</g>
</g>
</g>
</g>
</g>
</g>

</svg>
