<svg width="24" height="24" viewBox="0 0 24 24" fill="none" xmlns="http://www.w3.org/2000/svg">

<g id="Waldorf Kindergarten &#38; TK in Santa Rosa | Summerfield">

<g id="Body">
<g id="Section">

<g id="Container:margin">
<g id="Container">
<g id="Container_2">
<g id="Container_3">
<g id="Details">
<g>
<mask id="path-1-inside-1_23_2" fill="white">
<path d="M-12 -30.5469H341V44.6953H-12V-30.5469Z"/>
</mask>
<g id="Summary">
<g id="Text">
<g id="Text_2">
<rect x="-8" y="-7.54688" width="40" height="40" rx="20" fill="#5A8C7C" fill-opacity="0.08"/>
<g id="Ecology-Plant-Hand-1--Streamline-Freehand">
<g id="Group">
<path id="Vector" fill-rule="evenodd" clip-rule="evenodd" d="M12.9099 14.4402C12.5199 12.9302 11.0399 12.6102 10.2199 14.1602C10.0869 13.8724 9.91162 13.6061 9.69987 13.3702C9.53775 13.2603 9.3553 13.1839 9.16324 13.1455C8.97118 13.1072 8.77339 13.1075 8.58149 13.1467C8.38958 13.1858 8.20743 13.2629 8.04573 13.3734C7.88403 13.4839 7.74604 13.6256 7.63987 13.7902C7.55808 13.6111 7.45392 13.4431 7.32987 13.2902C7.05795 13.0181 6.70875 12.8365 6.32987 12.7702C6.13947 12.7376 5.9437 12.7609 5.76624 12.8372C5.58878 12.9135 5.43722 13.0396 5.32987 13.2002C4.22987 15.0002 4.99987 17.3902 6.32987 19.0002C7.01899 19.7782 7.85942 20.4077 8.79987 20.8502C8.99765 20.9657 9.17924 21.1069 9.33987 21.2702C9.42987 21.8002 9.33987 23.6002 9.33987 23.7202C9.34611 23.7859 9.37252 23.8481 9.41548 23.8982C9.45845 23.9484 9.51587 23.984 9.57987 24.0002C9.79987 24.0502 9.97987 23.1502 9.98987 23.0702C10.0699 20.7202 10.7099 21.1202 8.29987 19.4502C6.86987 18.5002 5.29987 15.5502 6.16987 13.8402C6.34987 14.0002 6.63987 13.6002 6.97987 14.6002C7.31987 15.6002 7.31987 16.9402 8.53987 17.9202C8.80987 18.1402 9.06987 18.6702 9.40987 18.5502C10.1399 18.4502 8.70987 17.2102 8.33987 16.4502C7.41987 14.5702 8.58987 12.9002 9.33987 14.7602C9.68567 15.8963 10.1135 17.0059 10.6199 18.0802C10.8199 18.5302 11.3299 18.1602 11.3299 18.0802C11.3299 18.0002 10.9699 16.6402 10.9499 16.5602C10.8599 16.2002 10.8499 15.9502 10.6599 15.2002C10.8199 14.8202 11.4099 14.0102 11.6599 14.2902C11.9099 14.5702 12.1099 16.5202 13.2999 17.7102C13.3615 17.7644 13.4407 17.7945 13.5228 17.7949C13.6049 17.7953 13.6843 17.7659 13.7465 17.7123C13.8087 17.6587 13.8493 17.5844 13.861 17.5031C13.8726 17.4218 13.8545 17.3391 13.8099 17.2702C13.3062 16.4041 12.999 15.438 12.9099 14.4402Z" fill="#3E7664"/>
<path id="Vector_2" fill-rule="evenodd" clip-rule="evenodd" d="M18.7902 15.0002C18.0102 13.7002 16.4202 14.4102 16.0802 15.6602C15.9844 16.0736 15.8642 16.481 15.7202 16.8802C15.4602 17.5402 14.9302 18.1202 14.4202 17.8802C14.3867 17.8618 14.3499 17.8502 14.3119 17.846C14.2739 17.8418 14.2355 17.8452 14.1988 17.8558C14.1622 17.8665 14.1279 17.8843 14.0981 17.9082C14.0683 17.9321 14.0435 17.9617 14.0252 17.9952C14.0068 18.0286 13.9952 18.0654 13.991 18.1034C13.9868 18.1414 13.9902 18.1798 14.0009 18.2165C14.0115 18.2532 14.0293 18.2874 14.0532 18.3172C14.0771 18.347 14.1067 18.3718 14.1402 18.3902C14.7602 18.7602 15.7702 18.5702 16.4502 17.2302C16.6606 16.8054 16.8443 16.3678 17.0002 15.9202C17.4702 14.6602 18.6002 15.7202 17.8902 17.6602C17.1802 19.6002 15.3702 20.1602 15.3502 21.0602C15.3966 21.7585 15.5344 22.4477 15.7602 23.1102C15.9502 23.6502 16.4802 23.6602 16.5102 23.2202C16.3364 22.6502 16.2224 22.0637 16.1702 21.4702C16.1102 20.6902 15.9802 21.5802 17.1002 20.3602C18.7202 19.2302 19.8402 16.8302 18.7902 15.0002Z" fill="#3E7664"/>
<path id="Vector_3" fill-rule="evenodd" clip-rule="evenodd" d="M16.1302 7.99979C15.7502 7.68979 15.4102 8.12979 14.5902 8.54979C14.4602 8.63979 14.3302 8.74979 14.2002 8.85979C13.9302 9.31979 14.4102 9.78979 15.0002 9.51979C16.0702 8.41979 16.5302 8.36979 16.1302 7.99979Z" fill="#3E7664"/>
<path id="Vector_4" fill-rule="evenodd" clip-rule="evenodd" d="M18.8999 5.56003C18.8832 5.44072 18.8309 5.32922 18.7499 5.24003C18.1699 4.59003 11.9799 5.51003 12.8499 8.99003C12.9399 9.35003 13.0799 9.64003 13.3699 9.70003C13.2299 9.88003 13.1199 10.01 12.9399 10.28C12.742 10.2081 12.5378 10.1545 12.3299 10.12C12.15 9.47548 11.9261 8.844 11.6599 8.23003C12.6599 8.07003 13.5199 5.10003 11.2299 2.63003C10.3699 1.70003 7.45994 -0.0599692 6.78994 3.076e-05C5.10994 0.130031 4.99994 5.13003 5.99994 7.10003C6.99994 9.29003 9.44994 10 10.7799 9.00003C10.9699 9.37003 11.1399 9.74003 11.2999 10.11C9.78839 10.3844 8.41787 11.1721 7.41994 12.34C7.3915 12.3671 7.36886 12.3997 7.35339 12.4358C7.33792 12.4719 7.32994 12.5108 7.32994 12.55C7.32994 12.5893 7.33792 12.6282 7.35339 12.6643C7.36886 12.7004 7.3915 12.7329 7.41994 12.76C7.77994 13.12 7.89994 12.39 9.59994 11.65C10.2092 11.368 10.869 11.2116 11.5399 11.19C12.3499 11.13 14.3799 12.46 14.8299 12.97C15.277 13.4763 15.6354 14.0544 15.8899 14.68C15.947 14.7503 16.0296 14.7951 16.1196 14.8044C16.2096 14.8138 16.2997 14.7871 16.3699 14.73C16.4402 14.673 16.485 14.5904 16.4944 14.5004C16.5037 14.4104 16.477 14.3203 16.4199 14.25C15.993 12.8622 15.1082 11.6602 13.9099 10.84C14.077 10.6294 14.1753 10.3726 14.1914 10.1042C14.2075 9.83588 14.1407 9.56908 13.9999 9.34003C13.7199 9.04003 13.5099 8.87003 13.4999 8.50003C13.4299 6.67003 15.9299 6.36003 17.7399 6.21003C17.7524 7.16523 17.5756 8.11344 17.2199 9.00003C17.0602 9.43089 16.7744 9.80372 16.3999 10.07C16.2027 10.1851 15.9783 10.2458 15.7499 10.2458C15.5215 10.2458 15.2972 10.1851 15.0999 10.07C15.0665 10.0405 15.0275 10.0178 14.9852 10.0033C14.943 9.98885 14.8983 9.98283 14.8537 9.98562C14.8092 9.98841 14.7656 9.99994 14.7255 10.0196C14.6853 10.0392 14.6495 10.0665 14.6199 10.1C14.5904 10.1335 14.5677 10.1725 14.5532 10.2147C14.5388 10.257 14.5327 10.3017 14.5355 10.3462C14.5383 10.3908 14.5499 10.4344 14.5695 10.4745C14.5891 10.5146 14.6165 10.5505 14.6499 10.58C15.0453 10.838 15.5079 10.9737 15.9799 10.97C17.7299 10.86 18.5999 8.60003 18.7899 6.84003C18.9999 5.46003 18.9399 5.84003 18.8999 5.56003ZM8.26994 8.38003C6.52994 7.50003 6.26994 5.12003 6.49994 3.18003C6.53642 2.68852 6.60996 2.20047 6.71994 1.72003C6.99994 0.650031 9.99994 2.74003 10.5499 3.28003C10.9838 3.68866 11.3299 4.18134 11.5671 4.72805C11.8044 5.27476 11.9278 5.86406 11.9299 6.46003C11.8999 6.84003 10.3899 9.46003 8.26994 8.38003Z" fill="#3E7664"/>
<path id="Vector_5" fill-rule="evenodd" clip-rule="evenodd" d="M7.80014 3.71983C7.73405 3.79028 7.69727 3.88324 7.69727 3.97983C7.69727 4.07642 7.73405 4.16939 7.80014 4.23983C7.95014 4.44983 9.37014 6.43983 10.0901 7.63983C10.6301 8.00983 11.0901 7.44983 10.8201 6.93983C10.3595 6.04188 9.74326 5.2327 9.00014 4.54983C8.77014 4.32983 8.00014 3.54983 7.80014 3.71983Z" fill="#3E7664"/>
</g>
</g>
</g>
</g>
</g>
</g>
<path d="M-12 -30.5469V-29.5469H341V-30.5469V-31.5469H-12V-30.5469Z" fill="#D6E3E6" mask="url(#path-1-inside-1_23_2)"/>
</g>
</g>
</g>
</g>
</g>
</g>
</g>
</g>

</svg>
