<svg width="64" height="64" viewBox="0 0 64 64" fill="none" xmlns="http://www.w3.org/2000/svg">

<g id="Waldorf Kindergarten &#38; TK in Santa Rosa | Summerfield">

<g id="Body">
<g id="Section">

<g id="Container">
<g id="Container:margin">
<g id="Container_2">
<g id="Container_3">
<g id="Container_4">
<g id="Text:margin">
<g id="Text">

<g id="Adoptation-Family--Streamline-Freehand">
<g id="Group">
<path id="Vector" fill-rule="evenodd" clip-rule="evenodd" d="M27.7873 27.3067C28.7798 28.0753 29.9348 28.607 31.1642 28.8612C32.3935 29.1154 33.6647 29.0853 34.8807 28.7733C36.1476 28.3736 37.2816 27.6361 38.1607 26.64C39.0319 25.7128 39.6635 24.5868 40.0007 23.36C40.0941 23.1291 40.0941 22.8709 40.0007 22.64C40.1987 22.6201 40.3822 22.5271 40.5153 22.3792C40.6484 22.2312 40.7217 22.039 40.7207 21.84C40.7895 20.8765 40.6674 19.9089 40.3612 18.9927C40.055 18.0765 39.5709 17.2299 38.9365 16.5014C38.3022 15.7729 37.5302 15.1769 36.6648 14.7476C35.7995 14.3183 34.8578 14.0643 33.894 14C32.8827 13.8167 31.8449 13.8368 30.8415 14.0591C29.838 14.2815 28.889 14.7017 28.0498 15.2951C27.2106 15.8884 26.4981 16.6432 25.9539 17.5151C25.4098 18.3871 25.0449 19.3587 24.8807 20.3733C24.7002 21.6834 24.8747 23.0179 25.386 24.2374C25.8972 25.457 26.7266 26.517 27.7873 27.3067ZM27.9207 20.88C28.1066 19.5719 28.7961 18.3882 29.8422 17.5812C30.8883 16.7742 32.2082 16.4078 33.5207 16.56C34.9351 16.56 36.2917 17.1219 37.2919 18.1221C38.2921 19.1223 38.854 20.4788 38.854 21.8933C38.8264 22.0162 38.8264 22.1437 38.854 22.2667C38.6555 22.2697 38.4631 22.336 38.3048 22.4559C38.1466 22.5758 38.0307 22.7431 37.974 22.9333C37.6677 23.8285 37.1457 24.6345 36.454 25.28C35.8044 25.9198 34.9933 26.3714 34.1073 26.5867C33.2607 26.7288 32.3929 26.6753 31.5701 26.4303C30.7474 26.1854 29.9916 25.7554 29.3607 25.1733C28.7653 24.6467 28.3189 23.9729 28.0662 23.2193C27.8134 22.4658 27.7633 21.6591 27.9207 20.88Z" fill="#767D27"/>
<path id="Vector_2" fill-rule="evenodd" clip-rule="evenodd" d="M51.2001 19.44C52.2038 19.5503 53.2194 19.4589 54.1873 19.171C55.1551 18.883 56.0556 18.4045 56.8357 17.7635C57.6159 17.1224 58.26 16.3319 58.7302 15.4382C59.2003 14.5446 59.487 13.566 59.5734 12.56C59.5911 12.3433 59.5347 12.1271 59.4134 11.9466C59.4401 11.8236 59.4401 11.6963 59.4134 11.5733C59.1974 10.0304 58.6219 8.55975 57.7334 7.27996C56.7957 5.96279 55.5132 4.92943 54.0268 4.2933C52.8325 3.77379 51.531 3.54866 50.2317 3.63683C48.9323 3.725 47.6732 4.12389 46.5601 4.79996C45.418 5.52066 44.4894 6.53364 43.8705 7.73396C43.2515 8.93427 42.9648 10.2782 43.0401 11.6266C43.1487 13.7235 44.0537 15.6997 45.5703 17.1519C47.0868 18.604 49.1005 19.4224 51.2001 19.44ZM48.1868 7.2533C48.9273 6.73643 49.7795 6.40181 50.6738 6.27669C51.5682 6.15157 52.4795 6.23949 53.3334 6.5333C54.4971 6.87793 55.535 7.55444 56.3201 8.47996C57.133 9.46108 57.6999 10.6222 57.9734 11.8666C57.9131 11.9848 57.8683 12.1103 57.8401 12.24C57.7416 12.9629 57.4959 13.6579 57.118 14.2821C56.7402 14.9063 56.2383 15.4462 55.6434 15.8687C55.0485 16.2911 54.3733 16.587 53.6594 16.738C52.9456 16.889 52.2084 16.8919 51.4934 16.7466C50.0789 16.7466 48.7224 16.1847 47.7222 15.1845C46.722 14.1843 46.1601 12.8278 46.1601 11.4133C46.1149 10.6046 46.2774 9.79776 46.6322 9.0696C46.9869 8.34145 47.5221 7.71618 48.1868 7.2533Z" fill="#767D27"/>
<path id="Vector_3" fill-rule="evenodd" clip-rule="evenodd" d="M43.9202 52.3999C44.3549 51.6374 44.6613 50.8086 44.8268 49.9466C45.0282 48.7663 45.1264 47.5706 45.1202 46.3733C45.2655 42.2617 43.8994 38.2393 41.2802 35.0666C40.3188 33.9926 39.1496 33.1246 37.8434 32.515C36.5371 31.9054 35.1209 31.5669 33.6802 31.5199C31.7608 31.4016 29.8399 31.7247 28.0648 32.4643C26.2897 33.2039 24.7077 34.3404 23.4402 35.7866C21.0115 38.6002 19.5693 42.1306 19.3335 45.8399C19.0802 47.5551 19.0802 49.2981 19.3335 51.0133C19.5231 51.9137 20.0004 52.728 20.6935 53.3333C21.2422 53.8133 21.9246 54.114 22.6491 54.195C23.3737 54.2761 24.1056 54.1336 24.7468 53.7866C25.0918 53.5892 25.4216 53.3664 25.7335 53.1199V53.9199C25.7335 56.0266 26.0802 58.0533 26.2135 59.8133C26.2135 60.0537 26.309 60.2844 26.4791 60.4544C26.6491 60.6244 26.8797 60.7199 27.1202 60.7199C27.238 60.7235 27.3553 60.7034 27.4651 60.6608C27.575 60.6181 27.6752 60.5539 27.7597 60.4718C27.8443 60.3897 27.9115 60.2915 27.9574 60.183C28.0033 60.0744 28.0269 59.9578 28.0268 59.8399C28.2135 58.0799 28.4802 56.0533 28.6135 53.9199V51.3866V48.8533C28.4535 46.7199 28.1335 44.7199 27.9468 42.9599C27.9506 42.8539 27.9324 42.7482 27.8935 42.6494C27.8547 42.5507 27.7959 42.461 27.7208 42.386C27.6458 42.3109 27.5561 42.2521 27.4573 42.2132C27.3586 42.1744 27.2529 42.1562 27.1468 42.1599C27.0418 42.1599 26.9378 42.1806 26.8407 42.2208C26.7436 42.261 26.6554 42.32 26.5812 42.3943C26.5069 42.4685 26.4479 42.5567 26.4077 42.6538C26.3675 42.7509 26.3468 42.8549 26.3468 42.9599C26.1335 44.7199 25.8135 46.7199 25.6802 48.8533V50.6399C25.3425 51.0824 24.9376 51.4694 24.4802 51.7866C24.1428 52.0883 23.7061 52.2552 23.2535 52.2552C22.8009 52.2552 22.3642 52.0883 22.0268 51.7866C21.7973 51.5506 21.6176 51.2707 21.4985 50.9638C21.3794 50.6568 21.3233 50.329 21.3335 49.9999C21.3556 48.6843 21.4894 47.3729 21.7335 46.0799C22.1276 42.9935 23.4692 40.1053 25.5735 37.8133C26.5804 36.7109 27.822 35.8487 29.2066 35.2903C30.5912 34.7318 32.0836 34.4914 33.5735 34.5866C34.9046 34.6199 36.2074 34.9772 37.3691 35.6278C38.5308 36.2784 39.5163 37.2024 40.2402 38.3199C41.8225 40.6926 42.6923 43.4686 42.7468 46.3199C42.8397 47.3757 42.8397 48.4375 42.7468 49.4933C42.674 50.1187 42.4841 50.7248 42.1868 51.2799L41.2802 52.1866C40.8537 52.5798 40.3107 52.8232 39.7335 52.8799C39.6184 52.895 39.5019 52.895 39.3868 52.8799V49.5733C39.3868 47.0399 38.9602 44.6133 38.8002 42.5599C38.8075 42.454 38.7929 42.3477 38.7574 42.2476C38.7218 42.1475 38.666 42.0559 38.5934 41.9783C38.5209 41.9007 38.4331 41.839 38.3356 41.7968C38.2382 41.7546 38.133 41.733 38.0268 41.7333C37.9218 41.7297 37.817 41.7469 37.7186 41.7838C37.6202 41.8208 37.53 41.8768 37.4532 41.9486C37.3764 42.0204 37.3146 42.1067 37.2712 42.2024C37.2277 42.2982 37.2036 42.4015 37.2002 42.5066C36.9602 44.3199 36.5868 46.4266 36.4268 48.6666V51.3333C36.4268 52.2399 36.4268 53.1199 36.5602 53.9999C36.7202 56.2399 37.0402 58.3733 37.3335 60.1866C37.3851 60.4047 37.5134 60.5969 37.695 60.7282C37.8766 60.8595 38.0994 60.921 38.3226 60.9016C38.5459 60.8822 38.7547 60.7831 38.9109 60.6225C39.0671 60.4618 39.1603 60.2503 39.1735 60.0266C39.1735 58.5066 39.3068 56.7199 39.3868 54.8799H39.7602C40.774 54.8782 41.7586 54.5406 42.5602 53.9199C42.8802 53.6799 43.2002 53.4399 43.4935 53.1733C43.6628 52.9314 43.8058 52.6721 43.9202 52.3999Z" fill="#767D27"/>
<path id="Vector_4" fill-rule="evenodd" clip-rule="evenodd" d="M5.3334 20.9066C6.53735 20.3083 7.48443 19.2949 8.00007 18.0533C9.09946 19.2461 10.5796 20.0192 12.1867 20.24C13.7211 20.4538 15.2846 20.2321 16.6991 19.6003C18.1136 18.9685 19.322 17.952 20.1867 16.6666C20.3128 16.9762 20.4552 17.2788 20.6134 17.5733C21.2563 18.6854 22.2789 19.5282 23.4934 19.9466C23.5944 20.0084 23.7067 20.0492 23.8238 20.0665C23.9409 20.0838 24.0603 20.0773 24.1748 20.0475C24.2893 20.0176 24.3966 19.9649 24.4903 19.8926C24.584 19.8203 24.6622 19.7298 24.7201 19.6266C24.7824 19.5236 24.8236 19.4092 24.8413 19.2901C24.8589 19.171 24.8527 19.0495 24.8229 18.9329C24.7931 18.8162 24.7404 18.7066 24.6678 18.6105C24.5952 18.5145 24.5042 18.4338 24.4001 18.3733C24.2137 18.0399 24.0789 17.6803 24.0001 17.3066C23.8359 16.9477 23.7108 16.5722 23.6267 16.1866C23.4934 15.7866 23.3601 15.3866 23.2001 14.9866C22.8267 14.0533 22.3734 13.2266 21.9734 12.32C21.9495 10.6696 21.5769 9.04287 20.8801 7.54662C20.3187 6.36551 19.4763 5.34003 18.4267 4.55996C17.2938 3.7015 15.9401 3.18299 14.5235 3.06495C13.107 2.94691 11.6861 3.2342 10.4267 3.89329C9.18095 4.59415 8.1305 5.59582 7.37124 6.80691C6.61198 8.01799 6.16809 9.39993 6.08007 10.8266C5.98122 11.9044 6.03509 12.9906 6.24007 14.0533C6.0534 14.56 5.84007 15.12 5.68007 15.68C5.52007 16.24 5.3334 16.5866 5.3334 17.04C5.27977 17.4756 5.18148 17.9045 5.04007 18.32C4.91103 18.7219 4.70244 19.0937 4.42674 19.4133C4.3275 19.4824 4.24309 19.5706 4.17846 19.6728C4.11383 19.775 4.0703 19.8891 4.05042 20.0084C4.03054 20.1276 4.03472 20.2497 4.06271 20.3673C4.0907 20.4849 4.14194 20.5958 4.2134 20.6933C4.34749 20.8516 4.53184 20.9592 4.73568 20.998C4.93951 21.0369 5.15049 21.0046 5.3334 20.9066ZM9.12007 11.1733C9.16283 10.2361 9.42673 9.32232 9.89019 8.50662C10.3537 7.69092 11.0035 6.99645 11.7867 6.47996C12.5867 5.98113 13.5106 5.7167 14.4534 5.7167C15.3962 5.7167 16.3201 5.98113 17.1201 6.47996C18.1348 7.11855 18.9339 8.04772 19.4134 9.14663C19.9162 10.2231 20.2319 11.3774 20.3467 12.56V13.1733C20.216 13.2442 20.1127 13.3569 20.0534 13.4933C19.5398 14.9309 18.5292 16.1376 17.204 16.8956C15.8788 17.6535 14.3263 17.9128 12.8267 17.6266C11.4898 17.2461 10.3541 16.3587 9.6618 15.1533C8.96945 13.9479 8.77507 12.5199 9.12007 11.1733Z" fill="#767D27"/>
<path id="Vector_5" fill-rule="evenodd" clip-rule="evenodd" d="M64.0003 40.8533C63.9685 39.1205 63.817 37.3919 63.547 35.68C63.3462 34.4888 63.0337 33.3192 62.6137 32.1866C61.625 29.686 59.9523 27.5143 57.787 25.92C56.6879 25.1206 55.4392 24.5504 54.1152 24.2435C52.7912 23.9366 51.4191 23.8991 50.0803 24.1333C49.283 24.275 48.4983 24.4801 47.7337 24.7466C46.9657 24.9934 46.217 25.2964 45.4937 25.6533L42.827 27.1733C42.7388 27.2323 42.6632 27.3082 42.6046 27.3967C42.5461 27.4852 42.5057 27.5844 42.4858 27.6886C42.466 27.7929 42.467 27.9 42.489 28.0038C42.5109 28.1076 42.5533 28.206 42.6137 28.2933C42.7373 28.4658 42.9225 28.5842 43.131 28.6239C43.3395 28.6637 43.5553 28.6217 43.7337 28.5066L46.1337 27.28C46.801 27.0011 47.4872 26.7695 48.187 26.5866C48.8707 26.4193 49.566 26.3035 50.267 26.24C52.377 26.0472 54.4773 26.6994 56.107 28.0533C57.7786 29.4521 59.0102 31.3042 59.6537 33.3866C59.9963 34.3472 60.2463 35.3384 60.4003 36.3466C60.6582 37.9258 60.8097 39.5205 60.8537 41.12C60.9347 42.5232 60.9347 43.93 60.8537 45.3333C60.829 46.1608 60.6761 46.9794 60.4003 47.76C60.2844 48.07 60.0913 48.3453 59.8393 48.56C59.5874 48.7746 59.2848 48.9215 58.9603 48.9866C58.6735 49.0532 58.3726 49.021 58.1064 48.8951C57.8401 48.7693 57.6242 48.5572 57.4937 48.2933C56.9527 47.2056 56.6526 46.0141 56.6137 44.8C56.5489 42.7813 56.5934 40.7605 56.747 38.7466C56.747 38.5062 56.6515 38.2756 56.4814 38.1055C56.3114 37.9355 56.0808 37.84 55.8403 37.84C55.5999 37.84 55.3692 37.9355 55.1992 38.1055C55.0292 38.2756 54.9337 38.5062 54.9337 38.7466C54.6575 40.8161 54.4972 42.8993 54.4537 44.9866C54.4363 46.5245 54.7358 48.0496 55.3337 49.4666C55.6926 50.2698 56.3129 50.9278 57.0937 51.3333C56.9603 51.9733 56.8003 52.72 56.6937 53.5733C56.6656 54.0618 56.6656 54.5515 56.6937 55.04V56.5066C56.8537 57.8933 57.1203 59.1733 57.2803 59.9466C57.2838 60.0657 57.3107 60.1829 57.3594 60.2916C57.4082 60.4003 57.4779 60.4983 57.5646 60.58C57.6513 60.6618 57.7532 60.7256 57.8646 60.7679C57.976 60.8102 58.0946 60.8302 58.2137 60.8266C58.3327 60.8232 58.45 60.7963 58.5587 60.7475C58.6673 60.6987 58.7653 60.629 58.8471 60.5423C58.9288 60.4557 58.9926 60.3537 59.0349 60.2424C59.0773 60.131 59.0972 60.0124 59.0937 59.8933C59.0937 59.0666 59.4403 57.8666 59.6003 56.48V55.0133C59.6276 54.5337 59.6276 54.0529 59.6003 53.5733C59.6003 52.88 59.387 52.24 59.2803 51.6533C60.0551 51.5441 60.7903 51.243 61.419 50.7772C62.0478 50.3115 62.5501 49.696 62.8803 48.9866C63.4555 47.8874 63.8345 46.6962 64.0003 45.4666C64.1063 43.9307 64.1063 42.3893 64.0003 40.8533Z" fill="#767D27"/>
<path id="Vector_6" fill-rule="evenodd" clip-rule="evenodd" d="M44.2136 55.7333C44.2136 55.7333 43.4936 55.5466 42.7202 57.6799C42.6923 57.8387 42.6923 58.0012 42.7202 58.1599C42.6746 58.3247 42.6565 58.4959 42.6669 58.6666C43.3069 60.7199 43.7069 60.7199 44.0802 60.7466C44.4536 60.7733 44.8802 60.7466 45.5469 58.6933C45.5719 58.5342 45.5719 58.3723 45.5469 58.2133C45.5725 58.0454 45.5725 57.8745 45.5469 57.7066C44.9336 55.5466 44.2402 55.7333 44.2136 55.7333Z" fill="#767D27"/>
<path id="Vector_7" fill-rule="evenodd" clip-rule="evenodd" d="M51.2539 49.8667C51.2193 49.6762 51.1189 49.5039 50.9703 49.3799C50.8216 49.2558 50.6342 49.1879 50.4406 49.1879C50.247 49.1879 50.0595 49.2558 49.9109 49.3799C49.7623 49.5039 49.6619 49.6762 49.6273 49.8667C49.4939 50.6933 49.1739 51.8667 49.0139 53.2533C48.974 53.7325 48.974 54.2142 49.0139 54.6933C48.9732 55.1814 48.9732 55.672 49.0139 56.16C49.1739 57.52 49.4139 58.8267 49.5739 59.5467C49.5739 59.7871 49.6694 60.0177 49.8395 60.1878C50.0095 60.3578 50.2401 60.4533 50.4806 60.4533C50.7235 60.4464 50.9541 60.345 51.1234 60.1707C51.2927 59.9964 51.3874 59.763 51.3873 59.52C51.5206 58.6933 51.7606 57.4933 51.8939 56.1333C51.9998 55.1673 51.9998 54.1927 51.8939 53.2267C51.7606 51.8667 51.4139 50.6667 51.2539 49.8667Z" fill="#767D27"/>
<path id="Vector_8" fill-rule="evenodd" clip-rule="evenodd" d="M25.4672 29.6267C25.6365 29.4567 25.7316 29.2266 25.7316 28.9867C25.7316 28.7467 25.6365 28.5166 25.4672 28.3467C23.4509 26.2519 20.9373 24.7016 18.1605 23.84C15.2753 23.0514 12.215 23.1914 9.41382 24.24C7.83246 24.8577 6.39174 25.7875 5.17761 26.9742C3.96349 28.1608 3.00086 29.5799 2.34715 31.1467C0.480747 35.5656 -0.323007 40.3607 0.000479758 45.1467C0.00714068 46.9717 0.350676 48.7797 1.01381 50.48C1.30853 51.1734 1.77338 51.7813 2.36535 52.2474C2.95731 52.7135 3.65728 53.0228 4.40048 53.1467L3.89381 56C3.89283 56.3712 4.03263 56.7289 4.28502 57.0011C4.5374 57.2733 4.88361 57.4397 5.25381 57.4667C5.76014 57.4931 6.26749 57.4931 6.77381 57.4667H7.60048L8.00048 59.7333C8.00026 59.8535 8.02466 59.9725 8.07218 60.0829C8.11971 60.1933 8.18934 60.2928 8.27679 60.3752C8.36424 60.4577 8.46765 60.5213 8.58065 60.5623C8.69365 60.6032 8.81384 60.6206 8.93382 60.6133C9.17667 60.5995 9.40455 60.4915 9.56892 60.3122C9.73329 60.1329 9.82116 59.8965 9.81382 59.6533L10.1871 56C10.1873 55.8111 10.1497 55.6242 10.0764 55.4501C10.0031 55.2761 9.89569 55.1185 9.76048 54.9867C9.47555 54.7288 9.1048 54.5862 8.72048 54.5867H6.56048L6.29381 52.88C6.71461 52.7234 7.09664 52.4778 7.41382 52.16C8.29602 51.2535 8.8819 50.1003 9.09382 48.8533C9.31799 47.4337 9.41615 45.997 9.38715 44.56C9.38715 42.56 9.12048 40.6667 9.04048 38.3733C9.04048 38.1612 8.9562 37.9577 8.80617 37.8076C8.65614 37.6576 8.45265 37.5733 8.24048 37.5733C8.02831 37.5733 7.82483 37.6576 7.6748 37.8076C7.52477 37.9577 7.44048 38.1612 7.44048 38.3733V44.5333C7.3929 45.8352 7.22327 47.1298 6.93381 48.4C6.78767 49.0442 6.49574 49.6463 6.08048 50.16C5.95662 50.3183 5.79154 50.4393 5.60336 50.5099C5.41518 50.5805 5.2112 50.5978 5.01381 50.56C4.68928 50.4834 4.38943 50.3259 4.14228 50.102C3.89513 49.8782 3.70873 49.5954 3.60048 49.28C3.16172 47.8935 2.98095 46.4383 3.06715 44.9867C2.81178 40.6933 3.50367 36.3962 5.09381 32.4C5.56533 31.1489 6.27916 30.0031 7.19437 29.0284C8.10957 28.0537 9.20816 27.2693 10.4271 26.72C12.6815 25.7277 15.1901 25.4666 17.6005 25.9733C20.0744 26.6314 22.3408 27.9068 24.1872 29.68C24.3641 29.8425 24.5982 29.9281 24.8382 29.9181C25.0782 29.9081 25.3044 29.8033 25.4672 29.6267Z" fill="#767D27"/>
</g>
</g>
</g>
</g>
</g>
</g>
</g>
</g>
</g>
</g>
</g>
</g>

</svg>
