<svg width="28" height="28" viewBox="0 0 28 28" fill="none" xmlns="http://www.w3.org/2000/svg">
<g>
<path fill-rule="evenodd" clip-rule="evenodd" d="M15.0615 16.8464C14.6065 15.0847 12.8799 14.7114 11.9232 16.5197C11.768 16.184 11.5636 15.8733 11.3165 15.5981C11.1274 15.4699 10.9145 15.3808 10.6904 15.336C10.4664 15.2912 10.2356 15.2916 10.0117 15.3373C9.78784 15.3829 9.57533 15.4729 9.38668 15.6018C9.19803 15.7307 9.03705 15.896 8.91319 16.0881C8.81776 15.8791 8.69624 15.6831 8.55152 15.5047C8.23428 15.1873 7.82688 14.9755 7.38485 14.8981C7.16271 14.8601 6.93432 14.8872 6.72728 14.9762C6.52024 15.0653 6.34342 15.2123 6.21819 15.3997C4.93485 17.4997 5.83319 20.288 7.38485 22.1664C8.18882 23.0741 9.16932 23.8085 10.2665 24.3247C10.4973 24.4595 10.7091 24.6242 10.8965 24.8147C11.0015 25.433 10.8965 27.533 10.8965 27.673C10.9038 27.7497 10.9346 27.8223 10.9847 27.8808C11.0349 27.9393 11.1018 27.9808 11.1765 27.9997C11.4332 28.058 11.6432 27.008 11.6549 26.9147C11.7482 24.173 12.4949 24.6397 9.68319 22.6914C8.01485 21.5831 6.18319 18.1414 7.19819 16.1464C7.40819 16.3331 7.74652 15.8664 8.14319 17.0331C8.53985 18.1997 8.53985 19.763 9.96318 20.9064C10.2782 21.163 10.5815 21.7814 10.9782 21.6414C11.8299 21.5247 10.1615 20.0781 9.72985 19.1914C8.65652 16.9981 10.0215 15.0497 10.8965 17.2197C11.3 18.5452 11.799 19.8398 12.3899 21.093C12.6232 21.618 13.2182 21.1864 13.2182 21.093C13.2182 20.9997 12.7982 19.413 12.7749 19.3197C12.6699 18.8997 12.6582 18.608 12.4365 17.733C12.6232 17.2897 13.3115 16.3447 13.6032 16.6714C13.8949 16.9981 14.1282 19.273 15.5165 20.6614C15.5884 20.7246 15.6808 20.7597 15.7766 20.7602C15.8724 20.7606 15.9651 20.7264 16.0376 20.6639C16.1101 20.6013 16.1575 20.5146 16.1711 20.4198C16.1847 20.325 16.1635 20.2285 16.1115 20.1481C15.5239 19.1377 15.1655 18.0106 15.0615 16.8464Z" fill="#3E7664"/>
<path fill-rule="evenodd" clip-rule="evenodd" d="M21.9223 17.4998C21.0123 15.9831 19.1573 16.8114 18.7607 18.2698C18.6489 18.7521 18.5087 19.2274 18.3407 19.6931C18.0373 20.4631 17.419 21.1398 16.824 20.8598C16.7849 20.8383 16.742 20.8248 16.6977 20.8199C16.6534 20.8151 16.6086 20.819 16.5658 20.8314C16.523 20.8439 16.4831 20.8646 16.4483 20.8925C16.4136 20.9204 16.3846 20.9549 16.3632 20.9939C16.3417 21.033 16.3282 21.0759 16.3233 21.1202C16.3185 21.1645 16.3224 21.2094 16.3348 21.2521C16.3473 21.2949 16.368 21.3349 16.3959 21.3696C16.4238 21.4044 16.4583 21.4333 16.4973 21.4548C17.2207 21.8864 18.399 21.6648 19.1923 20.1014C19.4378 19.6058 19.6521 19.0954 19.834 18.5731C20.3823 17.1031 21.7007 18.3398 20.8723 20.6031C20.044 22.8664 17.9323 23.5198 17.909 24.5698C17.9632 25.3845 18.124 26.1886 18.3873 26.9614C18.609 27.5914 19.2273 27.6031 19.2623 27.0898C19.0596 26.4248 18.9266 25.7406 18.8657 25.0481C18.7957 24.1381 18.644 25.1764 19.9507 23.7531C21.8407 22.4348 23.1473 19.6348 21.9223 17.4998Z" fill="#3E7664"/>
<path fill-rule="evenodd" clip-rule="evenodd" d="M18.8182 9.33261C18.3749 8.97094 17.9782 9.48427 17.0216 9.97427C16.8699 10.0793 16.7182 10.2076 16.5666 10.3359C16.2516 10.8726 16.8116 11.4209 17.4999 11.1059C18.7482 9.82261 19.2849 9.76427 18.8182 9.33261Z" fill="#3E7664"/>
<path fill-rule="evenodd" clip-rule="evenodd" d="M22.0499 6.48646C22.0304 6.34727 21.9694 6.21718 21.8749 6.11312C21.1983 5.35479 13.9766 6.42812 14.9916 10.4881C15.0966 10.9081 15.2599 11.2465 15.5983 11.3165C15.4349 11.5265 15.3066 11.6781 15.0966 11.9931C14.8656 11.9092 14.6274 11.8467 14.3849 11.8065C14.175 11.0545 13.9138 10.3178 13.6033 9.60146C14.7699 9.41479 15.7733 5.94979 13.1016 3.06813C12.0983 1.98313 8.70326 -0.0702083 7.9216 -0.000208254C5.9616 0.151458 5.83326 5.98479 6.99993 8.28312C8.1666 10.8381 11.0249 11.6665 12.5766 10.4998C12.7983 10.9315 12.9966 11.3631 13.1833 11.7948C11.4198 12.1148 9.82085 13.0338 8.6566 14.3965C8.62342 14.4281 8.597 14.4661 8.57895 14.5082C8.5609 14.5503 8.5516 14.5956 8.5516 14.6415C8.5516 14.6873 8.5609 14.7326 8.57895 14.7747C8.597 14.8168 8.62342 14.8549 8.6566 14.8865C9.0766 15.3065 9.2166 14.4548 11.1999 13.5915C11.9107 13.2624 12.6804 13.0799 13.4633 13.0548C14.4083 12.9848 16.7766 14.5365 17.3016 15.1315C17.8232 15.7221 18.2413 16.3966 18.5383 17.1265C18.6048 17.2085 18.7012 17.2607 18.8062 17.2716C18.9112 17.2825 19.0163 17.2513 19.0983 17.1848C19.1803 17.1183 19.2325 17.0219 19.2434 16.9169C19.2544 16.8119 19.2231 16.7068 19.1566 16.6248C18.6585 15.0057 17.6262 13.6033 16.2283 12.6465C16.4232 12.4008 16.5378 12.1011 16.5566 11.788C16.5754 11.4749 16.4974 11.1637 16.3333 10.8965C16.0066 10.5465 15.7616 10.3481 15.7499 9.91646C15.6683 7.78146 18.5849 7.41979 20.6966 7.24479C20.7111 8.35919 20.5049 9.46544 20.0899 10.4998C19.9035 11.0025 19.5702 11.4374 19.1333 11.7481C18.9031 11.8824 18.6414 11.9531 18.3749 11.9531C18.1085 11.9531 17.8468 11.8824 17.6166 11.7481C17.5775 11.7137 17.5321 11.6872 17.4828 11.6703C17.4335 11.6534 17.3813 11.6464 17.3293 11.6496C17.2773 11.6529 17.2265 11.6664 17.1797 11.6893C17.1329 11.7122 17.0911 11.7441 17.0566 11.7831C17.0221 11.8222 16.9957 11.8677 16.9788 11.917C16.9619 11.9662 16.9549 12.0184 16.9581 12.0704C16.9614 12.1224 16.9748 12.1732 16.9977 12.22C17.0206 12.2668 17.0525 12.3087 17.0916 12.3431C17.5528 12.6441 18.0925 12.8024 18.6433 12.7981C20.6849 12.6698 21.6999 10.0331 21.9216 7.97979C22.1666 6.36979 22.0966 6.81313 22.0499 6.48646ZM9.64827 9.77646C7.61827 8.74979 7.31493 5.97313 7.58326 3.70979C7.62582 3.13636 7.71162 2.56697 7.83993 2.00646C8.1666 0.758125 11.6666 3.19646 12.3083 3.82646C12.8144 4.30319 13.2182 4.87798 13.495 5.51581C13.7718 6.15365 13.9158 6.84116 13.9183 7.53646C13.8833 7.97979 12.1216 11.0365 9.64827 9.77646Z" fill="#3E7664"/>
<path fill-rule="evenodd" clip-rule="evenodd" d="M9.10049 4.33956C9.02338 4.42174 8.98047 4.5302 8.98047 4.64289C8.98047 4.75558 9.02338 4.86404 9.10049 4.94623C9.27549 5.19123 10.9322 7.51289 11.7722 8.91289C12.4022 9.34456 12.9388 8.69123 12.6238 8.09623C12.0864 7.04862 11.3675 6.10457 10.5005 5.30789C10.2322 5.05123 9.33382 4.14123 9.10049 4.33956Z" fill="#3E7664"/>
</g>

</svg>
