<svg width="28" height="28" viewBox="0 0 28 28" fill="none" xmlns="http://www.w3.org/2000/svg">
<path d="M27.9666 17.2264C28.08 13.6044 27.9046 9.97872 27.4421 6.38837C27.4604 6.13217 27.4604 5.87486 27.4421 5.61866C27.279 4.78688 24.9366 4.3772 23.946 4.27788C23.855 4.26733 23.7637 4.29523 23.6918 4.35559C23.6199 4.41594 23.5731 4.50394 23.5614 4.60066C23.5032 5.42003 24.7268 4.60066 26.6031 5.84213C26.5798 6.72447 26.6463 7.60691 26.8012 8.47404C27.0809 11.2549 26.9294 13.1792 26.8012 20.5659C25.4164 20.2449 23.998 20.1196 22.5825 20.1935C19.9432 20.1739 17.3655 21.0429 15.2173 22.6764C16.0097 19.3989 17.9443 18.5175 20.6713 17.4747C20.9802 17.3715 21.3034 17.3253 21.6269 17.3381C21.6901 17.4904 21.8016 17.6141 21.942 17.6875C22.0823 17.7608 22.2425 17.779 22.3942 17.739C22.546 17.699 22.6796 17.6032 22.7716 17.4686C22.8636 17.3339 22.908 17.169 22.8972 17.0029C22.4543 4.45169 22.8972 2.68881 22.7107 1.52183C22.5242 0.354851 21.7318 0.21829 20.6247 0.0444846C19.2647 -0.107436 17.8914 0.131383 16.6474 0.736125C15.4035 1.34087 14.3342 2.28946 13.5508 3.48334C13.4576 3.69439 12.9098 4.98552 12.8632 5.12208C12.0679 4.47483 11.1489 4.02138 10.1712 3.79371C7.66086 3.20037 5.03271 3.64407 2.81761 5.03518C2.3859 5.33392 2.0163 5.72383 1.73166 6.1808C1.44702 6.63776 1.2534 7.15206 1.16277 7.69191C0.137229 12.1115 -0.480424 13.4151 0.47519 22.813C0.47519 23.1978 0.47519 23.7937 0.824805 24.1537C0.903163 24.2234 0.994888 24.274 1.09354 24.3018C1.19219 24.3297 1.29537 24.3343 1.39584 24.3151V25.2711C1.54734 27.5057 4.33261 26.1401 7.39756 25.867C9.9381 25.6559 10.2178 26.2394 12.467 27.6298C13.3928 28.0007 14.3962 28.0952 15.3688 27.903C16.1659 27.7755 16.9218 27.4431 17.5714 26.9346C25.2512 20.9135 24.9832 27.9526 26.7779 22.8999C26.861 22.669 26.912 22.4264 26.9294 22.1798C27.0198 22.2431 27.1242 22.28 27.2322 22.2867C27.3402 22.2935 27.448 22.27 27.5448 22.2184C27.6415 22.1669 27.7239 22.0892 27.7836 21.9931C27.8433 21.897 27.8783 21.7858 27.885 21.6708C27.9921 20.1922 28.0193 18.7083 27.9666 17.2264ZM13.8421 5.78005C17.3383 -1.22181 21.6735 1.85702 21.86 2.05566C21.9532 2.4281 21.4288 10.8452 21.4055 11.6149L21.5104 15.898C20.2176 16.0457 18.9681 16.4799 17.8421 17.1726C16.7162 17.8654 15.7388 18.8013 14.9726 19.9203C14.3899 20.988 14.588 21.0997 14.4831 20.3921C14.4598 20.268 13.7955 5.87937 13.8421 5.78005ZM1.256 11.168C1.59396 9.78999 2.0135 6.28906 3.13226 5.89179C6.39534 4.72481 9.65841 4.43927 12.6884 6.20215C13.048 7.2679 13.2102 8.39777 13.1662 9.52928C13.1662 12.0743 13.2361 19.759 13.5158 22.0681C11.6607 21.1669 9.63303 20.7417 7.59568 20.8266C5.98414 20.9792 4.40824 21.4198 2.93415 22.1302C2.7943 22.1302 2.14169 22.8378 1.67553 23.1109C1.67553 22.9371 1.54734 22.7385 1.53569 22.6392C1.16277 19.2624 0.615036 14.8179 1.256 11.168ZM25.2163 23.3716C21.86 21.9439 19.1912 23.9675 16.8139 25.7801C16.3058 26.1422 15.7335 26.3897 15.1322 26.5071C14.5308 26.6245 13.9133 26.6095 13.3177 26.4629C8.80768 23.0613 7.0596 24.6876 2.98076 25.3456C2.77099 25.3456 2.60784 25.4573 2.50296 25.3456C2.39807 25.2338 2.28153 24.5138 2.0135 24.1041C2.51461 23.831 3.17888 23.3965 3.34203 23.3468C5.05514 22.7757 6.98968 21.4349 11.1851 22.6764C14.285 23.533 14.1218 24.9731 15.1707 24.3648C16.7323 23.4709 18.9815 20.7894 26.0204 21.6956C25.9498 21.7861 25.9125 21.9008 25.9155 22.0184C25.2279 23.3344 25.2629 23.2475 25.2163 23.3716Z" fill="#9E4423"/>
<path d="M4.25132 10.2609C5.4167 10.0871 5.32347 9.47876 6.86178 9.47876C7.71937 9.54506 8.5654 9.72865 9.379 10.025C9.60043 9.93811 9.76358 9.83879 9.76358 9.60291C9.76358 9.06908 9.06435 8.52284 8.00385 8.36145C4.9389 7.75313 4.64755 9.31737 4.06486 9.60291C4.01162 9.64962 3.97254 9.71205 3.95254 9.78236C3.93253 9.85267 3.93249 9.92771 3.95242 9.99804C3.97235 10.0684 4.01136 10.1309 4.06455 10.1776C4.11773 10.2244 4.18272 10.2534 4.25132 10.2609Z" fill="#9E4423"/>
<path d="M4.25254 14.644C5.41792 14.4702 5.32469 13.8619 6.86299 13.8619C7.72059 13.9282 8.56661 14.1118 9.38022 14.4081C9.60164 14.3337 9.7648 14.2219 9.7648 13.986C9.7648 13.4522 9.06557 12.9184 8.00507 12.7446C4.94011 12.1363 4.64877 13.6881 4.06607 13.986C4.00879 13.9798 3.95094 13.9887 3.89766 14.0119C3.84438 14.0352 3.79732 14.0721 3.76066 14.1194C3.724 14.1667 3.69888 14.223 3.68753 14.2831C3.67617 14.3432 3.67894 14.4054 3.69558 14.4642C3.71223 14.5229 3.74223 14.5763 3.78292 14.6197C3.82362 14.6631 3.87375 14.6952 3.92885 14.7129C3.98396 14.7307 4.04234 14.7338 4.09881 14.7217C4.15528 14.7097 4.20808 14.683 4.25254 14.644Z" fill="#9E4423"/>
<path d="M4.24975 19.0761C5.41514 18.9023 5.32191 18.294 6.86021 18.294C7.7169 18.3672 8.56212 18.5506 9.37744 18.8402C9.59886 18.7657 9.76201 18.654 9.76201 18.4305C9.76201 17.8843 9.06278 17.3505 8.00229 17.1891C4.93733 16.5808 4.64598 18.145 4.06329 18.4305C4.00509 18.422 3.9458 18.4292 3.89091 18.4516C3.83603 18.4739 3.7873 18.5106 3.74925 18.5583C3.7112 18.606 3.68504 18.6631 3.6732 18.7244C3.66135 18.7857 3.6642 18.8492 3.68148 18.909C3.69875 18.9689 3.72991 19.0231 3.77205 19.0667C3.8142 19.1103 3.86599 19.1419 3.92262 19.1585C3.97926 19.1752 4.03892 19.1764 4.0961 19.162C4.15327 19.1475 4.20612 19.118 4.24975 19.0761Z" fill="#9E4423"/>
</svg>
