<svg width="28" height="28" viewBox="0 0 28 28" fill="none" xmlns="http://www.w3.org/2000/svg">
<g clip-path="url(#clip0_74_884)">
<path d="M27.9996 11.1999C27.8946 8.8666 26.1213 5.5766 23.1113 3.17327C20.596 1.14165 17.4662 0.0229621 14.233 -6.4468e-05C10.7818 -0.0688447 7.42045 1.10266 4.75963 3.3016C2.10077 5.53022 0.424657 8.71482 0.0929686 12.1683C-0.117031 15.7383 0.442969 17.8266 1.6913 19.2616C2.93963 20.6966 5.1213 21.5949 8.08463 22.5866C8.18963 22.5866 8.22463 22.7616 8.28297 22.9366C8.41578 23.5321 8.41578 24.1495 8.28297 24.7449C8.14878 25.631 7.787 26.4672 7.23297 27.1716C7.17531 27.2474 7.14041 27.338 7.13235 27.4329C7.12429 27.5278 7.1434 27.623 7.18744 27.7074C7.23149 27.7918 7.29866 27.862 7.38109 27.9097C7.46353 27.9573 7.55783 27.9805 7.65297 27.9766C7.9962 27.9844 8.3395 27.9649 8.67963 27.9183C10.1452 27.7707 11.5618 27.3091 12.833 26.5649C13.2676 26.2469 13.6597 25.8744 13.9996 25.4566C14.8046 24.4766 15.493 23.2399 15.8896 22.7266C16.368 22.7266 17.523 22.7266 18.7363 22.5749C19.4277 22.5039 20.1137 22.387 20.7896 22.2249C23.1306 21.5943 25.1523 20.1134 26.4596 18.0716C27.6685 15.9944 28.2064 13.5944 27.9996 11.1999ZM25.6663 17.5933C24.5194 19.4744 22.7083 20.8566 20.5913 21.4666C19.9551 21.6328 19.3079 21.7536 18.6546 21.8283C17.1146 22.0149 15.8546 21.7466 15.4696 22.0266C15.0846 22.3066 14.3963 23.5783 13.6496 24.5466C13.2926 25.0426 12.8641 25.4829 12.378 25.8533C11.2153 26.5163 9.92061 26.9146 8.5863 27.0199C9.02777 26.1697 9.28235 25.2349 9.33297 24.2783C9.40261 23.652 9.33085 23.0181 9.12297 22.4233C9.06584 22.2408 8.96936 22.0731 8.84035 21.932C8.71134 21.7909 8.55293 21.6798 8.3763 21.6066C5.65797 20.6149 3.70963 19.9033 2.54297 18.5033C1.3763 17.1033 1.08464 15.3766 1.3763 12.2499C1.72094 9.14555 3.27113 6.30074 5.69297 4.32827C8.12535 2.34012 11.1853 1.28153 14.3263 1.3416C17.263 1.33942 20.115 2.3257 22.423 4.1416C25.1646 6.26494 26.868 9.15827 27.008 11.2583C27.2055 13.4652 26.7122 15.679 25.5963 17.5933H25.6663Z" fill="#5A7A61"/>
<path d="M8.97095 8.16621C9.36174 8.13615 9.75483 8.16366 10.1376 8.24787C10.5684 8.31089 10.9762 8.48195 11.323 8.74512C11.6698 9.00828 11.9443 9.35497 12.121 9.75287C12.1507 9.85319 12.2189 9.93767 12.3107 9.98793C12.4025 10.0382 12.5104 10.0502 12.611 10.0212C12.7036 9.98002 12.7776 9.90585 12.8185 9.81313C12.8595 9.72041 12.8645 9.61576 12.8326 9.51954C12.6925 8.92181 12.3944 8.37265 11.9696 7.92939C11.5448 7.48613 11.0089 7.165 10.4176 6.99954C9.43587 6.67597 8.3698 6.7216 7.41929 7.12787C6.8613 7.35566 6.36813 7.71759 5.98349 8.18159C5.59886 8.64559 5.33465 9.19732 5.21429 9.78787C5.19991 9.83229 5.19455 9.87913 5.19855 9.92564C5.20254 9.97215 5.2158 10.0174 5.23754 10.0587C5.25929 10.1 5.28907 10.1366 5.32515 10.1662C5.36123 10.1958 5.40287 10.2179 5.44762 10.2312C5.52899 10.2438 5.6122 10.2273 5.68261 10.1847C5.75303 10.142 5.80614 10.0758 5.83262 9.99787C6.01661 9.59108 6.29082 9.23154 6.63447 8.94652C6.97811 8.66149 7.38216 8.45848 7.81595 8.35287C8.19256 8.24674 8.58009 8.18411 8.97095 8.16621Z" fill="#5A7A61"/>
<path d="M20.6263 6.88342C20.1507 6.69857 19.6429 6.61128 19.1329 6.62675C18.62 6.62829 18.1125 6.73138 17.6396 6.93008C17.1078 7.16446 16.6319 7.50935 16.2437 7.94183C15.8555 8.37431 15.5637 8.88448 15.3879 9.43842C15.3554 9.52548 15.3564 9.62156 15.391 9.70787C15.4255 9.79417 15.491 9.8645 15.5746 9.90508C15.6597 9.94005 15.7552 9.94007 15.8404 9.90513C15.9256 9.87019 15.9935 9.80311 16.0296 9.71842C16.4829 8.9509 17.2208 8.39329 18.0829 8.16675C18.4329 8.0679 18.793 8.00919 19.1563 7.99175C19.7696 7.92983 20.3872 8.05774 20.9256 8.3582C21.4639 8.65866 21.897 9.11717 22.1663 9.67175C22.2054 9.76919 22.2806 9.8478 22.3762 9.89125C22.4718 9.9347 22.5804 9.93965 22.6796 9.90508C22.7288 9.88693 22.7739 9.8592 22.8123 9.8235C22.8507 9.78779 22.8817 9.74483 22.9033 9.6971C22.925 9.64936 22.9371 9.59779 22.9387 9.54538C22.9404 9.49297 22.9316 9.44075 22.9129 9.39175C22.7554 8.82353 22.4663 8.30037 22.069 7.86461C21.6718 7.42884 21.1775 7.09272 20.6263 6.88342Z" fill="#5A7A61"/>
<path d="M20.3471 13.8251C20.2974 13.8087 20.2448 13.8024 20.1926 13.8065C20.1404 13.8106 20.0895 13.825 20.0428 13.8488C19.9962 13.8727 19.9547 13.9055 19.9208 13.9455C19.887 13.9855 19.8614 14.0318 19.8455 14.0817C19.5537 14.6768 19.1222 15.1924 18.5879 15.5845C18.0536 15.9766 17.4323 16.2335 16.7771 16.3334C15.8745 16.5402 14.9496 16.6342 14.0238 16.6134C13.3307 16.603 12.6398 16.5328 11.9588 16.4034C10.1971 16.0534 8.68047 15.3184 8.28381 13.93C8.26169 13.8406 8.20518 13.7635 8.12655 13.7154C8.04792 13.6674 7.95351 13.6523 7.86381 13.6734C7.81892 13.6817 7.77617 13.699 7.73813 13.7242C7.7001 13.7495 7.66757 13.7821 7.6425 13.8203C7.61743 13.8584 7.60034 13.9013 7.59226 13.9462C7.58418 13.9911 7.58527 14.0372 7.59547 14.0817C7.88714 15.82 9.55547 17.0801 11.6788 17.6401C12.4406 17.841 13.2243 17.9468 14.0121 17.9551C14.7972 17.9588 15.58 17.8727 16.3455 17.6984C18.4338 17.1967 20.1488 16.0417 20.6038 14.3151C20.6333 14.216 20.6229 14.1094 20.575 14.0179C20.527 13.9264 20.4453 13.8572 20.3471 13.8251Z" fill="#5A7A61"/>
</g>
<defs>
<clipPath id="clip0_74_884">
<rect width="28" height="28" fill="white"/>
</clipPath>
</defs>
</svg>
