<svg width="28" height="28" viewBox="0 0 28 28" fill="none" xmlns="http://www.w3.org/2000/svg">
<path fill-rule="evenodd" clip-rule="evenodd" d="M11.6662 2.96319C11.4625 1.80369 10.8082 0.771921 9.84624 0.0931902C9.6025 -0.00241756 9.33164 -0.00241756 9.0879 0.0931902C8.77239 0.186728 8.46431 0.30372 8.16624 0.44319C7.36124 0.816524 6.52124 1.14319 5.71624 1.51652C5.35457 1.67986 4.9929 1.86652 4.6429 2.05319C4.29151 2.23044 3.95585 2.4373 3.63957 2.67152C3.46488 2.82409 3.3357 3.02191 3.26624 3.24319C3.20313 3.53538 3.20313 3.83767 3.26624 4.12986C3.37124 4.56152 3.5929 5.05152 3.6629 5.29652C3.9079 6.46319 4.3629 8.11986 4.7129 9.63652C3.42957 9.18152 1.99457 10.3832 1.85457 10.5115C1.54733 10.7854 1.31112 11.1296 1.16624 11.5149C1.00758 11.916 0.978519 12.3567 1.08314 12.7752C1.18776 13.1937 1.42081 13.5689 1.74957 13.8482C2.06671 14.1183 2.44535 14.3064 2.85221 14.3959C3.25906 14.4854 3.68168 14.4736 4.0829 14.3615C4.63544 14.1904 5.12307 13.8557 5.48135 13.4016C5.83963 12.9475 6.05171 12.3954 6.08957 11.8182C6.09203 11.4137 6.00015 11.0143 5.82124 10.6515C5.82124 10.3365 5.73957 10.0215 5.6929 9.69486C5.45957 8.10819 5.14457 6.31152 4.9929 5.12152C4.5379 3.02152 4.45624 3.82652 5.3429 3.37152L8.7729 1.76152C8.7729 1.76152 9.60124 0.466524 10.4996 3.27819C10.7338 4.03756 10.8864 4.81977 10.9546 5.61152C9.72957 5.03986 8.27124 6.06652 7.87457 6.43986C7.58749 6.69841 7.36733 7.02265 7.2329 7.38486C7.06561 7.78371 7.03086 8.22575 7.13378 8.64584C7.2367 9.06593 7.47185 9.44185 7.80457 9.71819C8.12116 9.98942 8.4993 10.1791 8.90601 10.2706C9.31273 10.3621 9.73566 10.3527 10.1379 10.2432C10.6913 10.0735 11.1798 9.73922 11.5383 9.28482C11.8968 8.83042 12.1083 8.27752 12.1446 7.69986C12.1512 7.40212 12.1038 7.10565 12.0046 6.82486C12.0714 5.52817 11.9575 4.2285 11.6662 2.96319ZM3.68624 12.8332C3.51925 12.8765 3.34474 12.8822 3.17528 12.8499C3.00582 12.8176 2.84563 12.7482 2.70624 12.6465C2.57407 12.5616 2.46879 12.4408 2.40268 12.2982C2.33658 12.1557 2.31238 11.9973 2.3329 11.8415C2.39214 11.5661 2.52523 11.312 2.7179 11.1065C4.12957 9.57819 4.9579 10.9082 4.84124 11.6549C4.79022 11.9449 4.65257 12.2127 4.44641 12.4231C4.24024 12.6334 3.97523 12.7764 3.68624 12.8332ZM9.69457 8.77319C9.52758 8.81646 9.35307 8.82217 9.18361 8.78989C9.01415 8.75761 8.85396 8.68816 8.71457 8.58652C8.57635 8.49902 8.46713 8.37255 8.40069 8.22306C8.33425 8.07357 8.31356 7.90776 8.34124 7.74652C8.39155 7.467 8.52113 7.20782 8.71457 6.99986C10.1262 5.45986 10.9546 6.81319 10.8496 7.54819C10.8011 7.84424 10.6652 8.11904 10.4594 8.33731C10.2536 8.55558 9.98726 8.70737 9.69457 8.77319Z" fill="#C25B30"/>
<path fill-rule="evenodd" clip-rule="evenodd" d="M17.9081 7.1398C18.0247 6.67313 18.0831 6.2648 18.2581 5.57647L18.3514 5.12147L18.7597 5.41313C19.0747 5.69313 19.2964 5.89147 19.3314 6.1598C19.3213 6.50789 19.2076 6.84505 19.0047 7.12813C18.9431 7.22916 18.9232 7.35025 18.9493 7.4657C18.9755 7.58114 19.0456 7.68186 19.1447 7.74647C19.1934 7.77827 19.248 7.79991 19.3053 7.81009C19.3625 7.82026 19.4212 7.81877 19.4779 7.8057C19.5346 7.79262 19.588 7.76823 19.635 7.734C19.682 7.69976 19.7216 7.65638 19.7514 7.60647C20.1054 7.18023 20.3175 6.65407 20.3581 6.10147C20.2983 5.51536 20.0191 4.97354 19.5764 4.5848L18.6664 3.7098L18.3747 3.4998C18.2271 3.4043 18.0498 3.36583 17.8758 3.3916C17.7019 3.41737 17.5433 3.5056 17.4297 3.6398C17.3025 3.80925 17.204 3.99843 17.1381 4.1998C17.0097 4.52647 16.9281 4.9348 16.8464 5.19147L16.2631 7.4198H16.1814C16.0224 7.40341 15.8621 7.40341 15.7031 7.4198C15.5328 7.3966 15.3601 7.3966 15.1897 7.4198C14.9976 7.44911 14.8144 7.52092 14.6535 7.63C14.4926 7.73908 14.3581 7.88268 14.2597 8.05034C14.1614 8.218 14.1016 8.40549 14.0849 8.59915C14.0682 8.79281 14.0949 8.98776 14.1631 9.1698C14.2004 9.37591 14.2807 9.57187 14.3987 9.74493C14.5167 9.91799 14.6698 10.0643 14.8481 10.1743C15.0263 10.2843 15.2257 10.3556 15.4333 10.3836C15.6409 10.4115 15.8521 10.3955 16.0531 10.3365C16.3611 10.227 16.632 10.0329 16.8347 9.77647C17.161 9.32979 17.4132 8.83342 17.5814 8.30647C17.7129 7.92426 17.822 7.53471 17.9081 7.1398ZM15.8781 8.62147C15.7964 8.79647 15.7614 8.9948 15.5981 9.0648C15.4347 9.1348 15.1664 8.8898 15.1664 8.65647C15.1477 8.56853 15.1625 8.4768 15.2078 8.39915C15.2531 8.3215 15.3257 8.2635 15.4114 8.23647H16.0764C16.0167 8.36801 15.9505 8.4965 15.8781 8.62147Z" fill="#C25B30"/>
<path fill-rule="evenodd" clip-rule="evenodd" d="M21.1045 20.6732C20.8245 20.6732 20.5562 20.6032 20.2879 20.5682C20.0242 20.5249 19.7632 20.4664 19.5062 20.3932C18.7945 20.2182 18.1762 20.0316 18.0129 19.6232C17.9994 19.5725 17.9759 19.525 17.9439 19.4834C17.9119 19.4418 17.8719 19.4069 17.8264 19.3809C17.7808 19.3548 17.7305 19.3381 17.6784 19.3316C17.6263 19.3252 17.5734 19.3291 17.5229 19.3432C17.4726 19.3554 17.4253 19.3776 17.3838 19.4085C17.3423 19.4393 17.3074 19.4783 17.2813 19.5229C17.2551 19.5676 17.2383 19.617 17.2317 19.6683C17.2251 19.7196 17.2289 19.7718 17.2429 19.8216C17.363 20.2613 17.5883 20.6652 17.8992 20.9985C18.2102 21.3319 18.5975 21.5846 19.0279 21.7349C19.3482 21.8909 19.6905 21.9972 20.0429 22.0499C20.3991 22.0969 20.76 22.0969 21.1162 22.0499C21.5409 22.002 21.957 21.896 22.3529 21.7349C22.8662 21.3032 22.7845 20.8599 22.3529 20.6849C21.8045 20.8599 21.6412 20.7082 21.1045 20.6732Z" fill="#C25B30"/>
<path fill-rule="evenodd" clip-rule="evenodd" d="M25.6664 13.4864L24.6748 11.5264C24.2081 10.6514 24.3598 10.0214 23.9631 9.33303C23.4919 8.60056 22.8251 8.01457 22.0381 7.64137C21.9522 7.60273 21.8554 7.59591 21.7649 7.62212C21.6745 7.64834 21.5963 7.70588 21.5444 7.78445C21.4925 7.86302 21.4702 7.9575 21.4816 8.05098C21.493 8.14446 21.5372 8.23085 21.6064 8.2947C22.181 8.67978 22.6471 9.20605 22.9598 9.82303C23.0494 10.1337 23.0888 10.4566 23.0764 10.7797C23.0941 11.2335 23.1806 11.6819 23.3331 12.1097C23.5431 12.5997 23.7414 13.0547 23.9164 13.4397C24.0743 13.7587 24.2536 14.0666 24.4531 14.3614C24.692 14.6608 24.9492 14.9452 25.2231 15.213C25.4098 15.4114 25.6198 15.5397 25.6548 15.738C25.6898 15.9364 25.5498 16.123 25.2464 16.4264L24.6981 16.8347C24.5739 16.9042 24.4403 16.9553 24.3014 16.9864C24.1344 16.9978 23.9668 16.9978 23.7998 16.9864C23.7376 16.9866 23.6762 17.0003 23.6199 17.0265C23.5635 17.0527 23.5134 17.0907 23.4731 17.138C23.3764 17.1793 23.2975 17.2535 23.2505 17.3476C23.2035 17.4416 23.1914 17.5493 23.2164 17.6514C23.4311 19.4716 22.9884 21.3087 21.9681 22.8314C21.5285 23.472 20.8882 23.9481 20.1481 24.1847C19.3439 24.4486 18.4906 24.5284 17.6514 24.418C17.5509 24.3948 17.4452 24.4125 17.3577 24.4672C17.2702 24.5219 17.208 24.6091 17.1848 24.7097C17.1616 24.8103 17.1793 24.9159 17.234 25.0034C17.2887 25.091 17.3759 25.1532 17.4764 25.1764C17.7827 25.2582 18.0947 25.3167 18.4098 25.3514C18.3218 25.6149 18.2746 25.8903 18.2698 26.168C18.303 26.3818 18.3659 26.5899 18.4564 26.7864C18.6033 27.0644 18.767 27.3332 18.9464 27.5914C18.9574 27.6487 18.98 27.7032 19.0126 27.7516C19.0453 27.8 19.0875 27.8413 19.1365 27.8729C19.1856 27.9045 19.2406 27.9259 19.2982 27.9356C19.3557 27.9454 19.4147 27.9434 19.4714 27.9297C19.5866 27.9019 19.6864 27.8303 19.7496 27.7301C19.8127 27.6298 19.8343 27.5089 19.8098 27.393C19.8276 27.0783 19.8276 26.7628 19.8098 26.448V26.0747C19.7779 25.9596 19.739 25.8466 19.6931 25.7364C19.6399 25.6324 19.5815 25.5312 19.5181 25.433C19.838 25.4369 20.1577 25.4174 20.4748 25.3747C21.5344 25.1558 22.4886 24.5842 23.1814 23.753C23.8078 22.8198 24.2073 21.7531 24.3481 20.638C24.4698 19.7116 24.4223 18.7708 24.2081 17.8614C24.344 17.8733 24.4806 17.8733 24.6164 17.8614C24.8003 17.8362 24.9804 17.7892 25.1531 17.7214L26.0281 17.2197C26.3276 17.0498 26.575 16.8014 26.7436 16.5012C26.9122 16.201 26.9956 15.8605 26.9848 15.5164C26.8331 14.9214 26.2031 14.3147 25.6664 13.4864Z" fill="#C25B30"/>
<path fill-rule="evenodd" clip-rule="evenodd" d="M8.91267 21.5364C8.58973 21.0375 8.29752 20.5193 8.03767 19.9848C7.77053 19.4682 7.55933 18.9245 7.40767 18.3631C7.30481 17.9808 7.23456 17.5906 7.19767 17.1964C7.16289 16.5358 7.16289 15.8737 7.19767 15.2131C7.20695 15.111 7.17529 15.0094 7.10965 14.9306C7.04402 14.8518 6.94978 14.8024 6.84767 14.7931C6.79711 14.7885 6.74614 14.7939 6.69767 14.809C6.6492 14.8241 6.60418 14.8486 6.56518 14.8811C6.48642 14.9467 6.43695 15.041 6.42767 15.1431C6.28506 15.8212 6.1799 16.5067 6.11267 17.1964C6.07182 17.6856 6.07182 18.1773 6.11267 18.6664C6.22682 19.3588 6.43076 20.0334 6.71934 20.6731C7.01348 21.2946 7.3817 21.8783 7.816 22.4114C8.55579 23.3205 9.4337 24.1079 10.4177 24.7448C10.3836 24.8518 10.3563 24.9609 10.336 25.0714C10.2987 25.1924 10.2791 25.3182 10.2777 25.4448V26.8448C10.2452 26.9592 10.2595 27.0819 10.3175 27.1859C10.3755 27.2898 10.4723 27.3664 10.5868 27.3989C10.7013 27.4314 10.824 27.4171 10.9279 27.3591C11.0319 27.3011 11.1085 27.2042 11.141 27.0898C11.3402 26.7443 11.5156 26.3857 11.666 26.0164C11.7226 25.8618 11.7618 25.7014 11.7827 25.5381C11.806 25.3717 11.806 25.2028 11.7827 25.0364C11.386 22.9364 11.036 24.7214 8.91267 21.5364Z" fill="#C25B30"/>
<path fill-rule="evenodd" clip-rule="evenodd" d="M19.424 12.2267C19.3073 12.2267 19.179 12.2267 19.0623 12.1567C18.7159 12.0991 18.3925 11.9455 18.129 11.7134C18.0779 11.6236 17.9933 11.5579 17.8938 11.5305C17.7942 11.5032 17.6879 11.5165 17.5981 11.5675C17.5084 11.6186 17.4426 11.7032 17.4153 11.8027C17.4017 11.852 17.398 11.9035 17.4044 11.9542C17.4107 12.005 17.427 12.0539 17.4523 12.0984C17.6094 12.6606 17.9716 13.1434 18.4673 13.4517C18.693 13.5938 18.9486 13.6816 19.214 13.7084C19.3917 13.7375 19.5729 13.7375 19.7506 13.7084C20.0904 13.6461 20.4122 13.5091 20.6926 13.3074C20.9731 13.1056 21.2052 12.8441 21.3723 12.5417C21.4119 12.4975 21.442 12.4455 21.4606 12.3891C21.4792 12.3327 21.486 12.2731 21.4805 12.214C21.475 12.1548 21.4574 12.0975 21.4288 12.0455C21.4001 11.9935 21.361 11.9479 21.314 11.9117C21.2737 11.8704 21.2257 11.8376 21.1726 11.8152C21.1195 11.7928 21.0624 11.7813 21.0048 11.7813C20.9472 11.7813 20.8901 11.7928 20.837 11.8152C20.7839 11.8376 20.7358 11.8704 20.6956 11.9117C20.5234 12.0606 20.3185 12.1667 20.0975 12.2214C19.8765 12.2761 19.6458 12.2779 19.424 12.2267Z" fill="#C25B30"/>
</svg>
