<svg width="64" height="64" viewBox="0 0 64 64" fill="none" xmlns="http://www.w3.org/2000/svg">

<g id="Waldorf Kindergarten &#38; TK in Santa Rosa | Summerfield">

<g id="Body">
<g id="Section">

<g id="Container">
<g id="Container:margin">
<g id="Container_2">
<g id="Container_3">
<g id="Container_4">
<g id="Text:margin">
<g id="Text">

<g id="Farming-Pine-Forrest--Streamline-Freehand">
<g id="Group">
<path id="Vector" d="M8.37329 42.4266C7.75996 42.4266 7.11996 42.6399 6.50663 42.6933H5.33329C4.84413 42.6974 4.36159 42.5801 3.92881 42.3521C3.49603 42.1241 3.12651 41.7924 2.85329 41.3866C2.66154 40.9683 2.56228 40.5135 2.56228 40.0533C2.56228 39.5931 2.66154 39.1383 2.85329 38.7199C3.36562 37.3469 4.15538 36.0942 5.17329 35.0399C6.18919 33.9717 7.36832 33.0716 8.66663 32.3733C8.95524 32.1993 9.17915 31.9359 9.3043 31.623C9.42945 31.3101 9.44899 30.9649 9.35996 30.6399C9.30769 30.2702 9.12112 29.9326 8.83586 29.6916C8.55059 29.4506 8.18659 29.323 7.81329 29.3333H7.67996L6.02663 29.0933C5.38663 28.9066 5.09329 28.5866 5.11996 28.1333C5.22652 27.2623 5.57789 26.4393 6.13329 25.7599C8.01836 22.6996 10.0935 19.7605 12.3466 16.9599C13.4933 15.7333 14.5066 14.7733 15.44 14.9333C15.5435 14.9608 15.6516 14.9664 15.7574 14.9499C15.8632 14.9335 15.9644 14.8952 16.0547 14.8375C16.1449 14.7798 16.2222 14.7041 16.2817 14.615C16.3411 14.5259 16.3814 14.4254 16.4 14.3199C16.4275 14.2148 16.4334 14.1051 16.4172 13.9976C16.4009 13.8901 16.363 13.787 16.3056 13.6947C16.2482 13.6023 16.1725 13.5227 16.0833 13.4605C15.9941 13.3984 15.8931 13.3551 15.7866 13.3333C14.4533 12.9866 12.72 13.8933 10.9333 15.5199C8.37972 18.1976 5.99301 21.0296 3.78663 23.9999C3.18525 24.6859 2.72688 25.4851 2.43839 26.3505C2.14991 27.216 2.03712 28.1303 2.10663 29.0399C2.21214 29.6157 2.45346 30.158 2.81058 30.6218C3.16769 31.0856 3.63029 31.4575 4.15996 31.7066C3.70624 32.1337 3.27879 32.5879 2.87996 33.0666C1.68177 34.4741 0.775316 36.1057 0.213294 37.8666C-0.0482276 38.6661 -0.121721 39.5152 -0.00146489 40.3477C0.118791 41.1802 0.429551 41.9738 0.906627 42.6666C1.4094 43.36 2.07807 43.9161 2.85143 44.2842C3.62479 44.6522 4.47812 44.8204 5.33329 44.7733C5.81538 44.7553 6.2961 44.7108 6.77329 44.6399C7.46663 44.6399 8.13329 44.3999 8.79996 44.2399C8.93222 44.23 9.06085 44.192 9.17728 44.1285C9.2937 44.0649 9.39524 43.9773 9.47513 43.8714C9.55502 43.7655 9.61143 43.6438 9.64059 43.5144C9.66976 43.3851 9.67101 43.2509 9.64426 43.121C9.61751 42.9911 9.56338 42.8684 9.48548 42.761C9.40758 42.6537 9.30769 42.5642 9.19247 42.4985C9.07725 42.4328 8.94935 42.3924 8.81729 42.38C8.68524 42.3676 8.55206 42.3835 8.42663 42.4266H8.37329Z" fill="#767D27"/>
<path id="Vector_2" d="M63.7062 38.6133C63.1502 36.8498 62.2431 35.2171 61.0396 33.8133C60.6407 33.3346 60.2133 32.8804 59.7596 32.4533C60.2892 32.2042 60.7518 31.8323 61.109 31.3685C61.4661 30.9047 61.7074 30.3624 61.8129 29.7867C61.8845 28.8728 61.7728 27.9538 61.4843 27.0838C61.1958 26.2137 60.7363 25.41 60.1329 24.72C57.9552 21.792 55.595 19.0042 53.0662 16.3733C51.2796 14.72 49.5462 13.7067 48.2129 14.16C48.0014 14.2107 47.8185 14.3427 47.7037 14.5274C47.5889 14.7121 47.5515 14.9346 47.5996 15.1467C47.6217 15.2503 47.6641 15.3486 47.7245 15.4357C47.7849 15.5228 47.862 15.597 47.9513 15.6541C48.0406 15.7112 48.1404 15.7499 48.2448 15.7681C48.3492 15.7863 48.4562 15.7835 48.5596 15.76C49.4929 15.6 50.5062 16.5333 51.6529 17.7867C53.9038 20.5609 55.979 23.4733 57.8662 26.5067C58.4216 27.186 58.773 28.009 58.8796 28.88C58.8796 29.3333 58.6129 29.6533 57.9729 29.84L56.3196 30.08H56.1862C55.8469 30.0875 55.5195 30.2065 55.2544 30.4185C54.9894 30.6306 54.8014 30.9239 54.7196 31.2533C54.6305 31.5783 54.6501 31.9235 54.7752 32.2364C54.9004 32.5493 55.1243 32.8127 55.4129 32.9867C56.7168 33.6762 57.8973 34.5773 58.9062 35.6533C59.9633 36.7279 60.7892 38.0075 61.3329 39.4133C61.5247 39.8317 61.6239 40.2865 61.6239 40.7467C61.6239 41.2069 61.5247 41.6616 61.3329 42.08C61.061 42.489 60.6925 42.8247 60.2599 43.0573C59.8273 43.2898 59.344 43.4121 58.8529 43.4133C58.4533 43.44 58.0525 43.44 57.6529 43.4133C57.0396 43.4133 56.3996 43.2533 55.7862 43.1467C55.546 43.0992 55.2967 43.1481 55.0922 43.2828C54.8876 43.4175 54.7442 43.6272 54.6929 43.8667C54.6657 43.9859 54.6629 44.1094 54.6847 44.2298C54.7065 44.3501 54.7524 44.4648 54.8196 44.5669C54.8869 44.6691 54.9741 44.7566 55.0761 44.8241C55.1781 44.8917 55.2926 44.9379 55.4129 44.96C56.0797 45.1343 56.7565 45.2678 57.4396 45.36C57.9151 45.444 58.3967 45.4886 58.8796 45.4933C59.7239 45.5368 60.5658 45.3695 61.3293 45.0063C62.0927 44.6432 62.7538 44.0958 63.2529 43.4133C63.6885 42.7004 63.9558 41.8975 64.0343 41.0657C64.1129 40.2339 64.0007 39.3952 63.7062 38.6133Z" fill="#767D27"/>
<path id="Vector_3" d="M36.7729 48.2133C36.53 48.2338 36.3047 48.3484 36.1452 48.5328C35.9858 48.7172 35.9048 48.9567 35.9196 49.2L35.6529 54.9866C35.6188 55.7098 35.5476 56.4308 35.4396 57.1466C34.2967 57.4246 33.122 57.5502 31.9462 57.52H29.8396H28.4796C28.1329 57.52 27.8929 57.52 27.7862 57.3066C27.5748 56.6958 27.4492 56.0587 27.4129 55.4133L27.2262 52.88V50.56C27.2476 49.8016 27.3099 49.045 27.4129 48.2933C27.4129 48.2933 27.4129 48.2933 27.4129 48.16H31.7329C31.8668 48.1829 32.0041 48.1762 32.1352 48.1405C32.2663 48.1049 32.3881 48.041 32.4919 47.9534C32.5958 47.8657 32.6792 47.7565 32.7365 47.6333C32.7938 47.5101 32.8234 47.3758 32.8234 47.24C32.8234 47.1041 32.7938 46.9699 32.7365 46.8467C32.6792 46.7234 32.5958 46.6142 32.4919 46.5266C32.3881 46.439 32.2663 46.3751 32.1352 46.3394C32.0041 46.3037 31.8668 46.2971 31.7329 46.32C27.6381 46.4316 23.5433 46.1008 19.5196 45.3333C16.7196 44.6666 14.6929 43.7066 15.5729 41.4933C16.3301 39.7514 17.4693 38.2021 18.9062 36.96C19.7594 36.1461 20.7416 35.4792 21.8129 34.9866C22.4796 34.9866 23.1196 34.7733 23.7596 34.64C24.0579 34.5716 24.3227 34.4007 24.5079 34.157C24.6931 33.9133 24.7869 33.6124 24.7729 33.3066C24.7478 33.0064 24.6154 32.7252 24.3999 32.5147C24.1844 32.3041 23.9003 32.1782 23.5996 32.16C23.1332 32.1286 22.6648 32.1737 22.2129 32.2933L20.4529 32.48C20.0367 32.4873 19.6245 32.397 19.2494 32.2164C18.8743 32.0358 18.5468 31.7699 18.2929 31.44C18.0756 31.0717 17.95 30.6566 17.9268 30.2296C17.9036 29.8026 17.9834 29.3763 18.1596 28.9866C18.6299 27.7132 19.3457 26.5444 20.2662 25.5466C21.1883 24.4763 22.289 23.574 23.5196 22.88C23.7761 22.7219 23.9777 22.4886 24.097 22.2119C24.2163 21.9351 24.2474 21.6284 24.1862 21.3333C24.0262 20.6933 21.0929 20 21.0929 20C20.5596 19.8133 20.3196 19.5466 20.3462 19.1466C20.4957 18.3169 20.8332 17.5324 21.3329 16.8533C23.1335 14.2559 25.1881 11.844 27.4662 9.65331C28.6272 8.34379 30.0193 7.25906 31.5729 6.45331C33.0383 7.35271 34.3374 8.49844 35.4129 9.83997C37.5196 12.0533 39.7862 14.8266 41.4662 16.9333C42.0138 17.5243 42.3675 18.2688 42.4796 19.0666C42.4796 19.4933 42.2396 19.7866 41.6796 19.9733L39.9995 20.2133C39.6844 20.2216 39.3808 20.333 39.1351 20.5305C38.8894 20.728 38.7153 21.0007 38.6396 21.3066C38.5643 21.6134 38.5884 21.9362 38.7082 22.2285C38.8279 22.5208 39.0373 22.7675 39.3062 22.9333C40.5401 23.6339 41.6486 24.5351 42.5862 25.6C43.5127 26.6135 44.2288 27.8009 44.6929 29.0933C44.8609 29.4896 44.9363 29.9189 44.9132 30.3487C44.8901 30.7785 44.7691 31.1974 44.5595 31.5733C44.3058 31.9118 43.9752 32.1851 43.595 32.3706C43.2147 32.556 42.7958 32.6484 42.3729 32.64L40.6129 32.4533C40.1585 32.3484 39.6923 32.3036 39.2262 32.32C38.9354 32.3388 38.6613 32.4628 38.4552 32.6689C38.2491 32.875 38.125 33.1491 38.1062 33.44C38.0931 33.7285 38.1822 34.0123 38.3578 34.2416C38.5334 34.4709 38.7843 34.6308 39.0662 34.6933C40.7574 34.9764 42.3781 35.583 43.8396 36.48C45.3161 37.399 46.5289 38.6853 47.3596 40.2133C47.6891 40.8546 47.8367 41.574 47.7862 42.2933C47.7582 43.055 47.6235 43.809 47.3862 44.5333C47.1472 44.7001 46.8872 44.8346 46.6129 44.9333C45.4158 45.3213 44.183 45.5893 42.9329 45.7333C40.174 46.1229 37.3971 46.3721 34.6129 46.48C34.5078 46.4834 34.4044 46.5075 34.3087 46.551C34.2129 46.5944 34.1267 46.6562 34.0549 46.733C33.9831 46.8098 33.9271 46.9 33.8901 46.9984C33.8532 47.0968 33.836 47.2016 33.8396 47.3066C33.8715 47.5021 33.9725 47.6795 34.1242 47.8068C34.2759 47.934 34.4682 48.0026 34.6662 48C38.476 47.9868 42.2773 47.6388 46.0262 46.96C47.8929 46.5333 48.9596 45.7866 49.1996 45.1466C49.6018 44.0173 49.8004 42.8254 49.7862 41.6266C49.7689 40.7677 49.5689 39.9223 49.1996 39.1466C48.209 37.3628 46.8223 35.8302 45.1462 34.6666H44.9596C45.6522 34.3083 46.2472 33.7866 46.6929 33.1466C47.1445 32.446 47.4256 31.6492 47.5136 30.8202C47.6016 29.9912 47.494 29.1532 47.1996 28.3733C46.677 26.7196 45.814 25.1935 44.6662 23.8933C44.2847 23.4496 43.875 23.0309 43.4396 22.64C43.946 22.38 44.3824 22.002 44.7119 21.5379C45.0415 21.0738 45.2545 20.5371 45.3329 19.9733C45.4237 19.0932 45.3334 18.2038 45.0674 17.3599C44.8014 16.516 44.3654 15.7356 43.7862 15.0666C41.5061 12.085 39.0577 9.23595 36.4529 6.53331C34.6662 4.74664 33.1462 3.30664 31.4129 3.30664C29.0337 4.07683 26.9242 5.51092 25.3329 7.43997C22.9051 9.78834 20.7248 12.3797 18.8262 15.1733C17.797 16.534 17.2865 18.2169 17.3862 19.92C17.4634 20.4913 17.6818 21.0343 18.0217 21.4999C18.3616 21.9656 18.8123 22.3391 19.3329 22.5866C17.6012 24.1373 16.305 26.1138 15.5729 28.32C15.284 29.079 15.1723 29.8939 15.2462 30.7027C15.3202 31.5114 15.5778 32.2926 15.9996 32.9866C16.4825 33.6908 17.1456 34.2526 17.9196 34.6133C15.9343 36.2438 14.3856 38.3423 13.4129 40.72C12.2662 43.68 13.7329 45.6533 16.8262 46.8C19.7048 47.6773 22.6969 48.1266 25.7062 48.1333C25.5462 48.72 25.4129 49.3333 25.3062 49.92C25.1462 50.9066 25.0129 51.8666 24.9062 52.8533L24.7462 55.52C24.6111 56.7565 24.8332 58.0058 25.3862 59.12C25.6856 59.5576 26.082 59.92 26.5446 60.1791C27.0072 60.4381 27.5234 60.5867 28.0529 60.6133H29.7329H31.9996C33.1002 60.6036 34.1978 60.4965 35.2796 60.2933C36.0659 60.1413 36.7685 59.7045 37.2529 59.0666C37.6067 58.5214 37.8261 57.8999 37.8929 57.2533C37.9586 56.517 37.9586 55.7763 37.8929 55.04L37.5462 49.0933C37.5372 48.8804 37.4555 48.677 37.3148 48.5169C37.1741 48.3568 36.9829 48.2497 36.7729 48.2133Z" fill="#767D27"/>
<path id="Vector_4" d="M17.3064 51.5733C17.0635 51.5732 16.83 51.6679 16.6557 51.8372C16.4814 52.0065 16.3801 52.2371 16.3731 52.48V54.16V55.2533C15.7518 55.3004 15.1278 55.3004 14.5065 55.2533H12.4265C12.4265 55.2533 12.2398 54.48 12.1865 53.8933L11.9198 51.9467V48.3733C11.9373 48.2683 11.9339 48.1608 11.9099 48.057C11.8859 47.9533 11.8417 47.8553 11.7797 47.7686C11.7178 47.6819 11.6395 47.6083 11.5491 47.5519C11.4588 47.4955 11.3582 47.4575 11.2531 47.44C11.1481 47.4225 11.0406 47.4258 10.9368 47.4499C10.8331 47.4739 10.735 47.5181 10.6484 47.58C10.5617 47.6419 10.4881 47.7203 10.4317 47.8107C10.3753 47.901 10.3373 48.0016 10.3198 48.1067L9.62645 51.8933L9.43978 54.0267C9.38595 54.9315 9.51286 55.838 9.81312 56.6933C10.0177 57.149 10.3461 57.5381 10.761 57.8163C11.1759 58.0945 11.6605 58.2505 12.1598 58.2667H13.3331H14.8531C15.6087 58.2191 16.3585 58.1031 17.0931 57.92C17.6973 57.7572 18.214 57.3649 18.5331 56.8267C18.7226 56.4368 18.8141 56.0066 18.7998 55.5733C18.7998 54.64 18.3998 53.2533 18.3464 52.64C18.3682 52.4972 18.3566 52.3514 18.3124 52.2139C18.2683 52.0764 18.1929 51.9511 18.0921 51.8477C17.9913 51.7443 17.8678 51.6657 17.7315 51.6181C17.5952 51.5705 17.4497 51.5552 17.3064 51.5733Z" fill="#767D27"/>
<path id="Vector_5" d="M53.7871 48.7999C53.771 48.6942 53.7338 48.5928 53.6779 48.5017C53.6219 48.4106 53.5482 48.3316 53.4612 48.2695C53.3742 48.2073 53.2756 48.1633 53.1713 48.1399C53.0669 48.1165 52.959 48.1142 52.8538 48.1333C52.7464 48.1457 52.6428 48.1805 52.5498 48.2354C52.4567 48.2903 52.3761 48.3641 52.3133 48.452C52.2505 48.5399 52.2068 48.6401 52.1851 48.7459C52.1633 48.8518 52.164 48.961 52.1871 49.0666V52.6399L51.9204 54.5599C51.9204 55.1733 51.7604 56.0533 51.7604 56.0533C51.7604 56.0533 48.0538 56.3466 47.8671 56.2666C47.6804 56.1866 47.7338 56.0266 47.7338 55.5466V53.3066C47.7338 53.0591 47.6354 52.8217 47.4604 52.6466C47.2854 52.4716 47.048 52.3733 46.8004 52.3733C46.5575 52.3802 46.3269 52.4816 46.1576 52.6559C45.9883 52.8302 45.8937 53.0636 45.8938 53.3066C45.8938 53.9466 45.4671 55.3066 45.4404 56.2666C45.4446 56.698 45.5353 57.1242 45.7071 57.5199C46.0262 58.0582 46.5429 58.4505 47.1471 58.6133C47.8821 58.7896 48.6321 58.8968 49.3871 58.9333H50.9071H52.0538C52.553 58.9171 53.0377 58.7611 53.4526 58.4829C53.8675 58.2048 54.1959 57.8157 54.4004 57.3599C54.7042 56.5055 54.8312 55.5983 54.7738 54.6933L54.5871 52.5599L53.7871 48.7999Z" fill="#767D27"/>
</g>
</g>
</g>
</g>
</g>
</g>
</g>
</g>
</g>
</g>
</g>
</g>

</svg>
