<svg width="64" height="64" viewBox="0 0 64 64" fill="none" xmlns="http://www.w3.org/2000/svg">

<g id="Waldorf Kindergarten &#38; TK in Santa Rosa | Summerfield">

<g id="Body">
<g id="Section">

<g id="Container">
<g id="Container:margin">
<g id="Container_2">
<g id="Container_3">
<g id="Container_4">
<g id="Text:margin">
<g id="Text">

<g id="Family-Child-Play-Sand--Streamline-Freehand">
<g id="Group">
<path id="Vector" fill-rule="evenodd" clip-rule="evenodd" d="M51.7326 44.9067C53.8347 44.6738 55.8578 43.9721 57.6526 42.8533C58.634 42.2136 59.4548 41.3564 60.0513 40.3483C60.6479 39.3401 61.0042 38.2081 61.0926 37.04C61.2917 34.7192 60.5951 32.4103 59.146 30.5867C58.0322 29.3355 56.5457 28.4755 54.906 28.1333C54.1163 27.9439 53.3143 27.8103 52.506 27.7333C52.106 26.5067 51.5726 25.3067 51.0393 24.08C51.7167 24.0226 52.3868 23.8975 53.0393 23.7067C55.4297 22.9303 57.4755 21.3464 58.826 19.2267C59.371 18.3957 59.8099 17.4999 60.1326 16.56C60.5339 15.1607 60.7755 13.7204 60.8526 12.2667C61.5193 1.25334 51.9193 0.66667 47.5193 2.26667C44.551 3.3476 42.1086 5.52288 40.6926 8.34667C39.4596 10.9406 39.2702 13.909 40.1635 16.6386C41.0568 19.3682 42.9646 21.6503 45.4926 23.0133C46.6095 23.5681 47.8226 23.9031 49.066 24L49.5726 27.5467C48.2218 27.5221 46.8752 27.3883 45.546 27.1467C42.6644 26.4408 39.9474 25.182 37.546 23.44C35.0483 21.8201 32.995 19.6018 31.5726 16.9867C31.532 16.8875 31.4718 16.7976 31.3957 16.7222C31.3196 16.6467 31.2291 16.5873 31.1296 16.5475C31.0301 16.5078 30.9237 16.4883 30.8165 16.4905C30.7094 16.4926 30.6038 16.5163 30.506 16.56C30.4101 16.6004 30.3234 16.6598 30.251 16.7345C30.1786 16.8093 30.1221 16.8978 30.0847 16.9949C30.0474 17.092 30.03 17.1957 30.0337 17.2996C30.0373 17.4036 30.0619 17.5058 30.106 17.6C31.4596 20.6127 33.5506 23.2357 36.186 25.2267C38.7252 27.3563 41.662 28.9606 44.826 29.9467C46.5042 30.285 48.208 30.4813 49.9193 30.5333C49.9193 31.2267 50.1593 31.8933 50.3193 32.5867C50.4793 33.28 50.8526 34.5867 51.0393 35.6C51.1869 36.2954 51.2938 36.9988 51.3593 37.7067C51.3592 37.9496 51.4539 38.1831 51.6232 38.3574C51.7925 38.5317 52.0231 38.6331 52.266 38.64C52.507 38.6337 52.7368 38.5369 52.9097 38.3689C53.0826 38.2009 53.186 37.974 53.1993 37.7333C53.3196 36.4294 53.3196 35.1172 53.1993 33.8133C53.1993 32.8267 53.0393 31.8667 52.9593 30.9067L54.026 31.0933C55.0395 31.2777 55.9711 31.7714 56.6926 32.5067C57.726 33.7019 58.2606 35.2484 58.186 36.8267C58.1665 37.5974 57.9715 38.3535 57.6156 39.0374C57.2598 39.7214 56.7526 40.3151 56.1326 40.7733C54.679 41.8071 53.0109 42.4998 51.2526 42.8C49.4479 43.123 47.6043 43.168 45.786 42.9333C45.6667 42.9145 45.5449 42.9196 45.4277 42.9485C45.3105 42.9773 45.2002 43.0293 45.1033 43.1013C45.0065 43.1733 44.925 43.264 44.8636 43.3679C44.8022 43.4719 44.7622 43.5871 44.746 43.7067C44.7144 43.9425 44.7741 44.1816 44.9129 44.3749C45.0517 44.5682 45.259 44.7012 45.4926 44.7467C47.5505 45.1348 49.6575 45.1889 51.7326 44.9067ZM43.0926 15.5733C42.386 13.5521 42.4429 11.3422 43.2526 9.36C44.2276 7.03018 46.0745 5.17368 48.3993 4.18667C52.5593 2.32 59.626 2.96 58.586 12.0267C58.4664 13.0728 58.2613 14.1074 57.9726 15.12C57.6792 16.0718 57.2383 16.9716 56.666 17.7867C55.5801 19.309 54.0102 20.4183 52.2126 20.9333C51.3583 21.1728 50.4644 21.2372 49.5846 21.1226C48.7048 21.008 47.8571 20.7169 47.0926 20.2667C45.2021 19.2532 43.771 17.5549 43.0926 15.52V15.5733Z" fill="#767D27"/>
<path id="Vector_2" fill-rule="evenodd" clip-rule="evenodd" d="M44.4262 55.4134C42.8789 53.7464 41.4614 51.9634 40.1862 50.08C39.1619 47.6779 38.2717 45.2208 37.5196 42.72C37.246 42.0397 36.9066 41.3877 36.5062 40.7734C35.4025 39.3894 34.2182 38.0715 32.9596 36.8267C32.74 36.5595 32.5437 36.274 32.3729 35.9734C32.2141 35.5483 32.0893 35.1114 31.9996 34.6667C31.5462 33.3334 31.2529 32 30.7196 30.64C29.0694 26.4309 26.2119 22.8033 22.5062 20.2133C21.1204 19.3367 19.5281 18.8406 17.8896 18.7751C16.2511 18.7096 14.6243 19.0769 13.1729 19.84C12.5836 20.1421 12.0136 20.4806 11.4662 20.8534C10.6954 21.415 9.96473 22.0298 9.27957 22.6934C8.58263 23.3606 7.94056 24.083 7.35957 24.8533C6.50624 25.9467 5.75957 27.0934 4.95957 28.24C4.15957 29.3867 2.66624 31.1734 1.75957 32.6934C1.04596 33.7611 0.455535 34.9061 -0.000426382 36.1067C-0.0392501 36.2047 -0.0583151 36.3094 -0.0565253 36.4149C-0.0547356 36.5203 -0.0321263 36.6243 0.0100026 36.7209C0.0521315 36.8176 0.112949 36.905 0.188958 36.978C0.264968 37.0511 0.35467 37.1084 0.452907 37.1467C0.55093 37.1855 0.65566 37.2046 0.761077 37.2028C0.866493 37.201 0.970516 37.1784 1.06716 37.1363C1.16381 37.0941 1.25118 37.0333 1.32425 36.9573C1.39731 36.8813 1.45463 36.7916 1.49291 36.6934C1.94506 35.6355 2.51774 34.6333 3.19957 33.7067C4.23957 32.24 5.43957 30.9067 6.55957 29.4667C7.67957 28.0267 8.18624 27.3334 9.06624 26.32C9.62085 25.6766 10.2177 25.0708 10.8529 24.5067C11.3899 24.0506 11.9507 23.6233 12.5329 23.2267C13.0772 22.8496 13.6579 22.528 14.2662 22.2667C15.3205 21.7757 16.4841 21.5668 17.6433 21.6603C18.8025 21.7537 19.9176 22.1465 20.8796 22.8C24.0353 25.1343 26.4517 28.3283 27.8396 32C28.3996 33.1734 28.6662 34.5333 29.1196 35.76C29.3586 36.3979 29.653 37.0136 29.9996 37.6C30.2622 38.045 30.5658 38.4646 30.9062 38.8533C32.1542 39.968 33.3383 41.1521 34.4529 42.4C34.7885 42.8762 35.0744 43.3855 35.3062 43.92C36.4529 46.3467 36.9062 49.04 38.2929 51.36C38.6292 51.9014 39.0035 52.4182 39.4129 52.9067C41.0306 54.4736 42.5199 56.1679 43.8662 57.9734C43.916 58.0905 43.9899 58.1959 44.0832 58.2827C44.1764 58.3694 44.2868 58.4355 44.4073 58.4767C44.5278 58.5179 44.6556 58.5333 44.7824 58.5218C44.9092 58.5104 45.0322 58.4723 45.1433 58.4102C45.2545 58.348 45.3512 58.2631 45.4274 58.1611C45.5035 58.059 45.5573 57.9421 45.5853 57.8179C45.6132 57.6936 45.6147 57.5649 45.5896 57.4401C45.5645 57.3153 45.5134 57.1971 45.4396 57.0934C45.1476 56.507 44.8087 55.9451 44.4262 55.4134Z" fill="#767D27"/>
<path id="Vector_3" fill-rule="evenodd" clip-rule="evenodd" d="M62.2129 48.16C61.6539 47.6546 60.9887 47.281 60.2662 47.0667C59.392 46.8337 58.5001 46.6732 57.5995 46.5867C57.4962 46.5674 57.3901 46.5686 57.2873 46.5903C57.1845 46.6121 57.0869 46.6538 57.0003 46.7133C56.9136 46.7727 56.8395 46.8486 56.7822 46.9367C56.7248 47.0248 56.6854 47.1233 56.6662 47.2266C56.6431 47.3303 56.6415 47.4375 56.6616 47.5418C56.6817 47.646 56.7231 47.745 56.7832 47.8326C56.8432 47.9201 56.9206 47.9944 57.0106 48.0507C57.1006 48.107 57.2012 48.1442 57.3062 48.16C58.1064 48.3482 58.891 48.5978 59.6529 48.9067C60.0232 49.0949 60.3501 49.3583 60.6129 49.68C60.9254 50.1442 61.1327 50.6712 61.2202 51.2239C61.3077 51.7767 61.2734 52.3419 61.1195 52.88C61.0592 53.3808 60.8833 53.8608 60.6056 54.2819C60.3279 54.7031 59.9561 55.0539 59.5195 55.3067C58.1123 56.1567 56.4355 56.4425 54.8262 56.1067C53.0396 55.6291 51.3326 54.8924 49.7595 53.92C49.6609 53.8516 49.5493 53.8042 49.4316 53.7806C49.3139 53.757 49.1927 53.7577 49.0753 53.7826C48.9579 53.8076 48.8468 53.8563 48.749 53.9258C48.6511 53.9953 48.5685 54.0841 48.5062 54.1867C48.3755 54.3883 48.3302 54.6335 48.3802 54.8685C48.4302 55.1035 48.5714 55.309 48.7729 55.44C50.7104 57.1003 53.013 58.279 55.4929 58.88C57.3134 59.1644 59.1772 58.8755 60.8262 58.0533C61.7043 57.5905 62.4539 56.917 63.0077 56.0932C63.5615 55.2695 63.9023 54.3212 63.9995 53.3333C64.1144 52.3919 64.0133 51.4367 63.7037 50.5403C63.3941 49.6439 62.8842 48.8298 62.2129 48.16Z" fill="#767D27"/>
<path id="Vector_4" fill-rule="evenodd" clip-rule="evenodd" d="M11.5725 41.3067C11.0755 40.9863 10.5372 40.7351 9.97246 40.56C9.7163 40.5191 9.45528 40.5191 9.19913 40.56C8.95052 40.5619 8.70513 40.6164 8.47913 40.72C7.96482 40.9713 7.48893 41.2945 7.06579 41.68C6.96249 41.7063 6.86537 41.7526 6.77997 41.8164C6.69458 41.8802 6.62259 41.9602 6.56812 42.0519C6.51364 42.1435 6.47774 42.2449 6.46247 42.3504C6.4472 42.4559 6.45286 42.5634 6.47913 42.6667C6.50539 42.77 6.55175 42.8671 6.61555 42.9525C6.67934 43.0379 6.75934 43.1099 6.85096 43.1644C6.94258 43.2188 7.04403 43.2547 7.14953 43.27C7.25502 43.2853 7.36249 43.2796 7.46579 43.2534C8.07913 43.2534 8.42579 43.5467 8.90579 43.6267C9.07442 43.64 9.24383 43.64 9.41246 43.6267C9.98952 43.4405 10.5772 43.2891 11.1725 43.1734C11.2898 43.1996 11.4111 43.2025 11.5295 43.1819C11.648 43.1613 11.7612 43.1175 11.8627 43.0531C11.9642 42.9887 12.0521 42.905 12.1213 42.8067C12.1904 42.7083 12.2395 42.5973 12.2658 42.48C12.2921 42.3627 12.295 42.2414 12.2743 42.1229C12.2537 42.0045 12.2099 41.8913 12.1456 41.7898C12.0812 41.6882 11.9974 41.6004 11.8991 41.5312C11.8008 41.4621 11.6898 41.413 11.5725 41.3867V41.3067Z" fill="#767D27"/>
<path id="Vector_5" fill-rule="evenodd" clip-rule="evenodd" d="M19.2258 32.4C18.789 32.0837 18.325 31.8071 17.8391 31.5733C17.6272 31.4732 17.4031 31.4015 17.1724 31.36H16.5058C15.9509 31.4781 15.4132 31.6663 14.9058 31.92C14.8007 31.9164 14.696 31.9336 14.5975 31.9706C14.4991 32.0075 14.4089 32.0635 14.3321 32.1353C14.2554 32.2071 14.1935 32.2934 14.1501 32.3891C14.1067 32.4849 14.0825 32.5882 14.0791 32.6933C14.0847 32.9018 14.1665 33.101 14.309 33.2533C14.4514 33.4057 14.6448 33.5005 14.8524 33.52C15.3591 33.76 15.6524 34.0533 16.1858 34.2667C16.3646 34.3444 16.5529 34.3982 16.7458 34.4267H17.3324C17.8658 34.4267 18.2658 34.24 18.7991 34.1867C19.036 34.2432 19.2857 34.2034 19.4933 34.0758C19.7008 33.9483 19.8492 33.7436 19.9058 33.5067C19.9623 33.2697 19.9225 33.02 19.795 32.8125C19.6674 32.6049 19.4627 32.4566 19.2258 32.4Z" fill="#767D27"/>
<path id="Vector_6" fill-rule="evenodd" clip-rule="evenodd" d="M31.6529 56.2667C31.3397 56.1276 31.0069 56.0377 30.6663 56C30.3152 55.92 29.9507 55.92 29.5996 56C28.8529 56.2534 28.1893 56.705 27.6796 57.3067C27.5868 57.3575 27.5049 57.426 27.4386 57.5084C27.3723 57.5909 27.3229 57.6855 27.2932 57.7871C27.2635 57.8886 27.254 57.995 27.2654 58.1002C27.2768 58.2053 27.3088 58.3072 27.3596 58.4C27.4104 58.4928 27.4789 58.5747 27.5614 58.641C27.6438 58.7073 27.7385 58.7567 27.84 58.7864C27.9415 58.8162 28.0479 58.8256 28.1531 58.8142C28.2583 58.8028 28.3601 58.7708 28.4529 58.72C28.9658 58.7113 29.4774 58.7741 29.9729 58.9067H30.5063C31.2022 58.774 31.917 58.774 32.6129 58.9067C32.7155 58.9674 32.8294 59.0067 32.9476 59.0221C33.0658 59.0375 33.1859 59.0287 33.3006 58.9963C33.4153 58.9639 33.5222 58.9085 33.6149 58.8335C33.7075 58.7585 33.784 58.6654 33.8396 58.56C33.902 58.457 33.9432 58.3426 33.9608 58.2235C33.9785 58.1044 33.9722 57.9829 33.9424 57.8662C33.9127 57.7496 33.8599 57.64 33.7873 57.5439C33.7147 57.4478 33.6237 57.3672 33.5196 57.3067C32.9684 56.8456 32.3351 56.4927 31.6529 56.2667Z" fill="#767D27"/>
<path id="Vector_7" fill-rule="evenodd" clip-rule="evenodd" d="M27.8658 48C27.9561 47.7767 27.9566 47.5271 27.8671 47.3035C27.7777 47.0798 27.6052 46.8994 27.3858 46.8C26.9545 46.3869 26.4474 46.0609 25.8925 45.84C25.6834 45.7379 25.4575 45.6746 25.2258 45.6533C25.0143 45.6136 24.7973 45.6136 24.5858 45.6533C24.0864 45.8089 23.604 46.0144 23.1458 46.2667C23.0407 46.2594 22.9352 46.273 22.8354 46.3067C22.7355 46.3403 22.6433 46.3933 22.564 46.4627C22.4847 46.5321 22.4199 46.6164 22.3733 46.7109C22.3267 46.8054 22.2993 46.9082 22.2925 47.0133C22.2851 47.2282 22.3617 47.4375 22.5061 47.5968C22.6505 47.7561 22.8513 47.8529 23.0658 47.8667C23.541 48.1821 24.0511 48.4415 24.5858 48.64C24.8588 48.6932 25.1395 48.6932 25.4125 48.64C25.8254 48.5431 26.244 48.4718 26.6658 48.4267C26.8827 48.5207 27.1272 48.529 27.3499 48.4498C27.5726 48.3706 27.757 48.2099 27.8658 48Z" fill="#767D27"/>
<path id="Vector_8" fill-rule="evenodd" clip-rule="evenodd" d="M8.5591 59.8667C7.79795 59.4412 6.94977 59.1949 6.0791 59.1467C5.7358 59.0784 5.38241 59.0784 5.0391 59.1467C4.69593 59.1876 4.36226 59.2868 4.05244 59.44C3.34325 59.8299 2.70349 60.3345 2.1591 60.9333C2.0663 60.9841 1.98441 61.0527 1.91811 61.1351C1.8518 61.2175 1.80238 61.3122 1.77267 61.4137C1.74295 61.5152 1.73353 61.6216 1.74493 61.7268C1.75632 61.832 1.78833 61.9338 1.8391 62.0267C1.88988 62.1195 1.95844 62.2013 2.04087 62.2676C2.12329 62.334 2.21797 62.3834 2.3195 62.4131C2.42102 62.4428 2.52741 62.4522 2.63257 62.4408C2.73774 62.4294 2.83964 62.3974 2.93244 62.3466H5.1191C5.51612 62.2861 5.90825 62.197 6.29244 62.08C6.83595 61.8406 7.41049 61.679 7.9991 61.6C8.1111 61.637 8.22939 61.6511 8.34694 61.6414C8.46449 61.6318 8.5789 61.5986 8.68338 61.5439C8.78786 61.4892 8.88027 61.414 8.95512 61.3229C9.02997 61.2317 9.08574 61.1264 9.1191 61.0133C9.19571 60.787 9.17986 60.5395 9.07499 60.3248C8.97012 60.1101 8.78472 59.9454 8.5591 59.8667Z" fill="#767D27"/>
</g>
</g>
</g>
</g>
</g>
</g>
</g>
</g>
</g>
</g>
</g>
</g>

</svg>
