<svg width="18" height="18" viewBox="0 0 18 18" fill="none" xmlns="http://www.w3.org/2000/svg">
<g clip-path="url(#clip0_72_334)">
<mask id="mask0_72_334" style="mask-type:luminance" maskUnits="userSpaceOnUse" x="0" y="0" width="18" height="18">
<path d="M17.5 0.5V17.5H0.5V0.5H17.5Z" fill="white" stroke="white"/>
</mask>
<g mask="url(#mask0_72_334)">
<path d="M3.25488 9.43701L8.68807 14.8702C8.72827 14.9104 8.77422 14.9449 8.82591 14.9678C8.8776 14.9908 8.93503 15.0023 8.99246 15.0023C9.0499 15.0023 9.10733 14.9908 9.15902 14.9678C9.21071 14.9449 9.2624 14.9104 9.29686 14.8702L14.73 9.43701" stroke="#9AA233" stroke-width="1.71" stroke-linecap="round" stroke-linejoin="round"/>
<path d="M3.25488 3.43457L8.68807 8.86776C8.72827 8.90796 8.77422 8.94242 8.82591 8.9654C8.8776 8.98837 8.93503 8.99986 8.99246 8.99986C9.0499 8.99986 9.10733 8.98837 9.15902 8.9654C9.21071 8.94242 9.2624 8.90796 9.29686 8.86776L14.73 3.43457" stroke="#9AA233" stroke-width="1.71" stroke-linecap="round" stroke-linejoin="round"/>
</g>
</g>
<defs>
<clipPath id="clip0_72_334">
<rect width="18" height="18" fill="white"/>
</clipPath>
</defs>
</svg>
