<svg width="28" height="28" viewBox="0 0 28 28" fill="none" xmlns="http://www.w3.org/2000/svg">
<g clip-path="url(#clip0_74_881)">
<path fill-rule="evenodd" clip-rule="evenodd" d="M22.9359 18.8415C22.4249 18.0095 21.6152 17.4043 20.6726 17.1498C19.5742 16.8866 18.4249 16.9269 17.3476 17.2665C17.0104 14.8546 16.3471 12.4998 15.3759 10.2665C14.6526 8.98314 13.7309 8.62147 12.8326 9.26314C12.4829 9.54874 12.2235 9.9297 12.0859 10.3598C11.8683 11.1198 11.7429 11.9032 11.7126 12.6931C11.7155 14.9028 11.8754 17.1095 12.1909 19.2965C11.7948 18.9765 11.369 18.6953 10.9193 18.4565C9.75261 17.8848 8.58595 17.8615 8.10761 18.6198C7.864 18.978 7.70758 19.3882 7.65086 19.8177C7.59414 20.2472 7.63869 20.684 7.78095 21.0931C8.45059 22.648 9.30448 24.1168 10.3243 25.4681C10.9279 26.2798 11.5744 27.0586 12.2609 27.8015C12.3332 27.8782 12.4229 27.9363 12.5224 27.9708C12.622 28.0053 12.7284 28.0153 12.8326 27.9998C12.8834 27.9856 12.9307 27.9609 12.9712 27.9271C13.0117 27.8934 13.0447 27.8514 13.0678 27.804C13.091 27.7566 13.1038 27.7049 13.1055 27.6521C13.1072 27.5994 13.0977 27.5469 13.0776 27.4981C12.3108 26.7616 11.6262 25.9441 11.0359 25.0598C10.2687 23.8967 9.57136 22.6891 8.94761 21.4431C8.75162 21.1109 8.64824 20.7322 8.64824 20.3465C8.64824 19.9607 8.75162 19.582 8.94761 19.2498C9.06428 19.0981 9.26261 19.1098 9.46095 19.1448C9.9451 19.2589 10.4014 19.4692 10.8026 19.7631C11.5959 20.2998 12.3543 21.0115 12.4476 21.4548C12.5409 21.8981 13.8009 22.3998 13.6843 21.1865C13.6843 21.0581 13.6843 20.7781 13.6026 20.4048C13.2738 17.8945 13.114 15.3649 13.1243 12.8331C13.145 12.3438 13.1995 11.8566 13.2876 11.3748C13.3084 11.0281 13.4392 10.6971 13.6609 10.4298C13.6793 10.4156 13.7019 10.4079 13.7251 10.4079C13.7483 10.4079 13.7709 10.4156 13.7893 10.4298C13.8681 10.4992 13.9386 10.5775 13.9993 10.6631C14.3891 11.2628 14.6916 11.9149 14.8976 12.5998C15.4787 14.4287 15.9309 16.296 16.2509 18.1881C16.2685 18.2803 16.3058 18.3676 16.3601 18.4441C16.4145 18.5206 16.4847 18.5845 16.5659 18.6315C16.6509 18.6745 16.7449 18.697 16.8401 18.697C16.9354 18.697 17.0293 18.6745 17.1143 18.6315C17.9671 18.2489 18.8994 18.0768 19.8326 18.1298C20.2742 18.1592 20.703 18.2904 21.0856 18.513C21.4681 18.7356 21.7939 19.0437 22.0376 19.4131C22.3858 20.0725 22.5433 20.8159 22.4926 21.5598C22.4471 22.8012 22.338 24.0395 22.1659 25.2698C22.1481 25.5054 22.113 25.7394 22.0609 25.9698C21.9793 26.3431 21.8859 26.7048 21.7926 27.0431C21.7766 27.0952 21.7711 27.15 21.7766 27.2042C21.782 27.2584 21.7983 27.311 21.8244 27.3588C21.8505 27.4067 21.8859 27.4488 21.9285 27.4827C21.9712 27.5167 22.0201 27.5418 22.0726 27.5565C22.1778 27.5856 22.2902 27.5727 22.386 27.5205C22.4818 27.4682 22.5535 27.3807 22.5859 27.2765C22.6909 26.9148 22.8076 26.5415 22.9009 26.1098C22.9943 25.6781 23.0059 25.5731 23.0409 25.3165C23.3063 23.8452 23.4507 22.3547 23.4726 20.8598C23.4575 20.1538 23.2734 19.4617 22.9359 18.8415Z" fill="#5A8C7C"/>
<path fill-rule="evenodd" clip-rule="evenodd" d="M11.445 2.33305C11.4272 2.55436 11.4272 2.77675 11.445 2.99805C11.445 3.28972 11.5267 3.52305 11.5384 3.62805C11.55 3.73305 11.7367 4.51472 11.8067 4.79472C11.97 5.42472 12.6934 5.01639 12.67 4.87639C12.6757 4.84946 12.6757 4.82165 12.67 4.79472C12.6765 4.76788 12.6765 4.73989 12.67 4.71305C12.67 4.44472 12.7517 3.80305 12.7867 3.62805C12.8001 3.39491 12.8001 3.16119 12.7867 2.92805C12.8152 2.73095 12.8308 2.53219 12.8334 2.33305C12.3667 -0.536946 12.3667 -0.000279013 11.9934 -0.000279013C11.62 -0.000279013 11.6667 -0.291946 11.445 2.33305Z" fill="#5A8C7C"/>
<path fill-rule="evenodd" clip-rule="evenodd" d="M8.69147 10.9314C8.69147 10.8264 8.60981 10.5931 8.23647 10.4181C7.86042 10.265 7.46941 10.1516 7.06981 10.0797C6.90667 10.0683 6.74294 10.0683 6.57981 10.0797C6.40136 10.062 6.22159 10.062 6.04314 10.0797C5.52407 10.1373 5.03931 10.3674 4.66647 10.7331C4.38647 11.1764 4.66647 11.2581 6.28814 11.4214C6.51725 11.4389 6.74736 11.4389 6.97647 11.4214C8.25981 11.3397 8.69147 11.4097 8.69147 10.9314Z" fill="#5A8C7C"/>
<path fill-rule="evenodd" clip-rule="evenodd" d="M6.2183 5.27301C6.52163 5.47134 6.7433 5.70468 7.01163 5.89134C7.27997 6.07801 7.60663 6.25301 7.92163 6.46301C8.24468 6.68622 8.60993 6.84105 8.99497 6.91801C9.05012 6.91801 9.10474 6.90715 9.15569 6.88604C9.20665 6.86493 9.25295 6.834 9.29195 6.795C9.33095 6.756 9.36189 6.7097 9.383 6.65874C9.4041 6.60778 9.41497 6.55317 9.41497 6.49801C9.40575 6.35258 9.34348 6.21558 9.23997 6.11301C9.1233 5.96134 8.7383 5.73968 8.6333 5.62301C8.39687 5.32509 8.13536 5.04797 7.85163 4.79468C7.53377 4.55068 7.18452 4.35056 6.8133 4.19968C6.61497 4.12968 5.7983 3.67468 5.35497 3.81468C5.2383 3.81468 4.9933 4.14134 5.35497 4.50301C5.45997 4.66634 5.99663 5.08634 6.2183 5.27301Z" fill="#5A8C7C"/>
<path fill-rule="evenodd" clip-rule="evenodd" d="M16.8935 6.10149C17.1152 5.96149 17.5235 5.86815 17.9319 5.62315C18.1706 5.4857 18.387 5.31259 18.5735 5.10982C18.7935 4.91944 18.9684 4.68247 19.0855 4.4161C19.2025 4.14973 19.2588 3.86064 19.2502 3.56982C19.2502 3.46042 19.2076 3.35532 19.1313 3.27689C19.0551 3.19845 18.9512 3.15286 18.8419 3.14982C18.5269 3.14982 19.0285 3.05649 17.5352 4.18815C17.4106 4.27545 17.2935 4.37302 17.1852 4.47982C16.8566 4.82861 16.5778 5.22123 16.3569 5.64649C16.323 5.6801 16.2961 5.72009 16.2778 5.76414C16.2594 5.80819 16.25 5.85544 16.25 5.90315C16.25 5.95087 16.2594 5.99812 16.2778 6.04217C16.2961 6.08622 16.323 6.1262 16.3569 6.15982C16.3955 6.19232 16.4402 6.21665 16.4885 6.23136C16.5368 6.24607 16.5875 6.25084 16.6377 6.24539C16.6878 6.23994 16.7364 6.22437 16.7803 6.19964C16.8243 6.17491 16.8628 6.14152 16.8935 6.10149Z" fill="#5A8C7C"/>
<path fill-rule="evenodd" clip-rule="evenodd" d="M18.2461 10.7096C18.2461 11.3046 18.4211 11.0946 19.6811 11.3046C19.9803 11.3223 20.2802 11.3223 20.5794 11.3046C21.0228 11.2113 21.3961 11.0246 21.8394 10.9313C21.9373 10.9148 22.0263 10.8641 22.0904 10.7883C22.1545 10.7125 22.1897 10.6164 22.1897 10.5171C22.1897 10.4178 22.1545 10.3217 22.0904 10.2459C22.0263 10.1701 21.9373 10.1194 21.8394 10.1029C21.3773 9.99115 20.9032 9.9363 20.4278 9.93959C20.1375 9.96916 19.8492 10.0159 19.5644 10.0796C19.4011 10.1379 18.8411 10.3479 18.6194 10.4529C18.3978 10.5579 18.2461 10.6746 18.2461 10.7096Z" fill="#5A8C7C"/>
</g>
<defs>
<clipPath id="clip0_74_881">
<rect width="28" height="28" fill="white"/>
</clipPath>
</defs>
</svg>
