<svg width="64" height="64" viewBox="0 0 64 64" fill="none" xmlns="http://www.w3.org/2000/svg">

<g id="Waldorf Kindergarten &#38; TK in Santa Rosa | Summerfield">

<g id="Body">
<g id="Section">

<g id="Container">
<g id="Container:margin">
<g id="Container_2">
<g id="Container_3">
<g id="Container_4">
<g id="Text:margin">
<g id="Text">

<g id="Reward-Stars-3--Streamline-Freehand">
<path id="Vector" fill-rule="evenodd" clip-rule="evenodd" d="M26.3895 23.64C24.3295 20.3226 22.9094 16.6485 22.2028 12.808C22.1322 12.5313 21.9694 12.2868 21.7412 12.1151C21.513 11.9433 21.2331 11.8544 20.9476 11.8631C20.6621 11.8718 20.3881 11.9776 20.1708 12.1629C19.9534 12.3483 19.8058 12.6022 19.7522 12.8827C17.7708 22.4454 10.8828 34.2774 1.99216 34.1574C1.76296 34.1271 1.53004 34.1422 1.30669 34.2019C1.08335 34.2617 0.873951 34.3648 0.690462 34.5055C0.319891 34.7895 0.0773368 35.2091 0.0161602 35.672C-0.0450164 36.1349 0.0801954 36.6032 0.36425 36.9737C0.648306 37.3443 1.06794 37.5869 1.53083 37.648C9.69083 40.0214 14.4695 43.232 19.1682 58.1734C19.2995 58.5779 19.5619 58.927 19.914 59.1656C20.266 59.4043 20.6875 59.5187 21.1119 59.4908C21.5363 59.463 21.9392 59.2945 22.2571 59.0119C22.5749 58.7293 22.7895 58.3489 22.8668 57.9307C23.9719 53.2446 26.2248 48.9068 29.4227 45.3076C32.6207 41.7084 36.6633 38.9608 41.1868 37.312C41.4677 37.1926 41.705 36.9896 41.8666 36.7307C42.0282 36.4718 42.1063 36.1695 42.0903 35.8647C42.0743 35.5599 41.9649 35.2675 41.7771 35.0269C41.5892 34.7864 41.332 34.6094 41.0402 34.52C35.1742 32.4481 30.0687 28.6566 26.3895 23.64ZM21.2535 18.0987C20.3654 21.8311 18.7444 25.3498 16.4848 28.4504C14.2252 31.5509 11.3719 34.1716 8.09083 36.16C12.1204 38.0201 15.477 41.0796 17.7015 44.92C24.0188 55.1307 17.1922 52.5974 26.7335 43.0347C38.1015 31.6587 40.5522 39.7067 31.4082 32.208C26.8148 28.5059 23.3064 23.6295 21.2535 18.0987Z" fill="#767D27"/>
<path id="Vector_2" fill-rule="evenodd" clip-rule="evenodd" d="M50.6671 3.15462C50.6589 2.87668 50.5407 2.61334 50.3384 2.42256C50.1362 2.23177 49.8664 2.12916 49.5884 2.13729C49.3105 2.14542 49.0471 2.26364 48.8563 2.46593C48.6656 2.66822 48.5629 2.93801 48.5711 3.21596C48.4606 5.52118 47.7503 7.75764 46.5105 9.70418C45.2706 11.6507 43.5441 13.2399 41.5017 14.3146C39.7549 15.0057 37.9061 15.4039 36.0297 15.4933C35.6528 15.559 35.3085 15.748 35.0508 16.0308C34.793 16.3136 34.6366 16.674 34.6061 17.0553C34.5756 17.4367 34.6726 17.8174 34.8821 18.1375C35.0915 18.4577 35.4014 18.6992 35.7631 18.824C38.6783 20.0464 41.2901 21.8927 43.415 24.2332C45.5398 26.5736 47.1259 29.3512 48.0617 32.3706C48.2087 32.7055 48.45 32.9903 48.7561 33.1903C49.0623 33.3903 49.4201 33.4968 49.7857 33.4968C50.1514 33.4968 50.5092 33.3903 50.8154 33.1903C51.1215 32.9903 51.3628 32.7055 51.5097 32.3706C53.4599 26.4864 57.5847 21.5698 63.0404 18.6266C63.3362 18.5014 63.5865 18.2886 63.7575 18.0167C63.9286 17.7449 64.0122 17.4271 63.9971 17.1063C63.982 16.7855 63.8689 16.477 63.673 16.2224C63.4772 15.9679 63.208 15.7795 62.9017 15.6826C59.8759 14.9867 57.1138 13.4358 54.9443 11.2148C52.7747 8.99369 51.2918 6.19596 50.6671 3.15462ZM41.5924 17.7413C43.5797 16.8995 45.3536 15.624 46.7844 14.0082C48.2152 12.3924 49.2666 10.4772 49.8617 8.40262C51.7609 12.2737 54.8945 15.4026 58.7684 17.296C54.9842 19.7371 51.9255 23.1504 49.9124 27.1786C48.2011 23.2292 45.2804 19.9248 41.5711 17.7413H41.5924Z" fill="#767D27"/>
<path id="Vector_3" fill-rule="evenodd" clip-rule="evenodd" d="M58.3198 50.5813C55.7555 52.0338 53.4459 53.8957 51.4824 56.0933C50.1682 53.6461 48.157 51.6442 45.7038 50.3413C48.128 48.6081 50.0129 46.2249 51.1411 43.4667C51.8611 44.6 52.7331 45.6267 53.7358 46.5173C53.9406 46.6744 54.1968 46.7492 54.4539 46.7271C54.7111 46.705 54.9507 46.5875 55.1258 46.3978C55.3008 46.2081 55.3986 45.9598 55.3999 45.7016C55.4013 45.4435 55.3061 45.1942 55.1331 45.0027C53.7636 43.4741 52.6999 41.6972 51.9998 39.768C51.8883 39.5253 51.7054 39.3223 51.4756 39.1863C51.2457 39.0503 50.9798 38.9877 50.7134 39.0068C50.447 39.0259 50.1928 39.1259 49.9848 39.2934C49.7767 39.4608 49.6247 39.6878 49.5491 39.944C48.9487 42.0525 47.8211 43.9732 46.2725 45.525C44.724 47.0768 42.8056 48.2085 40.6984 48.8133C40.3149 48.917 39.9762 49.1442 39.7347 49.4596C39.4932 49.7751 39.3623 50.1614 39.3623 50.5587C39.3623 50.956 39.4932 51.3422 39.7347 51.6577C39.9762 51.9732 40.3149 52.2003 40.6984 52.304C42.728 52.7905 44.5916 53.8085 46.0978 55.2533C47.604 56.6981 48.6986 58.5177 49.2691 60.5253C49.377 60.89 49.5936 61.213 49.89 61.4514C50.1863 61.6897 50.5483 61.832 50.9276 61.8592C51.3069 61.8865 51.6856 61.7974 52.0129 61.6038C52.3403 61.4103 52.6008 61.1215 52.7598 60.776C54.9406 57.0124 58.0682 53.8849 61.8318 51.704C62.0489 51.584 62.2285 51.4063 62.3509 51.1905C62.4732 50.9747 62.5334 50.7292 62.5249 50.4813C62.5163 50.2334 62.4393 49.9927 62.3024 49.7858C62.1655 49.579 61.974 49.4141 61.7491 49.3093C60.0444 48.7941 58.4311 48.0149 56.9678 47C56.0131 45.9653 52.7998 47.6347 58.3198 50.5813Z" fill="#767D27"/>
</g>
</g>
</g>
</g>
</g>
</g>
</g>
</g>
</g>
</g>
</g>

</svg>
